<?xml version="1.0" encoding="UTF-8"?>
<svg version="1.1" xmlns="http://www.w3.org/2000/svg" width="100" height="100">
<path d="M0 0 C1.18013672 -0.01998047 2.36027344 -0.03996094 3.57617188 -0.06054688 C5.28450195 -0.05958008 5.28450195 -0.05958008 7.02734375 -0.05859375 C8.0649585 -0.06044678 9.10257324 -0.0622998 10.17163086 -0.06420898 C13.85099688 0.57434326 15.45559753 1.79152372 18.0625 4.4375 C20.40005285 8.5152701 20.32579403 12.56068584 20.2578125 17.14453125 C20.2549826 17.86992599 20.25215271 18.59532074 20.24923706 19.34269714 C20.23809799 21.64530368 20.21300566 23.94751227 20.1875 26.25 C20.17746206 27.81705165 20.16833763 29.38410943 20.16015625 30.95117188 C20.139886 34.78022225 20.1007271 38.60841896 20.0625 42.4375 C25.6725 42.4375 31.2825 42.4375 37.0625 42.4375 C35.93713987 48.06430067 35.93713987 48.06430067 33.10668945 50.92675781 C32.48546707 51.56381653 31.86424469 52.20087524 31.22419739 52.85723877 C30.54822006 53.52825623 29.87224274 54.19927368 29.17578125 54.890625 C28.13383858 55.94186554 28.13383858 55.94186554 27.07084656 57.01434326 C25.60050362 58.49178274 24.1250077 59.96410934 22.64477539 61.43164062 C20.3848267 63.67773355 18.1498758 65.94674415 15.91601562 68.21875 C14.48322279 69.65249413 13.04902329 71.08483419 11.61328125 72.515625 C10.94742508 73.19473938 10.28156891 73.87385376 9.59553528 74.57354736 C6.6960567 77.41597658 4.70229686 79.2223458 0.80932617 80.53149414 C-2.37545243 80.42251363 -3.19740245 80.05957417 -5.4375 77.85546875 C-6.45263672 76.8816626 -6.45263672 76.8816626 -7.48828125 75.88818359 C-8.29652344 75.07945801 -9.10476562 74.27073242 -9.9375 73.4375 C-10.99175855 72.41959081 -12.04788611 71.40361526 -13.10546875 70.38916016 C-16.1224562 67.48365112 -19.10526276 64.54556747 -22.07666016 61.59350586 C-23.32714188 60.35467255 -24.58210956 59.12035253 -25.84130859 57.89038086 C-27.67481555 56.09928767 -29.49494259 54.29554031 -31.3125 52.48828125 C-31.87799561 51.94029373 -32.44349121 51.39230621 -33.02612305 50.82771301 C-36.9375 46.89410537 -36.9375 46.89410537 -36.9375 42.4375 C-31.3275 42.4375 -25.7175 42.4375 -19.9375 42.4375 C-19.97230469 40.12492187 -20.00710937 37.81234375 -20.04296875 35.4296875 C-20.06640309 33.17579379 -20.08459749 30.92191395 -20.10229492 28.66796875 C-20.11732869 27.10833606 -20.13776135 25.54874528 -20.16381836 23.98925781 C-20.20044211 21.74012884 -20.21728021 19.49156153 -20.23046875 17.2421875 C-20.24595261 16.5513205 -20.26143646 15.86045349 -20.27738953 15.14865112 C-20.27930221 9.57560496 -19.06189127 5.59611424 -15.11889648 1.58959961 C-10.54200379 -0.8276759 -5.05532791 -0.03027142 0 0 Z " fill="#FFFFFF" transform="translate(49.9375,-0.4375)"/>
<path d="M0 0 C2.64 0 5.28 0 8 0 C8.06058594 1.21558594 8.12117187 2.43117188 8.18359375 3.68359375 C8.26798332 5.26824228 8.3526321 6.85287702 8.4375 8.4375 C8.47681641 9.23994141 8.51613281 10.04238281 8.55664062 10.86914062 C8.4054296 14.75239561 8.4054296 14.75239561 10 18 C12.48953697 18.10033866 14.95134953 18.13617943 17.44140625 18.12939453 C18.22023163 18.13114685 18.99905701 18.13289917 19.80148315 18.13470459 C22.38851111 18.13912349 24.97547129 18.13618499 27.5625 18.1328125 C29.35229506 18.13348553 31.14209002 18.13445554 32.93188477 18.13571167 C36.68799711 18.13718869 40.44408572 18.13503394 44.20019531 18.13037109 C49.02600493 18.1246738 53.85175895 18.12795278 58.67756653 18.13394356 C62.37488223 18.13754905 66.07218464 18.13641064 69.76950073 18.13381577 C71.54938768 18.13314646 73.32927582 18.13397503 75.10916138 18.13629532 C77.59233822 18.13882165 80.07542374 18.13498154 82.55859375 18.12939453 C83.30148651 18.13141876 84.04437927 18.13344299 84.80978394 18.13552856 C88.19122214 18.4215845 88.19122214 18.4215845 91 17 C91.23701239 14.14122091 91.42219182 11.30116703 91.5625 8.4375 C91.62727539 7.22803711 91.62727539 7.22803711 91.69335938 5.99414062 C91.79975262 3.99631195 91.90040888 1.9981793 92 0 C94.64 0 97.28 0 100 0 C100.14575327 3.39537852 100.23421542 6.78994902 100.3125 10.1875 C100.35439453 11.14720703 100.39628906 12.10691406 100.43945312 13.09570312 C100.56384506 20.28555721 100.56384506 20.28555721 97.54296875 24.11328125 C96.70378906 24.73589844 95.86460938 25.35851562 95 26 C94.505 26.495 94.505 26.495 94 27 C91.28800433 27.12177539 88.60102885 27.17862602 85.88769531 27.19287109 C85.03726654 27.20104858 84.18683777 27.20922607 83.31063843 27.21765137 C80.48314122 27.24255805 77.65569444 27.25903595 74.828125 27.2734375 C73.86441734 27.27876118 72.90070969 27.28408485 71.90779877 27.28956985 C66.80572809 27.31632605 61.70368208 27.33569186 56.6015625 27.35009766 C51.32747779 27.36673963 46.05401868 27.4115066 40.78017044 27.4624691 C36.729261 27.49610898 32.67850048 27.50767162 28.62746429 27.51332474 C26.68336972 27.52004768 24.73928529 27.53529675 22.79532623 27.55921555 C20.07299258 27.59079654 17.35235117 27.59091453 14.62988281 27.58349609 C13.42490646 27.6081041 13.42490646 27.6081041 12.19558716 27.63320923 C8.04985167 27.58697322 6.25827007 27.21463904 3.02313232 24.52603149 C2.35549866 23.6924411 1.68786499 22.85885071 1 22 C0.67 21.67 0.34 21.34 0 21 C-0.08685603 19.43827255 -0.10702219 17.87270656 -0.09765625 16.30859375 C-0.09443359 15.36435547 -0.09121094 14.42011719 -0.08789062 13.44726562 C-0.07951172 12.45404297 -0.07113281 11.46082031 -0.0625 10.4375 C-0.05798828 9.44041016 -0.05347656 8.44332031 -0.04882812 7.41601562 C-0.03700007 4.94395151 -0.02051849 2.47200482 0 0 Z " fill="#FFFFFF" transform="translate(0,73)"/>
</svg>
