<?xml version="1.0" encoding="UTF-8"?>
<svg version="1.1" xmlns="http://www.w3.org/2000/svg" width="100" height="100">
<path d="M0 0 C2.52197266 -0.34057617 2.52197266 -0.34057617 5.6640625 -0.29296875 C6.6742041 -0.28547607 7.6843457 -0.2779834 8.72509766 -0.27026367 C10.01206543 -0.24295166 11.2990332 -0.21563965 12.625 -0.1875 C16.70875 -0.125625 20.7925 -0.06375 25 0 C25 8.25 25 16.5 25 25 C23.35 25.66 21.7 26.32 20 27 C17 25 17 25 16.48828125 22.8359375 C16.43027344 22.02382813 16.37226562 21.21171875 16.3125 20.375 C16.24675781 19.55773437 16.18101563 18.74046875 16.11328125 17.8984375 C16.07589844 17.27195312 16.03851563 16.64546875 16 16 C15.47567383 16.54003662 14.95134766 17.08007324 14.41113281 17.63647461 C12.03197331 20.0779805 9.64120182 22.50778956 7.25 24.9375 C6.425 25.78763672 5.6 26.63777344 4.75 27.51367188 C3.95078125 28.32255859 3.1515625 29.13144531 2.328125 29.96484375 C1.5949707 30.7137085 0.86181641 31.46257324 0.10644531 32.23413086 C-2.03162431 34.0265112 -3.22647634 34.8120811 -6 35 C-8.25 33.0625 -8.25 33.0625 -10 31 C-8.66811127 27.0555603 -7.05347394 24.6940678 -4.0859375 21.79296875 C-3.32539062 21.04208984 -2.56484375 20.29121094 -1.78125 19.51757812 C-0.9871875 18.74865234 -0.193125 17.97972656 0.625 17.1875 C1.82769531 16.00510742 1.82769531 16.00510742 3.0546875 14.79882812 C5.02985317 12.85893327 7.01168427 10.92639916 9 9 C6.03 8.67 3.06 8.34 0 8 C-1.125 5.6875 -1.125 5.6875 -2 3 C-1.34 2.01 -0.68 1.02 0 0 Z " fill="#FFFFFF" transform="translate(65,10)"/>
<path d="M0 0 C8.25 0 16.5 0 25 0 C25.66 1.65 26.32 3.3 27 5 C25 8 25 8 22.8359375 8.51171875 C21.61777344 8.59873047 21.61777344 8.59873047 20.375 8.6875 C19.55773437 8.75324219 18.74046875 8.81898437 17.8984375 8.88671875 C17.27195312 8.92410156 16.64546875 8.96148437 16 9 C16.54003662 9.52432617 17.08007324 10.04865234 17.63647461 10.58886719 C20.0779805 12.96802669 22.50778956 15.35879818 24.9375 17.75 C25.78763672 18.575 26.63777344 19.4 27.51367188 20.25 C28.32255859 21.04921875 29.13144531 21.8484375 29.96484375 22.671875 C30.7137085 23.4050293 31.46257324 24.13818359 32.23413086 24.89355469 C34.0265112 27.03162431 34.8120811 28.22647634 35 31 C33.0625 33.25 33.0625 33.25 31 35 C27.0555603 33.66811127 24.6940678 32.05347394 21.79296875 29.0859375 C21.04208984 28.32539062 20.29121094 27.56484375 19.51757812 26.78125 C18.74865234 25.9871875 17.97972656 25.193125 17.1875 24.375 C16.39923828 23.57320312 15.61097656 22.77140625 14.79882812 21.9453125 C12.85893327 19.97014683 10.92639916 17.98831573 9 16 C8.67 18.97 8.34 21.94 8 25 C5.6875 26.125 5.6875 26.125 3 27 C2.01 26.34 1.02 25.68 0 25 C-0.34057617 22.47802734 -0.34057617 22.47802734 -0.29296875 19.3359375 C-0.28547607 18.3257959 -0.2779834 17.3156543 -0.27026367 16.27490234 C-0.24295166 14.98793457 -0.21563965 13.7009668 -0.1875 12.375 C-0.125625 8.29125 -0.06375 4.2075 0 0 Z " fill="#FFFFFF" transform="translate(10,10)"/>
<path d="M0 0 C3.9444397 1.33188873 6.3059322 2.94652606 9.20703125 5.9140625 C10.33334961 7.05488281 10.33334961 7.05488281 11.48242188 8.21875 C12.25134766 9.0128125 13.02027344 9.806875 13.8125 10.625 C14.60076172 11.42679688 15.38902344 12.22859375 16.20117188 13.0546875 C18.14106673 15.02985317 20.07360084 17.01168427 22 19 C22.33 16.03 22.66 13.06 23 10 C25.3125 8.875 25.3125 8.875 28 8 C28.99 8.66 29.98 9.32 31 10 C31.34057617 12.52197266 31.34057617 12.52197266 31.29296875 15.6640625 C31.28172974 17.1792749 31.28172974 17.1792749 31.27026367 18.72509766 C31.24295166 20.01206543 31.21563965 21.2990332 31.1875 22.625 C31.0946875 28.750625 31.0946875 28.750625 31 35 C22.75 35 14.5 35 6 35 C5.34 33.35 4.68 31.7 4 30 C6 27 6 27 8.1640625 26.48828125 C8.97617188 26.43027344 9.78828125 26.37226562 10.625 26.3125 C11.44226563 26.24675781 12.25953125 26.18101563 13.1015625 26.11328125 C14.04128906 26.05720703 14.04128906 26.05720703 15 26 C14.45996338 25.47567383 13.91992676 24.95134766 13.36352539 24.41113281 C10.9220195 22.03197331 8.49221044 19.64120182 6.0625 17.25 C5.21236328 16.425 4.36222656 15.6 3.48632812 14.75 C2.67744141 13.95078125 1.86855469 13.1515625 1.03515625 12.328125 C0.2862915 11.5949707 -0.46257324 10.86181641 -1.23413086 10.10644531 C-3.0265112 7.96837569 -3.8120811 6.77352366 -4 4 C-2.0625 1.75 -2.0625 1.75 0 0 Z " fill="#FFFFFF" transform="translate(59,55)"/>
<path d="M0 0 C2.4375 1.25 2.4375 1.25 3.4375 4.25 C1.68323354 7.81311962 -0.5398673 10.46772943 -3.35546875 13.23828125 C-4.06767578 13.94404297 -4.77988281 14.64980469 -5.51367188 15.37695312 C-6.25166016 16.09818359 -6.98964844 16.81941406 -7.75 17.5625 C-8.49958984 18.30306641 -9.24917969 19.04363281 -10.02148438 19.80664062 C-11.86403282 21.62571712 -13.71109662 23.43994389 -15.5625 25.25 C-12.5925 25.58 -9.6225 25.91 -6.5625 26.25 C-5.4375 28.5625 -5.4375 28.5625 -4.5625 31.25 C-5.2225 32.24 -5.8825 33.23 -6.5625 34.25 C-9.08447266 34.59057617 -9.08447266 34.59057617 -12.2265625 34.54296875 C-13.2367041 34.53547607 -14.2468457 34.5279834 -15.28759766 34.52026367 C-16.57456543 34.49295166 -17.8615332 34.46563965 -19.1875 34.4375 C-23.27125 34.375625 -27.355 34.31375 -31.5625 34.25 C-31.5625 26 -31.5625 17.75 -31.5625 9.25 C-29.9125 8.59 -28.2625 7.93 -26.5625 7.25 C-23.5625 9.25 -23.5625 9.25 -23.05078125 11.4140625 C-22.96376953 12.63222656 -22.96376953 12.63222656 -22.875 13.875 C-22.77638672 15.10089844 -22.77638672 15.10089844 -22.67578125 16.3515625 C-22.63839844 16.97804688 -22.60101563 17.60453125 -22.5625 18.25 C-22.0277002 17.70996338 -21.49290039 17.16992676 -20.94189453 16.61352539 C-18.52636294 14.17725624 -16.10698883 11.74483893 -13.6875 9.3125 C-12.84574219 8.46236328 -12.00398438 7.61222656 -11.13671875 6.73632812 C-10.33105469 5.92744141 -9.52539062 5.11855469 -8.6953125 4.28515625 C-7.95168457 3.5362915 -7.20805664 2.78742676 -6.44189453 2.01586914 C-3.27596698 -0.9588196 -3.27596698 -0.9588196 0 0 Z " fill="#FFFFFF" transform="translate(41.5625,55.75)"/>
</svg>
