<?xml version="1.0" encoding="UTF-8"?>
<svg version="1.1" xmlns="http://www.w3.org/2000/svg" width="879" height="1015">
<path d="M0 0 C1.13842598 -0.01052147 1.13842598 -0.01052147 2.29985046 -0.02125549 C4.78459528 -0.03889099 7.26910083 -0.04512351 9.75390625 -0.046875 C10.60619812 -0.04754974 11.45848999 -0.04822449 12.33660889 -0.04891968 C84.03638959 0.04091284 158.19609723 22.30120595 217.31640625 63.203125 C217.92871094 63.6254541 218.54101562 64.0477832 219.171875 64.48291016 C223.26838783 67.32492052 227.30973561 70.23596543 231.31640625 73.203125 C232.12754883 73.80374756 232.12754883 73.80374756 232.95507812 74.41650391 C250.86459372 87.76264053 270.94037496 103.1891825 284.671875 120.95703125 C287.40670925 123.02926908 290.6898872 123.12450343 294.00390625 123.578125 C318.61005721 127.50903744 340.93628517 138.18150789 359.17578125 155.21484375 C360.90577463 156.82171716 362.65086771 158.30757625 364.50390625 159.765625 C387.1361592 179.38024423 402.00275978 211.72122531 405.06640625 241.140625 C405.17100373 242.82694053 405.25524982 244.51467583 405.31640625 246.203125 C405.35636719 247.03199219 405.39632812 247.86085937 405.4375 248.71484375 C406.23856068 280.23893763 394.25415147 309.51917976 375.31640625 334.203125 C374.40632812 335.02554687 373.49625 335.84796875 372.55859375 336.6953125 C368.82808359 341.14504467 369.61794303 347.2002738 369.62677002 352.7059021 C369.63038635 356.19271531 369.55083055 359.67800803 369.484375 363.1640625 C369.47341797 363.85559921 369.46246094 364.54713593 369.45117188 365.2596283 C368.95547977 393.8487129 368.95547977 393.8487129 364.31640625 404.203125 C359.96128509 408.16717406 355.40522449 408.46822877 349.75837708 408.91734314 C348.98149983 408.98212327 348.20462258 409.0469034 347.40420359 409.11364657 C344.79294039 409.33050582 342.1812732 409.54204808 339.56958008 409.75366211 C337.70034034 409.90786008 335.83112913 410.06240435 333.96194458 410.2172699 C329.93190158 410.55052346 325.90168196 410.88152375 321.87131691 411.2108593 C315.49616425 411.73202216 309.12153919 412.2594446 302.74699402 412.78797913 C285.7622259 414.19529349 268.77684061 415.59509307 251.79100865 416.98950726 C240.63772725 417.90511305 229.48477112 418.82448622 218.33239764 419.75109106 C211.99849872 420.27704707 205.66414384 420.79698843 199.32938254 421.31244838 C195.38225568 421.63501564 191.43560405 421.9631269 187.48906326 422.29277992 C185.66236064 422.44424387 183.83546828 422.59343981 182.00837898 422.74016571 C179.50815057 422.94127681 177.00873788 423.15061409 174.50935364 423.36192322 C173.7915316 423.41767059 173.07370957 423.47341796 172.33413535 423.53085464 C163.61328533 424.12162495 163.61328533 424.12162495 156.31640625 428.203125 C155.7329012 430.66021875 155.7329012 430.66021875 156.31640625 433.203125 C160.23972378 436.23385662 163.62138268 436.70454409 168.49291992 437.07177734 C169.21221208 437.12963976 169.93150423 437.18750217 170.67259312 437.247118 C173.10906996 437.44000549 175.54653606 437.6142962 177.984375 437.7890625 C179.77590948 437.92732559 181.56734995 438.06681111 183.35870361 438.20739746 C187.30102189 438.51440316 191.24384577 438.81332839 195.18722534 439.10638428 C201.60317829 439.58360102 208.01760541 440.0794657 214.43188477 440.57861328 C221.63415871 441.13829082 228.8365139 441.69680476 236.03929138 442.24996948 C267.75780222 444.68700803 299.46898471 447.21644286 331.17959309 449.75397682 C341.29481382 450.56325304 351.41032922 451.36863405 361.52629173 452.16858649 C368.56492904 452.72536743 375.60329098 453.28554112 382.64145291 453.84829926 C386.75600455 454.17717168 390.8706651 454.50448561 394.98566437 454.82771301 C398.80271033 455.12758906 402.61936726 455.43201262 406.43578112 455.73982549 C408.46682168 455.90249382 410.49823728 456.06045878 412.52966595 456.21820641 C436.04284848 458.13074717 436.04284848 458.13074717 440.31640625 462.203125 C441.31048563 465.18536314 441.54681603 467.39187622 441.62890625 470.515625 C441.66628906 471.43988281 441.70367188 472.36414063 441.7421875 473.31640625 C441.17050231 477.19232694 439.77773096 479.16544209 437.31640625 482.203125 C434.33311462 483.47880554 434.33311462 483.47880554 430.67944336 484.2487793 C429.64354647 484.47673329 429.64354647 484.47673329 428.58672237 484.70929241 C426.16802119 485.23298487 423.7431249 485.71800904 421.31640625 486.203125 C419.43405987 486.59695763 417.55200361 486.9921788 415.67019653 487.38858032 C408.95720377 488.7892619 402.23273719 490.1306657 395.5078125 491.47265625 C392.94576827 491.98694013 390.38379917 492.50159843 387.82189941 493.01660156 C382.3556814 494.11499861 376.88897306 495.21092368 371.42190552 496.30508423 C358.38933816 498.91352885 345.35905212 501.53333733 332.32864189 504.15253258 C329.35313925 504.7506148 326.37759845 505.34850663 323.40202522 505.94623756 C302.11762931 510.2219931 280.83890094 514.52479693 259.56640625 518.859375 C258.27377302 519.1227384 256.98113979 519.3861018 255.64933586 519.65744591 C244.50355495 521.92871994 233.35827387 524.20243852 222.21365356 526.47940063 C209.61075151 529.05418575 197.00661968 531.62258947 184.39874268 534.1729126 C180.52812987 534.95626182 176.65923476 535.74763171 172.79102039 536.54272556 C169.82076363 537.15049427 166.84779195 537.74461955 163.875 538.33984375 C162.917715 538.53955276 161.96042999 538.73926178 160.97413635 538.94502258 C152.30149433 540.65115122 143.93122941 541.29669087 135.49609375 538.23046875 C134.56879959 537.89933327 134.56879959 537.89933327 133.62277222 537.56150818 C131.51168853 536.79762858 129.41393022 536.00345791 127.31640625 535.203125 C126.53366333 534.90786926 125.75092041 534.61261353 124.94445801 534.30841064 C119.45117783 532.23121794 113.9771777 530.106423 108.50830078 527.96591187 C104.22658315 526.29018113 99.94162748 524.62279866 95.65692139 522.95472717 C93.37620523 522.06673536 91.09564927 521.17833203 88.81524658 520.28953552 C75.99380018 515.29342329 63.15534435 510.34157216 50.31640625 505.390625 C47.95530466 504.47978195 45.59422073 503.56889315 43.2331543 502.65795898 C38.4291019 500.8045178 33.62497588 498.95126765 28.82080078 497.09814453 C20.89058053 494.03904445 12.96086169 490.97864589 5.03125 487.91796875 C4.03048872 487.53169469 4.03048872 487.53169469 3.00951004 487.13761711 C-0.28883187 485.86451592 -3.58716681 484.59139666 -6.88549805 483.31826782 C-12.99653974 480.95946481 -19.10764877 478.60083626 -25.21875 476.2421875 C-27.26440458 475.45263746 -29.31005891 474.66308676 -31.35571289 473.87353516 C-32.61672569 473.38682846 -32.61672569 473.38682846 -33.9032135 472.89028931 C-34.49073898 472.66352509 -35.07826447 472.43676086 -35.68359375 472.203125 C-41.15218354 479.95584902 -41.15218354 479.95584902 -46.375 487.875 C-47.00269287 488.85807129 -47.63038574 489.84114258 -48.27709961 490.85400391 C-48.92686768 491.87671387 -49.57663574 492.89942383 -50.24609375 493.953125 C-50.93646729 495.0364209 -51.62684082 496.1197168 -52.33813477 497.23583984 C-53.76048146 499.46819045 -55.1819506 501.70110042 -56.60253906 503.93457031 C-58.56996374 507.02465497 -60.54353443 510.11070448 -62.51953125 513.1953125 C-65.92719703 518.51893677 -69.3126334 523.85619453 -72.68359375 529.203125 C-73.17601562 529.98059082 -73.6684375 530.75805664 -74.17578125 531.55908203 C-75.50265169 533.66255654 -76.81471081 535.77438394 -78.12109375 537.890625 C-78.50515381 538.49664551 -78.88921387 539.10266602 -79.28491211 539.72705078 C-80.43084236 541.55352035 -80.43084236 541.55352035 -81.68359375 544.203125 C-80.56161936 547.56904817 -80.12570485 547.84922037 -77.24609375 549.62109375 C-76.52494385 550.06686768 -75.80379395 550.5126416 -75.06079102 550.97192383 C-74.27631592 551.44009521 -73.49184082 551.9082666 -72.68359375 552.390625 C-71.87269287 552.87748779 -71.06179199 553.36435059 -70.22631836 553.8659668 C-52.28752744 564.46070064 -31.92311454 573.27190182 -10.92578125 575.015625 C-8.68359375 575.203125 -8.68359375 575.203125 -6.50390625 575.578125 C-2.56973803 576.02614416 -0.41689033 575.6854421 2.94140625 573.4765625 C5.79564103 571.11695363 8.55399895 568.66928527 11.31640625 566.203125 C30.78891604 550.59605372 52.29393557 542.73814859 77.31640625 544.203125 C92.79143357 546.1690667 108.20623862 555.19335866 118.00390625 567.2734375 C123.38942561 575.19143323 126.11700994 582.63955 125.31640625 592.203125 C122.5622545 601.04540167 116.09936561 605.79197568 108.31640625 610.203125 C100.55746397 613.93338571 92.6633797 615.94249522 84.1640625 613.61328125 C79.85381406 611.76115469 77.07664892 609.03166817 73.87890625 605.640625 C69.09221977 600.65688796 64.95266737 598.44088198 58.03125 598.0859375 C52.12297011 598.38996562 48.00845772 600.73842214 43.31640625 604.203125 C43.7721928 612.40728294 47.12242867 618.34475063 51.12890625 625.390625 C53.16583762 630.21493613 52.76404425 633.86021099 51.12890625 638.765625 C48.48519423 643.77956159 46.02625228 647.21667537 41.06640625 650.078125 C35.64998084 651.70305262 31.32551344 652.38189922 25.953125 650.27734375 C15.95295186 644.57976611 13.04374685 632.97695209 9.39453125 622.72265625 C8.57832456 620.064763 8.57832456 620.064763 6.31640625 619.203125 C3.57487061 619.29520258 0.86336531 619.44626945 -1.87109375 619.640625 C-49.89658989 622.54034912 -105.39518358 611.55722293 -142.68359375 579.203125 C-143.52535156 578.49414062 -144.36710937 577.78515625 -145.234375 577.0546875 C-154.29042321 569.22168677 -166.93991722 557.1957399 -167.98046875 544.61328125 C-167.90044886 539.44611464 -166.04112473 535.29154457 -163.93359375 530.640625 C-163.3295874 529.27695801 -163.3295874 529.27695801 -162.71337891 527.88574219 C-148.95126894 497.3345887 -131.42215823 468.50721128 -110.68359375 442.203125 C-114.582427 439.60390283 -118.00448933 438.87728798 -122.70703125 439.44921875 C-133.27014314 441.73586941 -139.00330981 449.62988654 -144.68359375 458.203125 C-148.43971808 464.27250214 -151.90965311 470.50252684 -155.34082031 476.75976562 C-156.47793627 478.82890317 -157.63348272 480.88533224 -158.80078125 482.9375 C-165.10738331 494.2946174 -170.20055653 506.2311561 -175.35058594 518.14599609 C-176.46724669 520.70695323 -177.61461603 523.24859676 -178.78515625 525.78515625 C-183.18464497 535.55482624 -184.81021103 545.12681857 -181.12109375 555.453125 C-175.27836246 567.95862005 -165.78721859 577.05170467 -154.74609375 585.015625 C-153.92125488 585.61528076 -153.09641602 586.21493652 -152.24658203 586.83276367 C-141.43174943 594.62875735 -130.4912623 601.86682425 -118.62109375 607.953125 C-99.09850596 618.06597004 -90.09008227 637.91426 -83.49609375 658.203125 C-75.47824841 684.05757585 -72.36826877 711.22532149 -72.68359375 738.203125 C-72.02359375 738.203125 -71.36359375 738.203125 -70.68359375 738.203125 C-70.60109375 737.543125 -70.51859375 736.883125 -70.43359375 736.203125 C-67.74830702 725.46197809 -60.24419946 717.28908518 -51.18359375 711.265625 C-43.24565811 706.58456142 -35.97835107 704.09330323 -26.68359375 705.203125 C-20.79395651 706.94105074 -18.13029585 709.33719262 -14.68359375 714.203125 C-13.64077819 717.33157169 -13.44963666 719.72922429 -13.37109375 723.015625 C-13.33371094 724.03269531 -13.29632813 725.04976562 -13.2578125 726.09765625 C-13.81688471 730.17529298 -14.99130214 732.08685045 -17.68359375 735.203125 C-20.22841587 736.87115079 -22.90281126 738.10397619 -25.68359375 739.328125 C-33.46938217 742.71024677 -33.46938217 742.71024677 -38.68359375 749.203125 C-39.35303646 754.78181428 -38.18754775 757.91813133 -35.1171875 762.40625 C-32.40356659 765.80751871 -29.79533784 767.83254364 -25.68359375 769.203125 C-17.37602889 770.12618776 -11.62181539 767.76500573 -4.68359375 763.203125 C-1.46361965 760.54546256 1.49090683 757.65477923 4.4296875 754.69140625 C9.41600922 750.39331838 14.45756017 748.58326736 21.0546875 748.86328125 C27.98914876 749.90524693 32.45833597 753.74502033 36.78125 759.0625 C44.34289449 769.60647247 45.5075202 781.59437656 44.31640625 794.203125 C42.13767885 804.99239182 35.584068 813.16197159 26.8359375 819.5703125 C9.18237069 831.01091859 -11.94583373 831.92984286 -32.3605957 828.07421875 C-46.95666171 824.77984953 -59.02551638 818.39906389 -70.68359375 809.203125 C-71.52921875 808.543125 -72.37484375 807.883125 -73.24609375 807.203125 C-86.74929426 795.9504579 -94.26624681 780.07500104 -101.04614258 764.25268555 C-115.21033001 731.31447528 -137.96442122 690.57524758 -172.68359375 676.203125 C-177.67969381 674.52796204 -182.10517258 673.88136991 -187.37109375 673.828125 C-188.65371094 673.79976562 -189.93632812 673.77140625 -191.2578125 673.7421875 C-194.67248579 673.94094276 -194.67248579 673.94094276 -197.0078125 675.7890625 C-199.13164391 678.84856789 -199.91261011 681.58907334 -200.80859375 685.203125 C-201.12054688 686.42 -201.4325 687.636875 -201.75390625 688.890625 C-203.89073667 698.40839994 -205.04977025 707.62993604 -204.99609375 717.390625 C-204.98763428 719.02463257 -204.98763428 719.02463257 -204.97900391 720.69165039 C-204.47353493 754.60061157 -189.0541307 784.41325591 -166.68359375 809.203125 C-165.96816406 810.00234375 -165.25273437 810.8015625 -164.515625 811.625 C-113.583493 865.5194136 -22.22202737 888.85756348 48.98095703 891.13061523 C72.88820873 891.60278266 96.83681906 889.73160292 120.31640625 885.203125 C122.07090088 884.86933838 122.07090088 884.86933838 123.86083984 884.52880859 C183.92026773 872.7937899 245.14328599 846.79915489 291.31640625 806.203125 C292.38375 805.30207031 292.38375 805.30207031 293.47265625 804.3828125 C323.48001713 778.92574815 345.78644958 742.39581734 350.10546875 702.81298828 C352.05037101 678.74932491 350.36919314 655.48382928 334.796875 635.89453125 C323.24491708 623.36020211 307.84063475 618.10406399 291.23828125 617.07421875 C272.39484471 616.55078996 254.54001844 622.5644834 240.56640625 635.265625 C230.47124432 645.88638782 226.73287981 659.46372359 227.00390625 673.828125 C227.86738515 683.15369716 230.83869836 691.38035761 237.31640625 698.203125 C238.06857422 698.99783203 238.06857422 698.99783203 238.8359375 699.80859375 C248.49308302 708.94881177 259.69195228 711.62240944 272.5703125 711.42578125 C279.09925741 711.03772092 284.27752063 709.43578892 289.31640625 705.203125 C289.97640625 705.203125 290.63640625 705.203125 291.31640625 705.203125 C297.67140133 693.20659424 297.67140133 693.20659424 297.23828125 680.04296875 C295.82466414 677.22172443 293.9885213 676.0628666 291.1640625 674.76953125 C288.02787584 673.80812096 286.43441758 674.10265041 283.31640625 675.203125 C280.68139541 676.6651843 278.12520861 678.20548785 275.5859375 679.828125 C270.70211409 682.78699908 265.86434365 682.67915707 260.31640625 682.203125 C254.94852727 680.31442684 251.85649041 677.28329331 249.31640625 672.203125 C248.60061654 664.57585764 248.969524 658.60069589 253.31640625 652.203125 C253.97640625 651.1925 254.63640625 650.181875 255.31640625 649.140625 C262.44452554 641.13788984 273.85607154 636.80460842 284.3203125 635.9609375 C298.20175005 635.64182399 309.9147314 639.31853158 320.62890625 648.390625 C330.86041671 658.22798417 336.29766949 670.10266128 336.73583984 684.28100586 C336.88396868 704.65272463 329.56057707 721.99384867 315.71484375 736.8515625 C303.44542025 748.8811927 286.96761527 754.13754226 270.06640625 754.453125 C247.4129968 754.06373374 223.4558881 747.80872326 206.31640625 732.203125 C205.57132813 731.53796875 204.82625 730.8728125 204.05859375 730.1875 C193.78781015 720.50859206 187.94141738 709.29768775 183.31640625 696.203125 C182.98640625 695.28273438 182.65640625 694.36234375 182.31640625 693.4140625 C175.11846046 671.61259209 179.72559427 645.87831435 188.7265625 625.33203125 C196.56385877 609.90777003 207.64961508 597.44488375 222.31640625 588.203125 C223.01121094 587.71714844 223.70601562 587.23117187 224.421875 586.73046875 C249.71753187 569.94131596 283.8479257 566.43689118 313.25390625 571.328125 C315.62436323 571.88817802 317.98028406 572.51373482 320.31640625 573.203125 C320.9909082 573.40180176 321.66541016 573.60047852 322.36035156 573.80517578 C350.24117667 582.25295189 375.4380102 600.59188083 389.54736328 626.45996094 C411.64577592 669.02308524 408.54404354 717.361485 394.53515625 761.98828125 C376.42408317 817.38991669 339.95070123 869.60358303 295.31640625 907.203125 C294.39859375 907.99847656 293.48078125 908.79382813 292.53515625 909.61328125 C278.84596121 921.43024565 264.39689024 932.22963418 249.31640625 942.203125 C248.26259766 942.90405273 248.26259766 942.90405273 247.1875 943.61914062 C187.09776167 983.33856516 117.65015519 1005.10063052 46.31640625 1012.203125 C45.48512207 1012.2944873 44.65383789 1012.38584961 43.79736328 1012.47998047 C-12.79855806 1018.32347398 -75.37737106 1013.72154377 -129.68359375 996.203125 C-131.28920166 995.68661377 -131.28920166 995.68661377 -132.92724609 995.15966797 C-147.86131896 990.29257458 -162.41644389 984.7717591 -176.68359375 978.203125 C-177.78574219 977.69652344 -178.88789063 977.18992187 -180.0234375 976.66796875 C-219.92807867 958.17983817 -256.91291034 934.62881089 -289.68359375 905.203125 C-290.58078125 904.40519531 -291.47796875 903.60726562 -292.40234375 902.78515625 C-294.02443011 901.33503157 -295.6405304 899.87817771 -297.25 898.4140625 C-298.95490679 896.86514237 -300.67216958 895.32976448 -302.3984375 893.8046875 C-335.24221835 864.44366999 -362.78615959 827.30552425 -384.68359375 789.203125 C-385.13460449 788.42146973 -385.58561523 787.63981445 -386.05029297 786.83447266 C-439.39343387 693.67816462 -447.13126881 581.96769032 -422.87109375 466.890625 C-421.85452803 463.31334725 -420.78126752 459.75627379 -419.68359375 456.203125 C-419.40177246 455.27822266 -419.11995117 454.35332031 -418.82958984 453.40039062 C-403.89354374 404.93865295 -380.03633831 358.11183831 -348.68359375 318.203125 C-347.8052028 317.05919747 -346.92764818 315.91462742 -346.05078125 314.76953125 C-341.00746296 308.22197231 -335.80708329 301.94590171 -330.16796875 295.8984375 C-328.25986235 293.82832207 -326.42062265 291.73420255 -324.58984375 289.59765625 C-320.24612308 284.61769863 -315.60408944 279.93755597 -310.93310547 275.26733398 C-309.44466138 273.77670885 -307.96442098 272.27825483 -306.484375 270.77929688 C-300.97968247 265.24252066 -295.32715626 260.11127475 -289.21362305 255.23681641 C-286.94608379 253.41412008 -284.76264065 251.53558395 -282.59375 249.59765625 C-278.28044197 245.78857228 -273.73294999 242.32844824 -269.12109375 238.890625 C-268.24195313 238.23473389 -267.3628125 237.57884277 -266.45703125 236.90307617 C-259.03018676 231.39848174 -251.50480096 226.13094879 -243.68359375 221.203125 C-242.61915039 220.52999268 -242.61915039 220.52999268 -241.53320312 219.84326172 C-227.0455821 210.75268438 -211.96052951 202.87485924 -196.68359375 195.203125 C-195.95366211 194.83348633 -195.22373047 194.46384766 -194.47167969 194.08300781 C-158.27581748 175.88046439 -115.77337249 161.9292624 -75.54907227 156.80371094 C-68.92477675 155.91766194 -64.70156826 154.70514728 -59.74609375 150.203125 C-58.57672217 149.20952191 -57.40611703 148.21736905 -56.234375 147.2265625 C-55.65252441 146.72350586 -55.07067383 146.22044922 -54.47119141 145.70214844 C-52.68531043 144.20456456 -50.8550883 142.80875809 -48.9765625 141.4296875 C-48.38157959 140.99140625 -47.78659668 140.553125 -47.17358398 140.1015625 C-45.52719914 138.89663149 -43.87889106 137.69432962 -42.23046875 136.4921875 C-38.3392493 132.9948645 -37.51871904 129.13107172 -36.74195862 124.07983398 C-36.58367584 123.07048798 -36.42539307 122.06114197 -36.26231384 121.02120972 C-36.0965535 119.9249527 -35.93079315 118.82869568 -35.76000977 117.69921875 C-35.48882324 115.95452805 -35.48882324 115.95452805 -35.2121582 114.17459106 C-34.7184847 110.99342485 -34.22992923 107.81151785 -33.74294782 104.62932205 C-33.23070891 101.29425812 -32.71002236 97.96051685 -32.18968201 94.62670898 C-30.42002842 83.27810789 -28.66500807 71.92726069 -26.91772461 60.57519531 C-25.95181041 54.30027119 -24.97809651 48.02660527 -23.99614471 41.75417042 C-23.47738819 38.43784709 -22.9629087 35.12097927 -22.45837593 31.80245972 C-21.89421246 28.1023902 -21.31687537 24.40459865 -20.73657227 20.70703125 C-20.57283615 19.61077423 -20.40910004 18.51451721 -20.24040222 17.38504028 C-20.07929962 16.37569427 -19.91819702 15.36634827 -19.75221252 14.32641602 C-19.55008825 13.01568871 -19.55008825 13.01568871 -19.34388065 11.67848206 C-18.09485931 6.9960118 -15.82387663 3.71238735 -11.68359375 1.203125 C-7.87894972 -0.10171071 -3.97579687 0.02432575 0 0 Z " fill="#3675C5" transform="translate(437.68359375,0.796875)"/>
<path d="M0 0 C1.13842598 -0.01052147 1.13842598 -0.01052147 2.29985046 -0.02125549 C4.78459528 -0.03889099 7.26910083 -0.04512351 9.75390625 -0.046875 C10.60619812 -0.04754974 11.45848999 -0.04822449 12.33660889 -0.04891968 C84.03638959 0.04091284 158.19609723 22.30120595 217.31640625 63.203125 C217.92871094 63.6254541 218.54101562 64.0477832 219.171875 64.48291016 C223.26838783 67.32492052 227.30973561 70.23596543 231.31640625 73.203125 C232.12754883 73.80374756 232.12754883 73.80374756 232.95507812 74.41650391 C250.86459372 87.76264053 270.94037496 103.1891825 284.671875 120.95703125 C287.40670925 123.02926908 290.6898872 123.12450343 294.00390625 123.578125 C318.61005721 127.50903744 340.93628517 138.18150789 359.17578125 155.21484375 C360.90577463 156.82171716 362.65086771 158.30757625 364.50390625 159.765625 C387.1361592 179.38024423 402.00275978 211.72122531 405.06640625 241.140625 C405.17100373 242.82694053 405.25524982 244.51467583 405.31640625 246.203125 C405.35636719 247.03199219 405.39632812 247.86085937 405.4375 248.71484375 C406.23856068 280.23893763 394.25415147 309.51917976 375.31640625 334.203125 C374.40632812 335.02554687 373.49625 335.84796875 372.55859375 336.6953125 C368.82808359 341.14504467 369.61794303 347.2002738 369.62677002 352.7059021 C369.63038635 356.19271531 369.55083055 359.67800803 369.484375 363.1640625 C369.47341797 363.85559921 369.46246094 364.54713593 369.45117188 365.2596283 C368.95547977 393.8487129 368.95547977 393.8487129 364.31640625 404.203125 C359.96128509 408.16717406 355.40522449 408.46822877 349.75837708 408.91734314 C348.98149983 408.98212327 348.20462258 409.0469034 347.40420359 409.11364657 C344.79294039 409.33050582 342.1812732 409.54204808 339.56958008 409.75366211 C337.70034034 409.90786008 335.83112913 410.06240435 333.96194458 410.2172699 C329.93190158 410.55052346 325.90168196 410.88152375 321.87131691 411.2108593 C315.49616425 411.73202216 309.12153919 412.2594446 302.74699402 412.78797913 C285.7622259 414.19529349 268.77684061 415.59509307 251.79100865 416.98950726 C240.63772725 417.90511305 229.48477112 418.82448622 218.33239764 419.75109106 C211.99849872 420.27704707 205.66414384 420.79698843 199.32938254 421.31244838 C195.38225568 421.63501564 191.43560405 421.9631269 187.48906326 422.29277992 C185.66236064 422.44424387 183.83546828 422.59343981 182.00837898 422.74016571 C179.50815057 422.94127681 177.00873788 423.15061409 174.50935364 423.36192322 C173.7915316 423.41767059 173.07370957 423.47341796 172.33413535 423.53085464 C163.61328533 424.12162495 163.61328533 424.12162495 156.31640625 428.203125 C155.7329012 430.66021875 155.7329012 430.66021875 156.31640625 433.203125 C160.23972378 436.23385662 163.62138268 436.70454409 168.49291992 437.07177734 C169.21221208 437.12963976 169.93150423 437.18750217 170.67259312 437.247118 C173.10906996 437.44000549 175.54653606 437.6142962 177.984375 437.7890625 C179.77590948 437.92732559 181.56734995 438.06681111 183.35870361 438.20739746 C187.30102189 438.51440316 191.24384577 438.81332839 195.18722534 439.10638428 C201.60317829 439.58360102 208.01760541 440.0794657 214.43188477 440.57861328 C221.63415871 441.13829082 228.8365139 441.69680476 236.03929138 442.24996948 C267.75780222 444.68700803 299.46898471 447.21644286 331.17959309 449.75397682 C341.29481382 450.56325304 351.41032922 451.36863405 361.52629173 452.16858649 C368.56492904 452.72536743 375.60329098 453.28554112 382.64145291 453.84829926 C386.75600455 454.17717168 390.8706651 454.50448561 394.98566437 454.82771301 C398.80271033 455.12758906 402.61936726 455.43201262 406.43578112 455.73982549 C408.46682168 455.90249382 410.49823728 456.06045878 412.52966595 456.21820641 C436.04284848 458.13074717 436.04284848 458.13074717 440.31640625 462.203125 C441.31048563 465.18536314 441.54681603 467.39187622 441.62890625 470.515625 C441.66628906 471.43988281 441.70367188 472.36414063 441.7421875 473.31640625 C441.17050231 477.19232694 439.77773096 479.16544209 437.31640625 482.203125 C434.33311462 483.47880554 434.33311462 483.47880554 430.67944336 484.2487793 C429.64354647 484.47673329 429.64354647 484.47673329 428.58672237 484.70929241 C426.16802119 485.23298487 423.7431249 485.71800904 421.31640625 486.203125 C419.43405987 486.59695763 417.55200361 486.9921788 415.67019653 487.38858032 C408.95720377 488.7892619 402.23273719 490.1306657 395.5078125 491.47265625 C392.94576827 491.98694013 390.38379917 492.50159843 387.82189941 493.01660156 C382.3556814 494.11499861 376.88897306 495.21092368 371.42190552 496.30508423 C358.38933816 498.91352885 345.35905212 501.53333733 332.32864189 504.15253258 C329.35313925 504.7506148 326.37759845 505.34850663 323.40202522 505.94623756 C302.11762931 510.2219931 280.83890094 514.52479693 259.56640625 518.859375 C258.27377302 519.1227384 256.98113979 519.3861018 255.64933586 519.65744591 C244.50355495 521.92871994 233.35827387 524.20243852 222.21365356 526.47940063 C209.61075151 529.05418575 197.00661968 531.62258947 184.39874268 534.1729126 C180.52812987 534.95626182 176.65923476 535.74763171 172.79102039 536.54272556 C169.82076363 537.15049427 166.84779195 537.74461955 163.875 538.33984375 C162.917715 538.53955276 161.96042999 538.73926178 160.97413635 538.94502258 C152.30149433 540.65115122 143.93122941 541.29669087 135.49609375 538.23046875 C134.56879959 537.89933327 134.56879959 537.89933327 133.62277222 537.56150818 C131.51168853 536.79762858 129.41393022 536.00345791 127.31640625 535.203125 C126.53366333 534.90786926 125.75092041 534.61261353 124.94445801 534.30841064 C119.45117783 532.23121794 113.9771777 530.106423 108.50830078 527.96591187 C104.22658315 526.29018113 99.94162748 524.62279866 95.65692139 522.95472717 C93.37620523 522.06673536 91.09564927 521.17833203 88.81524658 520.28953552 C75.99380018 515.29342329 63.15534435 510.34157216 50.31640625 505.390625 C47.95530466 504.47978195 45.59422073 503.56889315 43.2331543 502.65795898 C38.4291019 500.8045178 33.62497588 498.95126765 28.82080078 497.09814453 C20.89058053 494.03904445 12.96086169 490.97864589 5.03125 487.91796875 C4.03048872 487.53169469 4.03048872 487.53169469 3.00951004 487.13761711 C-0.28883187 485.86451592 -3.58716681 484.59139666 -6.88549805 483.31826782 C-12.99653974 480.95946481 -19.10764877 478.60083626 -25.21875 476.2421875 C-27.26440458 475.45263746 -29.31005891 474.66308676 -31.35571289 473.87353516 C-32.61672569 473.38682846 -32.61672569 473.38682846 -33.9032135 472.89028931 C-34.49073898 472.66352509 -35.07826447 472.43676086 -35.68359375 472.203125 C-41.15218354 479.95584902 -41.15218354 479.95584902 -46.375 487.875 C-47.00269287 488.85807129 -47.63038574 489.84114258 -48.27709961 490.85400391 C-48.92686768 491.87671387 -49.57663574 492.89942383 -50.24609375 493.953125 C-50.93646729 495.0364209 -51.62684082 496.1197168 -52.33813477 497.23583984 C-53.76048146 499.46819045 -55.1819506 501.70110042 -56.60253906 503.93457031 C-58.56996374 507.02465497 -60.54353443 510.11070448 -62.51953125 513.1953125 C-65.92719703 518.51893677 -69.3126334 523.85619453 -72.68359375 529.203125 C-73.17601562 529.98059082 -73.6684375 530.75805664 -74.17578125 531.55908203 C-75.50265169 533.66255654 -76.81471081 535.77438394 -78.12109375 537.890625 C-78.50515381 538.49664551 -78.88921387 539.10266602 -79.28491211 539.72705078 C-80.43084236 541.55352035 -80.43084236 541.55352035 -81.68359375 544.203125 C-80.56161936 547.56904817 -80.12570485 547.84922037 -77.24609375 549.62109375 C-76.52494385 550.06686768 -75.80379395 550.5126416 -75.06079102 550.97192383 C-74.27631592 551.44009521 -73.49184082 551.9082666 -72.68359375 552.390625 C-71.87269287 552.87748779 -71.06179199 553.36435059 -70.22631836 553.8659668 C-52.28752744 564.46070064 -31.92311454 573.27190182 -10.92578125 575.015625 C-8.68359375 575.203125 -8.68359375 575.203125 -6.50390625 575.578125 C-2.56973803 576.02614416 -0.41689033 575.6854421 2.94140625 573.4765625 C5.79564103 571.11695363 8.55399895 568.66928527 11.31640625 566.203125 C30.78891604 550.59605372 52.29393557 542.73814859 77.31640625 544.203125 C92.79143357 546.1690667 108.20623862 555.19335866 118.00390625 567.2734375 C123.38942561 575.19143323 126.11700994 582.63955 125.31640625 592.203125 C122.5622545 601.04540167 116.09936561 605.79197568 108.31640625 610.203125 C100.55746397 613.93338571 92.6633797 615.94249522 84.1640625 613.61328125 C79.85381406 611.76115469 77.07664892 609.03166817 73.87890625 605.640625 C69.09221977 600.65688796 64.95266737 598.44088198 58.03125 598.0859375 C52.12297011 598.38996562 48.00845772 600.73842214 43.31640625 604.203125 C43.7721928 612.40728294 47.12242867 618.34475063 51.12890625 625.390625 C53.16583762 630.21493613 52.76404425 633.86021099 51.12890625 638.765625 C48.48519423 643.77956159 46.02625228 647.21667537 41.06640625 650.078125 C35.64998084 651.70305262 31.32551344 652.38189922 25.953125 650.27734375 C15.95295186 644.57976611 13.04374685 632.97695209 9.39453125 622.72265625 C8.57832456 620.064763 8.57832456 620.064763 6.31640625 619.203125 C3.57487061 619.29520258 0.86336531 619.44626945 -1.87109375 619.640625 C-49.89658989 622.54034912 -105.39518358 611.55722293 -142.68359375 579.203125 C-143.52535156 578.49414062 -144.36710937 577.78515625 -145.234375 577.0546875 C-154.29042321 569.22168677 -166.93991722 557.1957399 -167.98046875 544.61328125 C-167.90044886 539.44611464 -166.04112473 535.29154457 -163.93359375 530.640625 C-163.3295874 529.27695801 -163.3295874 529.27695801 -162.71337891 527.88574219 C-148.95126894 497.3345887 -131.42215823 468.50721128 -110.68359375 442.203125 C-114.582427 439.60390283 -118.00448933 438.87728798 -122.70703125 439.44921875 C-133.27014314 441.73586941 -139.00330981 449.62988654 -144.68359375 458.203125 C-148.43971808 464.27250214 -151.90965311 470.50252684 -155.34082031 476.75976562 C-156.47793627 478.82890317 -157.63348272 480.88533224 -158.80078125 482.9375 C-165.10738331 494.2946174 -170.20055653 506.2311561 -175.35058594 518.14599609 C-176.46724669 520.70695323 -177.61461603 523.24859676 -178.78515625 525.78515625 C-183.18464497 535.55482624 -184.81021103 545.12681857 -181.12109375 555.453125 C-175.27836246 567.95862005 -165.78721859 577.05170467 -154.74609375 585.015625 C-153.92125488 585.61528076 -153.09641602 586.21493652 -152.24658203 586.83276367 C-141.43174943 594.62875735 -130.4912623 601.86682425 -118.62109375 607.953125 C-99.09850596 618.06597004 -90.09008227 637.91426 -83.49609375 658.203125 C-75.47824841 684.05757585 -72.36826877 711.22532149 -72.68359375 738.203125 C-72.02359375 738.203125 -71.36359375 738.203125 -70.68359375 738.203125 C-70.60109375 737.543125 -70.51859375 736.883125 -70.43359375 736.203125 C-67.74830702 725.46197809 -60.24419946 717.28908518 -51.18359375 711.265625 C-43.24565811 706.58456142 -35.97835107 704.09330323 -26.68359375 705.203125 C-20.79395651 706.94105074 -18.13029585 709.33719262 -14.68359375 714.203125 C-13.64077819 717.33157169 -13.44963666 719.72922429 -13.37109375 723.015625 C-13.33371094 724.03269531 -13.29632813 725.04976562 -13.2578125 726.09765625 C-13.81688471 730.17529298 -14.99130214 732.08685045 -17.68359375 735.203125 C-20.22841587 736.87115079 -22.90281126 738.10397619 -25.68359375 739.328125 C-33.46938217 742.71024677 -33.46938217 742.71024677 -38.68359375 749.203125 C-39.35303646 754.78181428 -38.18754775 757.91813133 -35.1171875 762.40625 C-32.40356659 765.80751871 -29.79533784 767.83254364 -25.68359375 769.203125 C-17.37602889 770.12618776 -11.62181539 767.76500573 -4.68359375 763.203125 C-1.46361965 760.54546256 1.49090683 757.65477923 4.4296875 754.69140625 C9.41600922 750.39331838 14.45756017 748.58326736 21.0546875 748.86328125 C27.98914876 749.90524693 32.45833597 753.74502033 36.78125 759.0625 C44.34289449 769.60647247 45.5075202 781.59437656 44.31640625 794.203125 C42.13767885 804.99239182 35.584068 813.16197159 26.8359375 819.5703125 C9.18237069 831.01091859 -11.94583373 831.92984286 -32.3605957 828.07421875 C-46.95666171 824.77984953 -59.02551638 818.39906389 -70.68359375 809.203125 C-71.52921875 808.543125 -72.37484375 807.883125 -73.24609375 807.203125 C-86.74929426 795.9504579 -94.26624681 780.07500104 -101.04614258 764.25268555 C-115.21033001 731.31447528 -137.96442122 690.57524758 -172.68359375 676.203125 C-177.67969381 674.52796204 -182.10517258 673.88136991 -187.37109375 673.828125 C-188.65371094 673.79976562 -189.93632812 673.77140625 -191.2578125 673.7421875 C-194.67248579 673.94094276 -194.67248579 673.94094276 -197.0078125 675.7890625 C-199.13164391 678.84856789 -199.91261011 681.58907334 -200.80859375 685.203125 C-201.12054688 686.42 -201.4325 687.636875 -201.75390625 688.890625 C-203.89073667 698.40839994 -205.04977025 707.62993604 -204.99609375 717.390625 C-204.98763428 719.02463257 -204.98763428 719.02463257 -204.97900391 720.69165039 C-204.47353493 754.60061157 -189.0541307 784.41325591 -166.68359375 809.203125 C-165.96816406 810.00234375 -165.25273437 810.8015625 -164.515625 811.625 C-113.583493 865.5194136 -22.22202737 888.85756348 48.98095703 891.13061523 C72.88820873 891.60278266 96.83681906 889.73160292 120.31640625 885.203125 C122.07090088 884.86933838 122.07090088 884.86933838 123.86083984 884.52880859 C183.92026773 872.7937899 245.14328599 846.79915489 291.31640625 806.203125 C292.38375 805.30207031 292.38375 805.30207031 293.47265625 804.3828125 C323.48001713 778.92574815 345.78644958 742.39581734 350.10546875 702.81298828 C352.05037101 678.74932491 350.36919314 655.48382928 334.796875 635.89453125 C323.24491708 623.36020211 307.84063475 618.10406399 291.23828125 617.07421875 C272.39484471 616.55078996 254.54001844 622.5644834 240.56640625 635.265625 C230.47124432 645.88638782 226.73287981 659.46372359 227.00390625 673.828125 C227.86738515 683.15369716 230.83869836 691.38035761 237.31640625 698.203125 C238.06857422 698.99783203 238.06857422 698.99783203 238.8359375 699.80859375 C248.49308302 708.94881177 259.69195228 711.62240944 272.5703125 711.42578125 C279.09925741 711.03772092 284.27752063 709.43578892 289.31640625 705.203125 C289.97640625 705.203125 290.63640625 705.203125 291.31640625 705.203125 C297.67140133 693.20659424 297.67140133 693.20659424 297.23828125 680.04296875 C295.82466414 677.22172443 293.9885213 676.0628666 291.1640625 674.76953125 C288.02787584 673.80812096 286.43441758 674.10265041 283.31640625 675.203125 C280.68139541 676.6651843 278.12520861 678.20548785 275.5859375 679.828125 C270.70211409 682.78699908 265.86434365 682.67915707 260.31640625 682.203125 C254.94852727 680.31442684 251.85649041 677.28329331 249.31640625 672.203125 C248.60061654 664.57585764 248.969524 658.60069589 253.31640625 652.203125 C253.97640625 651.1925 254.63640625 650.181875 255.31640625 649.140625 C262.44452554 641.13788984 273.85607154 636.80460842 284.3203125 635.9609375 C298.20175005 635.64182399 309.9147314 639.31853158 320.62890625 648.390625 C330.86041671 658.22798417 336.29766949 670.10266128 336.73583984 684.28100586 C336.88396868 704.65272463 329.56057707 721.99384867 315.71484375 736.8515625 C303.44542025 748.8811927 286.96761527 754.13754226 270.06640625 754.453125 C247.4129968 754.06373374 223.4558881 747.80872326 206.31640625 732.203125 C205.57132813 731.53796875 204.82625 730.8728125 204.05859375 730.1875 C193.78781015 720.50859206 187.94141738 709.29768775 183.31640625 696.203125 C182.98640625 695.28273438 182.65640625 694.36234375 182.31640625 693.4140625 C175.11846046 671.61259209 179.72559427 645.87831435 188.7265625 625.33203125 C196.56385877 609.90777003 207.64961508 597.44488375 222.31640625 588.203125 C223.01121094 587.71714844 223.70601562 587.23117187 224.421875 586.73046875 C249.71753187 569.94131596 283.8479257 566.43689118 313.25390625 571.328125 C315.62436323 571.88817802 317.98028406 572.51373482 320.31640625 573.203125 C320.9909082 573.40180176 321.66541016 573.60047852 322.36035156 573.80517578 C350.24117667 582.25295189 375.4380102 600.59188083 389.54736328 626.45996094 C411.64577592 669.02308524 408.54404354 717.361485 394.53515625 761.98828125 C376.42408317 817.38991669 339.95070123 869.60358303 295.31640625 907.203125 C294.39859375 907.99847656 293.48078125 908.79382813 292.53515625 909.61328125 C278.84596121 921.43024565 264.39689024 932.22963418 249.31640625 942.203125 C248.26259766 942.90405273 248.26259766 942.90405273 247.1875 943.61914062 C187.09776167 983.33856516 117.65015519 1005.10063052 46.31640625 1012.203125 C45.48512207 1012.2944873 44.65383789 1012.38584961 43.79736328 1012.47998047 C-12.79855806 1018.32347398 -75.37737106 1013.72154377 -129.68359375 996.203125 C-131.28920166 995.68661377 -131.28920166 995.68661377 -132.92724609 995.15966797 C-147.86131896 990.29257458 -162.41644389 984.7717591 -176.68359375 978.203125 C-177.78574219 977.69652344 -178.88789063 977.18992187 -180.0234375 976.66796875 C-219.92807867 958.17983817 -256.91291034 934.62881089 -289.68359375 905.203125 C-290.58078125 904.40519531 -291.47796875 903.60726562 -292.40234375 902.78515625 C-294.02443011 901.33503157 -295.6405304 899.87817771 -297.25 898.4140625 C-298.95490679 896.86514237 -300.67216958 895.32976448 -302.3984375 893.8046875 C-335.24221835 864.44366999 -362.78615959 827.30552425 -384.68359375 789.203125 C-385.13460449 788.42146973 -385.58561523 787.63981445 -386.05029297 786.83447266 C-439.39343387 693.67816462 -447.13126881 581.96769032 -422.87109375 466.890625 C-421.85452803 463.31334725 -420.78126752 459.75627379 -419.68359375 456.203125 C-419.40177246 455.27822266 -419.11995117 454.35332031 -418.82958984 453.40039062 C-403.89354374 404.93865295 -380.03633831 358.11183831 -348.68359375 318.203125 C-347.8052028 317.05919747 -346.92764818 315.91462742 -346.05078125 314.76953125 C-341.00746296 308.22197231 -335.80708329 301.94590171 -330.16796875 295.8984375 C-328.25986235 293.82832207 -326.42062265 291.73420255 -324.58984375 289.59765625 C-320.24612308 284.61769863 -315.60408944 279.93755597 -310.93310547 275.26733398 C-309.44466138 273.77670885 -307.96442098 272.27825483 -306.484375 270.77929688 C-300.97968247 265.24252066 -295.32715626 260.11127475 -289.21362305 255.23681641 C-286.94608379 253.41412008 -284.76264065 251.53558395 -282.59375 249.59765625 C-278.28044197 245.78857228 -273.73294999 242.32844824 -269.12109375 238.890625 C-268.24195313 238.23473389 -267.3628125 237.57884277 -266.45703125 236.90307617 C-259.03018676 231.39848174 -251.50480096 226.13094879 -243.68359375 221.203125 C-242.61915039 220.52999268 -242.61915039 220.52999268 -241.53320312 219.84326172 C-227.0455821 210.75268438 -211.96052951 202.87485924 -196.68359375 195.203125 C-195.95366211 194.83348633 -195.22373047 194.46384766 -194.47167969 194.08300781 C-158.27581748 175.88046439 -115.77337249 161.9292624 -75.54907227 156.80371094 C-68.92477675 155.91766194 -64.70156826 154.70514728 -59.74609375 150.203125 C-58.57672217 149.20952191 -57.40611703 148.21736905 -56.234375 147.2265625 C-55.65252441 146.72350586 -55.07067383 146.22044922 -54.47119141 145.70214844 C-52.68531043 144.20456456 -50.8550883 142.80875809 -48.9765625 141.4296875 C-48.38157959 140.99140625 -47.78659668 140.553125 -47.17358398 140.1015625 C-45.52719914 138.89663149 -43.87889106 137.69432962 -42.23046875 136.4921875 C-38.3392493 132.9948645 -37.51871904 129.13107172 -36.74195862 124.07983398 C-36.58367584 123.07048798 -36.42539307 122.06114197 -36.26231384 121.02120972 C-36.0965535 119.9249527 -35.93079315 118.82869568 -35.76000977 117.69921875 C-35.48882324 115.95452805 -35.48882324 115.95452805 -35.2121582 114.17459106 C-34.7184847 110.99342485 -34.22992923 107.81151785 -33.74294782 104.62932205 C-33.23070891 101.29425812 -32.71002236 97.96051685 -32.18968201 94.62670898 C-30.42002842 83.27810789 -28.66500807 71.92726069 -26.91772461 60.57519531 C-25.95181041 54.30027119 -24.97809651 48.02660527 -23.99614471 41.75417042 C-23.47738819 38.43784709 -22.9629087 35.12097927 -22.45837593 31.80245972 C-21.89421246 28.1023902 -21.31687537 24.40459865 -20.73657227 20.70703125 C-20.57283615 19.61077423 -20.40910004 18.51451721 -20.24040222 17.38504028 C-20.07929962 16.37569427 -19.91819702 15.36634827 -19.75221252 14.32641602 C-19.55008825 13.01568871 -19.55008825 13.01568871 -19.34388065 11.67848206 C-18.09485931 6.9960118 -15.82387663 3.71238735 -11.68359375 1.203125 C-7.87894972 -0.10171071 -3.97579687 0.02432575 0 0 Z M-8.68359375 9.203125 C-10.35571318 12.20109176 -11.10185668 14.80671183 -11.61849976 18.19270325 C-11.77533737 19.19778427 -11.93217499 20.2028653 -12.09376526 21.23840332 C-12.25795456 22.33511353 -12.42214386 23.43182373 -12.59130859 24.56176758 C-12.86008568 26.30142036 -12.86008568 26.30142036 -13.1342926 28.07621765 C-13.62434371 31.25338562 -14.10863575 34.43137578 -14.59130812 37.60967088 C-15.09947093 40.94127762 -15.61747418 44.27134857 -16.13516235 47.60148621 C-17.8960716 58.9404988 -19.64189131 70.2818006 -21.37402344 81.62524414 C-22.33119233 87.89288547 -23.29860423 94.15886146 -24.27695429 100.42323226 C-24.79365283 103.73496284 -25.30315671 107.04743505 -25.80308151 110.36176491 C-26.36151341 114.06206964 -26.93735498 117.75928068 -27.51708984 121.45629883 C-27.67723068 122.54693634 -27.83737152 123.63757385 -28.00236511 124.76126099 C-29.20573891 132.26796096 -30.96433621 138.5656631 -37.22265625 143.44921875 C-37.88104492 143.97273926 -38.53943359 144.49625977 -39.21777344 145.03564453 C-39.90774414 145.56528809 -40.59771484 146.09493164 -41.30859375 146.640625 C-42.01918945 147.20120605 -42.72978516 147.76178711 -43.46191406 148.33935547 C-44.8781535 149.45569673 -46.2979967 150.56748366 -47.72167969 151.67431641 C-50.31653192 153.69633789 -52.87416678 155.76148322 -55.43359375 157.828125 C-56.84572268 158.95881565 -58.26188985 160.08449751 -59.68359375 161.203125 C-60.28679443 161.71705811 -60.88999512 162.23099121 -61.51147461 162.76049805 C-64.00587506 164.41717021 -65.48841846 164.65992575 -68.453125 164.87109375 C-69.40848145 164.95520508 -70.36383789 165.03931641 -71.34814453 165.12597656 C-72.90637939 165.25697754 -72.90637939 165.25697754 -74.49609375 165.390625 C-90.01968584 166.97891527 -104.72455699 170.9454297 -119.68359375 175.203125 C-120.77575195 175.51330566 -121.86791016 175.82348633 -122.99316406 176.14306641 C-198.48491543 197.83596193 -277.46820802 241.61241286 -326.63671875 304.59765625 C-328.52540944 307.00177207 -330.49365795 309.31494856 -332.50024414 311.62084961 C-344.52260856 325.49742018 -355.05125429 340.59069275 -364.68359375 356.203125 C-365.09528809 356.86957031 -365.50698242 357.53601563 -365.93115234 358.22265625 C-388.63107884 395.26174424 -406.78742245 435.92786534 -417.05859375 478.203125 C-417.28506592 479.1317334 -417.51153809 480.0603418 -417.74487305 481.01708984 C-421.23472041 496.11746661 -423.08762364 511.49395703 -424.56396484 526.90234375 C-424.80990434 529.46679069 -425.06445241 532.03027562 -425.3203125 534.59375 C-427.0328988 551.92026204 -427.89178836 569.04382637 -427.87109375 586.453125 C-427.87015717 587.47190735 -427.86922058 588.4906897 -427.86825562 589.54034424 C-427.74403336 651.99048354 -414.89863745 713.82685531 -385.62939453 769.40136719 C-384.69331884 771.18459862 -383.77885397 772.97762658 -382.8671875 774.7734375 C-373.71926384 792.59074086 -362.64571514 809.1730768 -350.68359375 825.203125 C-349.62724665 826.63254836 -348.57125392 828.06223368 -347.515625 829.4921875 C-341.77600633 837.23769366 -335.89529986 844.82785499 -329.68359375 852.203125 C-329.23769394 852.73274841 -328.79179413 853.26237183 -328.3323822 853.80804443 C-320.56158595 863.00019883 -312.45682535 871.74915842 -303.91699219 880.23046875 C-302.0451275 882.09151341 -300.18433648 883.96315928 -298.32421875 885.8359375 C-291.41396609 892.7537695 -284.35906449 899.1354634 -276.68359375 905.203125 C-275.58143334 906.13751277 -274.48511919 907.07890501 -273.3984375 908.03125 C-230.3103429 945.60455331 -173.64080633 976.96333772 -118.0769043 990.59350586 C-116.18653898 991.07501582 -114.30411754 991.58770812 -112.42504883 992.11157227 C-103.05994458 994.70632113 -93.70183539 996.65568049 -84.12109375 998.265625 C-83.37323608 998.39319183 -82.62537842 998.52075867 -81.8548584 998.65219116 C-66.52613179 1001.25134836 -51.18488144 1002.98821353 -35.68359375 1004.203125 C-34.58966309 1004.2959375 -33.49573242 1004.38875 -32.36865234 1004.484375 C2.97393706 1007.21406709 38.34727246 1005.75656449 73.31640625 1000.203125 C75.12818359 999.923479 75.12818359 999.923479 76.9765625 999.63818359 C83.45175057 998.62619656 89.88823124 997.47820935 96.31640625 996.203125 C97.58581055 995.95780029 97.58581055 995.95780029 98.88085938 995.70751953 C107.75670282 993.98315647 116.472519 992.0781224 125.07617188 989.25732422 C128.1826975 988.24662669 131.29992009 987.28491235 134.42578125 986.3359375 C152.66031209 980.73446341 170.41341725 974.27498598 187.77392578 966.36132812 C190.08269573 965.30958964 192.39917592 964.27761227 194.71875 963.25 C215.85646311 953.75150215 235.27581961 941.3219808 254.31640625 928.203125 C255.02120117 927.72246582 255.72599609 927.24180664 256.45214844 926.74658203 C275.43323161 913.77993934 292.24723092 898.31161471 308.53070068 882.16305542 C309.53632591 881.16612315 310.54331537 880.1705647 311.55181885 879.17654419 C318.27858366 872.5350514 324.43374131 865.60419808 330.31640625 858.203125 C331.77154809 856.45047034 333.22952133 854.70015922 334.69140625 852.953125 C363.98516504 816.95784774 385.12489548 773.74227593 394.31640625 728.203125 C394.50404541 727.34340088 394.69168457 726.48367676 394.88500977 725.59790039 C396.58226075 716.95714538 396.58786055 708.43487823 396.5222168 699.66674805 C396.50391376 697.14166141 396.50170823 694.61694317 396.50195312 692.09179688 C396.43770226 659.23172272 386.84338488 631.38651189 364.00390625 607.453125 C351.1181678 595.01856787 334.61593899 585.85982627 317.31640625 581.203125 C316.27355469 580.90535156 315.23070312 580.60757813 314.15625 580.30078125 C285.60859972 573.31674505 254.44409908 579.26796325 229.1953125 593.75 C208.39680014 606.44271655 195.36987906 625.85624764 189.57421875 649.19140625 C186.70068668 664.05110975 185.99323238 682.24609137 192.31640625 696.203125 C192.60080566 696.84185547 192.88520508 697.48058594 193.17822266 698.13867188 C196.97345428 706.54620527 201.09809828 714.30985058 207.31640625 721.203125 C207.82300781 721.80125 208.32960938 722.399375 208.8515625 723.015625 C221.92926089 737.41073281 243.76923387 744.58899323 262.66015625 745.51953125 C280.94749229 746.07321629 297.30996628 742.56053029 311.11328125 729.67578125 C323.02082475 716.31146381 328.83290833 700.1969118 328.5859375 682.34765625 C327.64095338 671.32284155 322.29924772 661.97797402 314.40625 654.359375 C312.44960572 652.78441698 310.47723916 651.4824629 308.31640625 650.203125 C307.54039062 649.7184375 306.764375 649.23375 305.96484375 648.734375 C296.79308357 643.74671085 285.24262921 643.45441961 275.25390625 646.328125 C268.42829876 649.14022247 262.31604838 654.02185989 258.31640625 660.203125 C257.40731895 663.26728397 257.01938469 666.01468946 257.31640625 669.203125 C259.32938074 672.55808248 260.77826513 673.06305195 264.54296875 674.04296875 C269.14253846 674.23818858 271.53204667 672.74716515 275.19140625 670.265625 C279.89730429 667.33855018 283.68754662 665.13847751 289.359375 665.73828125 C295.96103326 667.3063398 301.13274917 670.1911842 305.12890625 675.703125 C308.24285924 684.88109171 306.42028563 693.66192604 302.31640625 702.203125 C297.74914177 711.25201776 290.76605847 715.87937718 281.31640625 719.203125 C277.40744307 719.61167048 273.49466347 719.52754326 269.56640625 719.515625 C268.5196875 719.53173828 267.47296875 719.54785156 266.39453125 719.56445312 C252.35565558 719.57322742 241.75004534 714.11345103 231.609375 704.5859375 C228.22368435 701.06758776 225.62102049 697.50267094 223.31640625 693.203125 C222.90390625 692.46449219 222.49140625 691.72585938 222.06640625 690.96484375 C216.32990096 678.47599369 217.99756388 661.29539314 221.9765625 648.48046875 C224.11357402 643.25320149 226.92870786 638.70519786 230.31640625 634.203125 C231.24839844 632.95015625 231.24839844 632.95015625 232.19921875 631.671875 C242.30836363 619.88408983 259.50384454 611.48422161 274.75390625 609.515625 C296.7719885 607.84336559 316.94690765 609.94583868 334.86328125 624 C346.85177611 634.76673742 354.44809654 649.42742158 357.31640625 665.203125 C357.5647522 666.38684692 357.5647522 666.38684692 357.81811523 667.59448242 C359.18703617 674.40987046 359.66733572 680.94619354 359.62890625 687.890625 C359.6247168 688.93863281 359.62052734 689.98664062 359.61621094 691.06640625 C359.49027936 699.79051755 358.38956986 707.73251659 356.31640625 716.203125 C356.02160244 717.52563395 355.72866782 718.84856079 355.4375 720.171875 C350.23328322 743.12444797 339.9520218 764.75001972 325.31640625 783.203125 C324.91019043 783.72213379 324.50397461 784.24114258 324.08544922 784.77587891 C312.31605816 799.67390086 298.62436039 812.99543605 283.31640625 824.203125 C282.22360511 825.02557254 281.13115659 825.84848882 280.0390625 826.671875 C262.11600864 840.00597264 242.23115282 850.21760951 222.31640625 860.203125 C221.18162842 860.77353516 221.18162842 860.77353516 220.02392578 861.35546875 C209.31795099 866.68571164 198.1603902 870.91314644 186.99755859 875.17480469 C184.66695571 876.06867642 182.3439131 876.97869951 180.0234375 877.8984375 C162.17884788 884.90369307 143.81915815 889.14175831 125.01464844 892.68017578 C121.68221043 893.32603917 118.37792621 894.08322599 115.06640625 894.828125 C25.10606158 912.22377176 -71.45936298 887.36139302 -146.70410156 836.84667969 C-154.54864836 831.51748224 -161.82935313 825.7771241 -168.68359375 819.203125 C-169.42996094 818.50832031 -170.17632812 817.81351563 -170.9453125 817.09765625 C-194.68527152 794.35204106 -212.64816976 759.37810966 -213.68359375 726.203125 C-213.71469238 725.48882324 -213.74579102 724.77452148 -213.77783203 724.03857422 C-214.44405899 707.35611729 -214.30711933 683.81669494 -203.24609375 670.203125 C-198.11809433 666.20078399 -194.54660526 664.69278385 -187.99609375 664.828125 C-187.28275879 664.83900146 -186.56942383 664.84987793 -185.83447266 664.86108398 C-170.07357495 665.33430378 -156.02765956 673.717276 -144.68359375 684.203125 C-144.14234863 684.70199219 -143.60110352 685.20085938 -143.04345703 685.71484375 C-118.88589543 708.23010004 -102.24367271 738.09586581 -89.49609375 768.265625 C-80.67962849 788.97049465 -66.73012588 805.91880811 -45.671875 815.078125 C-41.41905164 816.74917544 -37.10085435 818.02826707 -32.68359375 819.203125 C-31.87277344 819.44675781 -31.06195313 819.69039062 -30.2265625 819.94140625 C-15.342193 823.77328421 3.6343011 822.42188457 17.25390625 815.390625 C26.97627251 809.5657712 32.6043699 803.04358512 36.31640625 792.203125 C37.52400533 781.11516984 35.13769404 771.06671452 28.31640625 762.203125 C25.43171282 758.99791008 23.21983484 757.89889124 19.00390625 757.515625 C14.11359181 757.7492644 11.87536041 759.80046746 8.47265625 763.12890625 C1.69393409 769.64974224 -5.7769217 774.26192919 -14.68359375 777.203125 C-15.67359375 777.533125 -16.66359375 777.863125 -17.68359375 778.203125 C-25.0217341 779.25357454 -30.52401186 777.15014949 -36.68359375 773.203125 C-37.50730469 772.37748047 -37.50730469 772.37748047 -38.34765625 771.53515625 C-39.60521739 769.96776809 -39.60521739 769.96776809 -41.68359375 770.203125 C-49.36129794 755.15897489 -49.36129794 755.15897489 -47.05859375 746.984375 C-44.75923203 740.8253704 -41.3965582 737.37157798 -35.68359375 734.203125 C-33.11066011 733.10209484 -30.51297861 732.10804699 -27.89453125 731.12109375 C-25.00990304 729.92341243 -23.35818964 728.86725483 -21.68359375 726.203125 C-20.98600659 721.94009237 -21.22025188 719.95405838 -23.49609375 716.265625 C-28.23060922 713.20211499 -32.19937262 713.30262032 -37.68359375 714.203125 C-47.26817399 717.31704228 -55.11361535 723.93210393 -60.05859375 732.640625 C-62.16988976 736.82239086 -63.7905267 741.01143473 -65.04296875 745.5234375 C-65.68359375 747.203125 -65.68359375 747.203125 -67.68359375 748.203125 C-73.46910907 748.76301358 -73.46910907 748.76301358 -75.68359375 748.203125 C-79.78307728 744.20021352 -80.35275287 740.56067634 -80.58984375 735.0625 C-80.63969925 734.27151413 -80.68955475 733.48052826 -80.74092102 732.66557312 C-80.84706974 730.97311313 -80.94579698 729.28017412 -81.03775024 727.58688354 C-81.28345285 723.14978958 -81.59835916 718.71773896 -81.9140625 714.28515625 C-82.00671638 712.97098473 -82.00671638 712.97098473 -82.10124207 711.63026428 C-84.17392156 683.24048673 -90.31972104 641.77296178 -112.68359375 621.203125 C-116.01907567 619.04230482 -119.51981274 617.25600792 -123.05859375 615.453125 C-132.36274913 610.53683272 -141.11633316 605.30069814 -149.68359375 599.203125 C-150.43769531 598.67460938 -151.19179688 598.14609375 -151.96875 597.6015625 C-168.61241329 585.90023903 -185.53853135 573.20490567 -191.2734375 552.58203125 C-193.35152725 540.52911069 -190.47633658 531.09794721 -185.68359375 520.203125 C-185.23790039 519.16704102 -184.79220703 518.13095703 -184.33300781 517.06347656 C-153.75847134 446.12492349 -153.75847134 446.12492349 -131.68359375 432.328125 C-124.40500893 429.65768225 -115.71129901 429.7276635 -108.59765625 432.7734375 C-105.18568736 434.4091093 -101.92139371 436.24747387 -98.68359375 438.203125 C-99.1798227 442.55304687 -102.02407993 445.25648349 -104.74609375 448.453125 C-122.34026839 469.84585886 -161.39045121 517.87883587 -158.68359375 547.203125 C-146.18138023 572.67306 -117.74933963 588.57776587 -92.30859375 598.390625 C-63.17029927 608.33246447 -35.10748312 611.72824725 -4.43554688 611.09228516 C-3.12858856 611.0731456 -3.12858856 611.0731456 -1.79522705 611.05361938 C-0.1507278 611.02895724 1.49364903 610.99174893 3.13751221 610.93978882 C7.74650473 610.87893472 10.66069535 611.32710903 14.31640625 614.203125 C16.79045071 617.52153308 18.07125387 621.0787094 19.40771484 624.97851562 C22.48867839 634.86307817 22.48867839 634.86307817 29.31640625 642.203125 C32.20376083 643.04598196 34.43416305 643.06898407 37.31640625 642.203125 C40.86981131 639.3301592 43.08768768 637.14151492 43.62890625 632.5546875 C43.22031973 628.17259705 41.46946725 625.34575376 39.31640625 621.578125 C35.73288446 614.83783921 33.37998872 608.9369877 35.31640625 601.203125 C37.57536146 596.41587762 41.18001139 593.9809278 45.87890625 591.765625 C54.69663884 588.70262315 63.70456945 589.10616528 72.1640625 593 C77.27479013 595.85681327 80.72899711 599.59074182 84.31640625 604.203125 C88.74332311 606.41658343 94.34763967 605.75863955 98.98828125 604.44921875 C105.73673314 601.84186234 112.63908273 598.70915893 116.31640625 592.203125 C117.53402073 585.71676748 116.27394132 580.79145841 112.7734375 575.28515625 C112.29261719 574.59808594 111.81179688 573.91101563 111.31640625 573.203125 C110.92839844 572.60886719 110.54039062 572.01460937 110.140625 571.40234375 C107.00215543 567.17561229 102.93212523 564.37339946 98.56640625 561.515625 C97.72638062 560.96261719 97.72638062 560.96261719 96.86938477 560.3984375 C87.73717494 554.66964005 79.53952569 552.46966269 68.75390625 552.578125 C67.61147461 552.58650391 66.46904297 552.59488281 65.29199219 552.60351562 C55.3575793 552.86679017 47.18023728 554.78987018 38.31640625 559.203125 C37.70410156 559.50283203 37.09179688 559.80253906 36.4609375 560.11132812 C26.01260327 565.35777314 16.97254165 572.42887618 8.06640625 579.94140625 C1.40395787 585.42089149 -8.81605682 583.44398126 -17.078125 583.03515625 C-34.77428625 581.18044145 -52.25231883 573.78764055 -67.68359375 565.203125 C-68.74578125 564.62820313 -69.80796875 564.05328125 -70.90234375 563.4609375 C-90.07775375 552.73654582 -90.07775375 552.73654582 -92.50488281 547.39599609 C-92.76468168 544.2081362 -91.53826896 542.68929405 -89.84375 540.00390625 C-89.20107178 538.97241455 -88.55839355 537.94092285 -87.89624023 536.87817383 C-87.18669189 535.76853271 -86.47714355 534.6588916 -85.74609375 533.515625 C-85.01212008 532.34916885 -84.27914302 531.18208505 -83.54711914 530.0144043 C-81.64648068 526.99043947 -79.73014184 523.97678572 -77.80822754 520.96630859 C-76.06035288 518.22601753 -74.32226061 515.47952555 -72.58203125 512.734375 C-61.79832684 495.77456101 -50.85768525 478.90852751 -39.68359375 462.203125 C-33.94141096 464.07741364 -28.26190699 466.06314147 -22.62109375 468.22265625 C-21.4766404 468.65835686 -21.4766404 468.65835686 -20.30906677 469.1028595 C-17.76644531 470.07170587 -15.22497783 471.04353787 -12.68359375 472.015625 C-10.83863249 472.71991407 -8.9936615 473.42417764 -7.14868164 474.12841797 C14.27417047 482.3127411 35.66382089 490.58350675 57.05432129 498.85191345 C65.41054343 502.08156898 73.76859047 505.30646046 82.1278286 508.52830124 C86.019353 510.02826079 89.91068526 511.52871876 93.80204105 513.02911568 C96.89585978 514.22194669 99.98983088 515.41437882 103.08401489 516.60626221 C105.40979025 517.50221346 107.73529478 518.39886814 110.0605011 519.29629517 C112.24697742 520.13890105 114.43468032 520.97833221 116.623703 521.81430054 C121.02615086 523.50245772 125.39880348 525.20130232 129.69042969 527.15625 C144.09785083 533.66681181 156.80282878 531.61603312 171.81640625 528.203125 C173.27252959 527.88552114 174.72908749 527.56990424 176.18603516 527.25610352 C178.49013703 526.75980178 180.79395425 526.26248852 183.09658813 525.75941467 C191.41776889 523.9445323 199.77051526 522.29587518 208.12594604 520.64736938 C221.50915628 518.00384109 234.87400594 515.29521014 248.19873047 512.36889648 C266.73370463 508.3188654 285.38313818 504.79134738 304.00292969 501.15722656 C330.88230774 495.92445251 330.88230774 495.92445251 357.67504883 490.26977539 C366.86060354 488.26308498 376.08378662 486.47721783 385.31640625 484.703125 C396.73335628 482.50723755 408.13238763 480.24923438 419.50390625 477.828125 C421.28571289 477.45204102 421.28571289 477.45204102 423.10351562 477.06835938 C424.17794922 476.83697266 425.25238281 476.60558594 426.359375 476.3671875 C427.2980542 476.16561035 428.2367334 475.9640332 429.20385742 475.75634766 C431.28705821 475.40077563 431.28705821 475.40077563 432.31640625 474.203125 C432.48307292 470.703125 432.48307292 470.703125 432.31640625 467.203125 C430.62476284 465.51148159 428.42743827 465.88688282 426.10327148 465.72583008 C424.97130844 465.64491623 423.8393454 465.56400238 422.67308044 465.4806366 C421.4197139 465.39550308 420.16634735 465.31036957 418.875 465.22265625 C416.86320666 465.07972397 414.85141399 464.93678199 412.83964634 464.7934885 C410.66256903 464.63908184 408.48535681 464.48670977 406.30810547 464.33477783 C398.48564734 463.78799219 390.66460825 463.22149702 382.84375 462.65234375 C381.62703424 462.56391205 381.62703424 462.56391205 380.38573837 462.47369385 C363.90863992 461.2730999 347.44678616 459.91422708 330.98573303 458.51278687 C298.76681327 455.77018217 266.53173325 453.27423129 234.28635216 450.86333084 C199.3210065 448.24863473 199.3210065 448.24863473 181.98172951 446.8087368 C180.49629149 446.68599015 179.01069803 446.56510663 177.52493858 446.44631386 C156.25638646 444.73894267 156.25638646 444.73894267 151.31640625 440.828125 C148.41937125 437.02576656 146.92558224 434.60175476 147.50390625 429.765625 C148.04828549 425.95497034 148.82101019 423.23324878 151.31640625 420.203125 C161.23914096 413.42449592 176.24091982 414.40986946 187.921875 413.46875 C189.85901398 413.3089752 191.79611643 413.14875704 193.73318481 412.98812866 C198.9166888 412.55950937 204.10067182 412.13696787 209.28476334 411.71552277 C214.68193723 411.27559002 220.07861303 410.82963131 225.4753418 410.38427734 C237.40279003 409.40107793 249.3308606 408.42558771 261.25914001 407.45252991 C265.14676187 407.13538645 269.03436569 406.8180223 272.92196751 406.50063324 C274.73928475 406.35226562 276.55660333 406.20391433 278.3739233 406.05558014 C282.68209619 405.70391058 286.99024878 405.35199579 291.2983551 404.99951172 C292.11688933 404.93254341 292.93542356 404.8655751 293.77876186 404.79657745 C295.3941079 404.664411 297.00945229 404.53222445 298.62479496 404.40001678 C303.20897086 404.02508806 307.79334999 403.65278179 312.37791157 403.2826004 C327.04390751 402.0972205 341.69509874 400.86226382 356.31640625 399.203125 C358.00359668 395.18048303 358.82762608 391.60637725 359.37890625 387.265625 C359.53488281 386.08097656 359.69085937 384.89632813 359.8515625 383.67578125 C360.80126378 375.09677894 361.39185703 366.54778058 361.28125 357.9140625 C361.09313832 335.80279301 361.09313832 335.80279301 366.87890625 329.203125 C368.68427136 327.52873232 370.49660265 325.86181391 372.31640625 324.203125 C392.32399658 296.27209474 400.37004317 263.47592117 394.99609375 229.5390625 C392.69133756 218.22721314 387.71215788 208.30742114 382.31640625 198.203125 C381.74792969 197.13707031 381.17945313 196.07101563 380.59375 194.97265625 C376.21081381 187.12896193 370.94214798 180.17679819 365.31640625 173.203125 C364.75824219 172.50058594 364.20007813 171.79804688 363.625 171.07421875 C348.57693786 152.74592508 325.0495116 139.36918563 302.19140625 133.953125 C300.66193359 133.57027344 300.66193359 133.57027344 299.1015625 133.1796875 C294.49674953 132.05656239 290.06198595 131.11473118 285.33203125 130.75390625 C281.55534461 130.39620432 279.75442322 129.57717583 277.19140625 126.640625 C276.53011719 125.90972656 275.86882813 125.17882812 275.1875 124.42578125 C274.05434461 123.07971566 272.92145512 121.73342609 271.7890625 120.38671875 C238.74999105 81.46282542 189.81928362 52.04455928 142.62231445 34.09277344 C140.19359425 33.15574258 137.78521448 32.17497518 135.375 31.19140625 C113.4253804 22.39247179 90.25515474 16.86280027 67.00390625 12.890625 C66.24824371 12.76138641 65.49258118 12.63214783 64.71401978 12.49899292 C52.61286556 10.44751712 40.91547997 9.04327046 28.62109375 9.10546875 C27.01090866 9.10759117 27.01090866 9.10759117 25.36819458 9.10975647 C21.97590215 9.11530575 18.58367837 9.12784853 15.19140625 9.140625 C12.87630304 9.14564656 10.56119879 9.15020832 8.24609375 9.15429688 C2.60284159 9.1652585 -3.04037117 9.18194527 -8.68359375 9.203125 Z " fill="#000203" transform="translate(437.68359375,0.796875)"/>
<path d="M0 0 C1.05880875 0.00181274 1.05880875 0.00181274 2.13900757 0.00366211 C34.32194408 0.15289943 62.18861037 12.66454196 85.76953125 34.578125 C109.20695995 58.5855627 122.11282763 88.29951712 121.7726593 121.62464905 C121.43408706 143.98075869 118.05537967 167.30826959 105.5 186.375 C104.92894531 187.24640625 104.35789062 188.1178125 103.76953125 189.015625 C86.86126579 213.41930711 62.65127073 233.29667019 33.5 240.375 C32.48228516 240.63466553 31.46457031 240.89433105 30.41601562 241.16186523 C20.20553289 243.51281632 10.27538962 243.86921856 -0.17919922 243.82104492 C-2.99650711 243.81251058 -5.81179569 243.84145174 -8.62890625 243.87304688 C-34.7043774 243.97345598 -58.44664901 233.8878973 -78.5 217.375 C-79.42425781 216.61574219 -80.34851563 215.85648438 -81.30078125 215.07421875 C-104.48642139 195.03684092 -119.93544331 163.93295715 -122.5 133.375 C-124.09881469 99.95605478 -115.83260056 68.00601847 -93.38891602 42.5222168 C-75.69064587 23.1253607 -52.46797307 7.86707706 -26.5 2.375 C-25.74170898 2.20274902 -24.98341797 2.03049805 -24.20214844 1.85302734 C-16.1534015 0.17608063 -8.19917895 -0.02598217 0 0 Z " fill="#FEFEFE" transform="translate(501.5,152.625)"/>
<path d="M0 0 C5.10835391 4.42005297 8.51293499 9.41502403 11.625 15.375 C12.27662109 16.58542969 12.27662109 16.58542969 12.94140625 17.8203125 C18.13535437 29.36644108 17.14582296 44.94184128 12.88671875 56.61328125 C10.91084852 60.93817367 8.61950477 64.684436 5.625 68.375 C5.12355469 69.00019531 4.62210937 69.62539063 4.10546875 70.26953125 C-2.37141812 77.50284286 -12.78628942 82.63500722 -22.45556641 83.57788086 C-24.70408337 83.67844469 -26.93682819 83.7041893 -29.1875 83.6875 C-29.98285156 83.68186035 -30.77820313 83.6762207 -31.59765625 83.67041016 C-45.65428105 83.38043485 -56.34565318 77.37642279 -66.0390625 67.30078125 C-75.49978456 55.45114776 -77.64342074 42.56995941 -76.1015625 27.74609375 C-74.00132507 16.67031335 -67.9775709 8.46018997 -59.375 1.375 C-41.2680938 -10.72173762 -18.17678136 -13.32415647 0 0 Z " fill="#5459C0" transform="translate(501.375,221.625)"/>
<path d="M0 0 C1.01416992 0.24145752 1.01416992 0.24145752 2.04882812 0.48779297 C26.4975638 6.42876725 46.53024702 19.05809154 64 37 C64.48339844 37.42667969 64.96679688 37.85335937 65.46484375 38.29296875 C79.92247069 51.52594964 89.72060179 71.71661165 96 90 C96.33128906 90.88300781 96.66257812 91.76601562 97.00390625 92.67578125 C100.07159093 102.91342698 100.3640154 113.02831079 100.3125 123.625 C100.31100952 124.38011871 100.30951904 125.13523743 100.3079834 125.91323853 C100.2689216 136.90228375 99.74916851 147.31142244 97 158 C96.7215625 159.24523437 96.443125 160.49046875 96.15625 161.7734375 C88.31841779 194.54368426 65.37553056 222.35687001 37 240 C17.23487014 251.82680407 -4.56038154 256.37692068 -27.37158203 256.26074219 C-29.86385593 256.25004782 -32.3554045 256.26067937 -34.84765625 256.2734375 C-47.28018475 256.2859294 -59.60904155 255.82402181 -71.375 251.375 C-72.43025879 250.9869519 -72.43025879 250.9869519 -73.50683594 250.59106445 C-90.76998111 244.04901803 -105.65459373 234.81582666 -119 222 C-119.89460938 221.16855469 -120.78921875 220.33710938 -121.7109375 219.48046875 C-144.4057276 197.77102668 -158.50359429 165.90698203 -159.203125 134.47265625 C-159.34483589 120.98559479 -159.25597351 108.1229889 -156 95 C-155.61714844 93.28490234 -155.61714844 93.28490234 -155.2265625 91.53515625 C-147.39153825 60.15911876 -125.79606373 34.23845345 -99 17 C-68.62651438 -1.04111857 -34.91307839 -8.7805869 0 0 Z M-122.9375 46.9375 C-144.44908306 71.15494257 -153.64942663 103.47259987 -152.1953125 135.42675781 C-149.79037129 167.1118583 -134.79932374 197.96279748 -111.41796875 219.36328125 C-93.01096669 234.96746015 -69.48461224 247.95936314 -44.9140625 248.2734375 C-44.02837082 248.28601089 -43.14267914 248.29858429 -42.23014832 248.3115387 C-17.26282219 248.59726222 5.46379284 247.95683221 28 236 C29.10214844 235.41605469 30.20429687 234.83210937 31.33984375 234.23046875 C40.511985 228.94953894 48.23722282 222.13644063 56 215 C56.78375 214.2884375 57.5675 213.576875 58.375 212.84375 C82.15235808 190.21690925 91.31331194 160.45624647 92.27734375 128.3671875 C92.3202588 125.72410627 92.3529163 123.08083736 92.375 120.4375 C92.38909912 119.21361572 92.40319824 117.98973145 92.41772461 116.72875977 C92.35206329 104.44676804 90.14964267 93.17215858 84.875 82.0625 C84.48248047 81.21695557 84.08996094 80.37141113 83.68554688 79.50024414 C77.84757605 67.17137155 71.01348303 56.27631779 62 46 C61.31550781 45.17113281 60.63101563 44.34226563 59.92578125 43.48828125 C42.05274634 22.44369117 14.19830594 8.49469629 -13 5 C-18.16695726 4.67836564 -23.32457083 4.60995846 -28.5 4.625 C-29.20454315 4.62554382 -29.9090863 4.62608765 -30.63497925 4.62664795 C-67.00579039 4.75548174 -97.86691476 21.07729003 -122.9375 46.9375 Z " fill="#050507" transform="translate(531,148)"/>
<path d="M0 0 C5.10835391 4.42005297 8.51293499 9.41502403 11.625 15.375 C12.27662109 16.58542969 12.27662109 16.58542969 12.94140625 17.8203125 C18.13535437 29.36644108 17.14582296 44.94184128 12.88671875 56.61328125 C10.91084852 60.93817367 8.61950477 64.684436 5.625 68.375 C5.12355469 69.00019531 4.62210937 69.62539063 4.10546875 70.26953125 C-2.37141812 77.50284286 -12.78628942 82.63500722 -22.45556641 83.57788086 C-24.70408337 83.67844469 -26.93682819 83.7041893 -29.1875 83.6875 C-29.98285156 83.68186035 -30.77820313 83.6762207 -31.59765625 83.67041016 C-45.65428105 83.38043485 -56.34565318 77.37642279 -66.0390625 67.30078125 C-75.49978456 55.45114776 -77.64342074 42.56995941 -76.1015625 27.74609375 C-74.00132507 16.67031335 -67.9775709 8.46018997 -59.375 1.375 C-41.2680938 -10.72173762 -18.17678136 -13.32415647 0 0 Z M-63.7109375 17.15234375 C-70.17651173 25.7882868 -69.37309177 37.0165195 -67.9765625 47.3125 C-65.50914101 57.31036371 -58.56866974 65.50370943 -50 70.9375 C-40.61615156 76.07627414 -31.50697774 78.02166216 -20.8671875 75.8671875 C-11.20571889 72.93844963 -2.27654526 67.70854296 3.09765625 58.984375 C8.94222542 47.8745817 10.74297413 36.35204884 7 24.125 C3.10925479 13.83553793 -2.65425021 6.57951684 -12.390625 1.27734375 C-31.40964993 -6.52626381 -51.36516609 2.42103483 -63.7109375 17.15234375 Z " fill="#050506" transform="translate(501.375,221.625)"/>
<path d="M0 0 C8.25959484 8.25959484 11.82299794 17.13550417 12.125 28.75 C11.83124006 39.60736747 8.86058355 47.45936216 1.75 55.75 C-1.52800068 58.76389636 -3.65719264 59.75 -8.25 59.75 C-8.45826416 58.79440186 -8.66652832 57.83880371 -8.88110352 56.85424805 C-11.29831514 46.25860855 -14.91492346 36.53483962 -19.1875 26.5625 C-20.40853502 23.67468602 -21.62403427 20.78454854 -22.83984375 17.89453125 C-23.13160492 17.20271759 -23.42336609 16.51090393 -23.72396851 15.79812622 C-31.25 -2.09454456 -31.25 -2.09454456 -31.25 -6.25 C-18.90273877 -9.03441011 -10.23632111 -7.08668385 0 0 Z " fill="#FCFCFC" transform="translate(796.25,194.25)"/>
<path d="M0 0 C11.35279796 6.43325218 18.53068879 16.52273453 22.3671875 28.87890625 C25.20542128 42.7225363 22.29507516 55.18904341 14.9921875 67.00390625 C9.66138955 73.50767048 4.52244847 77.65277578 -3.5703125 80.06640625 C-7.0078125 80.00390625 -7.0078125 80.00390625 -9.6953125 78.00390625 C-12.08036508 74.6627207 -12.83200902 71.1525732 -13.78515625 67.1953125 C-15.82272983 59.14845364 -18.72459272 51.60441215 -21.8828125 43.94140625 C-22.39270932 42.68325945 -22.90182469 41.42479566 -23.41015625 40.16601562 C-25.44522304 35.14624383 -27.50723879 30.1400949 -29.66381836 25.17114258 C-29.93416901 24.54756363 -30.20451965 23.92398468 -30.48306274 23.2815094 C-31.22915648 21.56771831 -31.98119616 19.85651925 -32.73364258 18.14550781 C-34.60406797 13.53377492 -35.82145487 8.82615129 -37.0078125 4.00390625 C-37.3378125 3.01390625 -37.6678125 2.02390625 -38.0078125 1.00390625 C-25.06827673 -5.01448248 -12.98145931 -6.44021814 0 0 Z M-28.0078125 5.00390625 C-27.32279444 9.03873787 -26.13152354 12.67401015 -24.6953125 16.50390625 C-24.32140381 17.50260742 -24.32140381 17.50260742 -23.93994141 18.52148438 C-22.0921406 23.37395151 -20.10965712 28.16140259 -18.08203125 32.94140625 C-7.32377546 58.32600558 -7.32377546 58.32600558 -5.0078125 71.00390625 C0.45165547 70.29147568 2.37734952 69.25134087 5.9921875 65.00390625 C6.75402344 64.13378906 6.75402344 64.13378906 7.53125 63.24609375 C14.96721688 54.1983902 15.91603382 44.44640281 14.9921875 33.00390625 C13.66496155 23.90850487 8.68634878 15.91700908 1.64453125 10.046875 C-4.29963653 5.96832248 -9.19560585 3.72244098 -16.5078125 3.81640625 C-17.61125 3.82285156 -18.7146875 3.82929688 -19.8515625 3.8359375 C-22.68007333 3.98646469 -25.25473805 4.36186463 -28.0078125 5.00390625 Z " fill="#060608" transform="translate(793.0078125,182.99609375)"/>
</svg>
