<?xml version="1.0" encoding="UTF-8"?>
<svg version="1.1" xmlns="http://www.w3.org/2000/svg" width="615" height="550">
<path d="M0 0 C1.27917801 -0.00058411 2.55835602 -0.00116821 3.876297 -0.00177002 C7.35309718 -0.00290872 10.82933536 0.02046164 14.30600595 0.04852581 C17.95079029 0.07368195 21.59559024 0.07589258 25.240448 0.08062744 C32.12864367 0.09301579 39.01658271 0.1257806 45.90466583 0.1660254 C53.75235412 0.21087285 61.60005525 0.23276262 69.44783998 0.25280714 C85.57851867 0.29451755 101.70884425 0.3678173 117.83935547 0.45410156 C117.83935547 11.01410156 117.83935547 21.57410156 117.83935547 32.45410156 C114.34631836 32.46344727 110.85328125 32.47279297 107.25439453 32.48242188 C95.72717324 32.51615426 84.20011235 32.57148054 72.67303848 32.6380043 C65.68257511 32.67781753 58.69222468 32.7101983 51.70166016 32.72509766 C44.95825213 32.73949108 38.21524458 32.77457575 31.47197723 32.82241058 C28.89634997 32.83727422 26.32067276 32.84514541 23.74500275 32.84598541 C20.14358487 32.84834175 16.54314467 32.87531565 12.94189453 32.90820312 C11.87158997 32.90317276 10.8012854 32.8981424 9.69854736 32.89295959 C4.07373915 32.87296529 4.07373915 32.87296529 -0.79205322 35.36322021 C-2.94338747 38.64994623 -3.28948134 40.48126038 -3.3059082 44.39111328 C-3.31228806 45.41913055 -3.31866791 46.44714783 -3.32524109 47.50631714 C-3.32635391 48.62088287 -3.32746674 49.73544861 -3.32861328 50.88378906 C-3.33194168 52.02566681 -3.33527008 53.16754456 -3.33869934 54.34402466 C-3.34376962 56.76336259 -3.34610764 59.18270754 -3.34594727 61.60205078 C-3.34813136 65.30675784 -3.36627969 69.01116608 -3.38525391 72.71582031 C-3.38818825 75.06347554 -3.39017277 77.41113219 -3.39111328 79.75878906 C-3.3982988 80.86930634 -3.40548431 81.97982361 -3.41288757 83.12399292 C-3.40827263 84.67547531 -3.40827263 84.67547531 -3.40356445 86.25830078 C-3.40498947 87.16716034 -3.40641449 88.0760199 -3.40788269 89.01242065 C-3.13951917 91.66273192 -2.61005076 93.22832944 -1.16064453 95.45410156 C2.44212972 97.85595106 5.02619943 97.73026681 9.18481445 97.69702148 C9.92985229 97.69891983 10.67489014 97.70081818 11.44250488 97.70277405 C13.9069265 97.70648059 16.37105375 97.69577819 18.83544922 97.68457031 C20.54793768 97.68337816 22.2604268 97.68292542 23.97291565 97.68318176 C27.5632842 97.68161703 31.15355302 97.67332902 34.74389648 97.65991211 C39.34516051 97.64293515 43.94631479 97.63909745 48.54760647 97.63985729 C52.08463081 97.63958526 55.62163118 97.63409849 59.15864754 97.62685585 C60.8551115 97.62367438 62.55157818 97.62170299 64.24804497 97.62096214 C66.62024426 97.61879234 68.99232761 97.61003384 71.36450195 97.59936523 C72.06541458 97.59981842 72.76632721 97.60027161 73.48847961 97.60073853 C78.26752863 97.63112872 78.26752863 97.63112872 82.83935547 96.45410156 C84.92345254 92.1866647 85.21985073 88.99001457 83.83935547 84.45410156 C81.39696346 81.33794624 79.66142922 80.18812383 75.83935547 79.45410156 C74.46661869 79.34548226 73.09006856 79.27927559 71.71337891 79.2487793 C70.51258698 79.21886147 70.51258698 79.21886147 69.28753662 79.18833923 C68.43323059 79.17162674 67.57892456 79.15491425 66.69873047 79.13769531 C65.81654846 79.11691422 64.93436646 79.09613312 64.02545166 79.07472229 C61.21349716 79.00945289 58.40145101 78.95044709 55.58935547 78.89160156 C53.68049191 78.84839483 51.77163754 78.80477985 49.86279297 78.76074219 C45.18840629 78.65302806 40.51394786 78.55378661 35.83935547 78.45410156 C35.83935547 68.88410156 35.83935547 59.31410156 35.83935547 49.45410156 C43.07524966 49.36988165 50.30933675 49.28978707 57.54529572 49.24710083 C60.91591168 49.22610364 64.28611582 49.19811508 67.65649414 49.15234375 C71.53656703 49.10347452 75.41606073 49.08105151 79.29638672 49.06347656 C80.486418 49.04283142 81.67644928 49.02218628 82.90254211 49.00091553 C94.61875231 48.99781144 103.16882379 51.82951365 111.61279297 60.03222656 C121.10184439 70.35365091 123.56569378 80.69214284 123.11669922 94.39941406 C122.53744803 104.84516363 118.19372228 114.17790069 110.69873047 121.56347656 C102.42298431 128.3345416 94.69802953 131.06121596 84.06225586 130.97167969 C82.50430046 130.9821936 82.50430046 130.9821936 80.91487122 130.99291992 C77.5053071 131.01042456 74.09658327 130.99890251 70.68701172 130.98535156 C68.30244285 130.98804883 65.91787506 130.9919332 63.53330994 130.99694824 C58.54447928 131.0028333 53.55593584 130.99431273 48.56713867 130.97558594 C42.19076419 130.9528099 35.81506375 130.96591796 29.43871403 130.98987579 C24.5168709 131.00437093 19.59518598 130.99971045 14.67333794 130.98936462 C12.32313392 130.98670698 9.97291527 130.989933 7.62272835 130.99928284 C4.33005178 131.00950799 1.03844693 130.99386247 -2.25415039 130.97167969 C-3.21393799 130.97977661 -4.17372559 130.98787354 -5.16259766 130.99621582 C-15.46882194 130.8683973 -23.37545197 127.29296312 -30.82470703 120.23144531 C-37.40249228 112.41070064 -41.25148565 103.13729804 -41.33764648 92.93237305 C-41.34421768 92.28621536 -41.35078888 91.64005768 -41.3575592 90.97431946 C-41.37722441 88.84127669 -41.38894343 86.70830433 -41.39892578 84.57519531 C-41.40300131 83.84237902 -41.40707684 83.10956272 -41.41127586 82.35453987 C-41.432114 78.47098196 -41.44642193 74.58745908 -41.45581055 70.70385742 C-41.46683291 66.71851557 -41.50119008 62.73373853 -41.54098225 58.74859524 C-41.56730356 55.6625118 -41.5755163 52.57655938 -41.57909203 49.49037361 C-41.58392297 48.02294185 -41.59543562 46.55551453 -41.61413002 45.08819389 C-41.78007464 31.19265728 -38.92675806 19.90644496 -29.34814453 9.48144531 C-20.70304577 1.27208741 -11.57490512 -0.14000063 0 0 Z " fill="#E74944" transform="translate(76.16064453125,296.5458984375)"/>
<path d="M0 0 C17.57677196 -0.09040297 35.15334456 -0.16404156 52.73028469 -0.20724869 C60.89213338 -0.22784652 69.05382702 -0.2559137 77.21557617 -0.30175781 C84.33195909 -0.341711 91.44822968 -0.36745301 98.56472164 -0.37635398 C102.3305506 -0.38155445 106.0960583 -0.39371875 109.86178398 -0.42292023 C113.41178625 -0.45022386 116.96133725 -0.45841521 120.51143456 -0.45243073 C122.42417556 -0.4540428 124.33686827 -0.47548706 126.2494812 -0.49768066 C136.87938562 -0.44714867 145.23684692 2.58468677 153 10 C160.21490843 18.74753426 164.09227682 27.05992964 164.16113281 38.4675293 C164.17074036 39.75624435 164.1803479 41.04495941 164.19024658 42.37272644 C164.19509634 43.77322206 164.19937473 45.17371976 164.203125 46.57421875 C164.20736607 47.64084212 164.20736607 47.64084212 164.21169281 48.72901344 C164.22665374 52.49472038 164.23590177 56.26038934 164.24023438 60.02612305 C164.24570351 63.89148824 164.26970712 67.75649843 164.29820633 71.62175274 C164.31695147 74.61514761 164.32204465 77.60845915 164.32357025 80.60190773 C164.32657239 82.02548976 164.33451714 83.44907119 164.34775543 84.87259483 C164.46329187 98.25525594 162.48379636 109.89642754 153.11328125 120.04296875 C146.62541086 126.02098685 139.41362563 130.12849182 130.47615051 130.12025452 C128.7534771 130.12231651 128.7534771 130.12231651 126.9960022 130.12442017 C125.73508759 130.12082489 124.47417297 130.11722961 123.17504883 130.11352539 C121.8347219 130.11324334 120.49439483 130.11340161 119.15406799 130.1139679 C115.51385237 130.11425516 111.8736696 130.10836983 108.23346162 130.10139394 C104.42978726 130.09514866 100.62611217 130.09455567 96.82243347 130.09336853 C89.61891836 130.09025869 82.41541839 130.08204996 75.21190995 130.07201904 C65.47830702 130.05875876 55.74469996 130.05335519 46.01109028 130.04751682 C30.67404883 130.03810985 15.33703936 130.01818861 0 130 C0 103.27 0 76.54 0 49 C12.21 49 24.42 49 37 49 C37 65.17 37 81.34 37 98 C51.83222108 97.9383675 51.83222108 97.9383675 66.6640625 97.83984375 C72.71256831 97.79147294 78.76088955 97.74744203 84.80957031 97.72900391 C89.68568004 97.71387034 94.56130726 97.67948371 99.43720245 97.63169098 C101.29829975 97.61684305 103.15946592 97.60895704 105.02062225 97.60811615 C107.62592635 97.60575496 110.22988777 97.57874504 112.83496094 97.54589844 C113.60604187 97.5509288 114.3771228 97.55595917 115.17156982 97.56114197 C118.69732022 97.49227498 120.62758516 97.29045664 123.44781494 95.09088135 C125.8449142 91.86185263 126.13110683 90.0552848 126.16113281 86.07885742 C126.17074036 85.05406784 126.1803479 84.02927826 126.19024658 82.97343445 C126.19449646 81.86200577 126.19874634 80.75057709 126.203125 79.60546875 C126.20882507 78.46596268 126.21452515 77.3264566 126.22039795 76.15242004 C126.22985769 73.73728364 126.23638578 71.32213428 126.24023438 68.90698242 C126.24993266 65.2131493 126.28094464 61.51987414 126.3125 57.82617188 C126.31903061 55.48177414 126.32428085 53.13737243 126.328125 50.79296875 C126.3466452 49.13493477 126.3466452 49.13493477 126.36553955 47.44340515 C126.36253845 46.40915909 126.35953735 45.37491302 126.35644531 44.30932617 C126.36009094 43.40268723 126.36373657 42.49604828 126.36749268 41.56193542 C125.91924264 38.43700882 124.83175778 36.54943866 123 34 C120.5418949 32.77094745 118.91550853 32.86170658 116.16586304 32.84178162 C115.14500107 32.8319928 114.1241391 32.82220398 113.07234192 32.81211853 C111.94809311 32.80636307 110.8238443 32.8006076 109.66552734 32.79467773 C108.48505325 32.78477814 107.30457916 32.77487854 106.08833313 32.76467896 C102.84683218 32.73845843 99.60533657 32.71660989 96.36379194 32.69667697 C92.97782185 32.67483152 89.59189686 32.6474358 86.20596313 32.62062073 C79.79222272 32.57067431 73.3784573 32.52574273 66.96466792 32.48259836 C59.66364246 32.43324262 52.36266226 32.37831834 45.06168056 32.32291877 C30.04116103 32.20906881 15.02059878 32.10297153 0 32 C0 21.44 0 10.88 0 0 Z " fill="#E74A44" transform="translate(217,297)"/>
<path d="M0 0 C40.989268 -7.64447986 40.989268 -7.64447986 56.59692383 2.07977295 C65.30497512 8.07968965 72.68680339 15.74394759 79.8125 23.5 C80.58747267 24.3430261 80.58747267 24.3430261 81.37810135 25.20308304 C87.83300517 32.26847362 94.02073452 39.52705249 100 47 C103.56632403 45.5297762 105.3709505 43.63889038 107.75976562 40.64208984 C140.75328502 0.19818018 140.75328502 0.19818018 159.88491821 -2.67297363 C173.6412083 -3.82686072 187.44396296 -2.40470497 201 0 C197.20301491 4.53520306 193.28288646 8.86013997 189.08642578 13.02709961 C188.5295961 13.58407532 187.97276642 14.14105103 187.39906311 14.71490479 C185.58351 16.52976899 183.76445606 18.34107911 181.9453125 20.15234375 C180.67571469 21.42007374 179.40633952 22.68802673 178.13717651 23.95619202 C174.81532426 27.27424776 171.49047867 30.58928789 168.16497803 33.90368652 C164.76440491 37.29398355 161.36670263 40.68715506 157.96875 44.08007812 C151.31528981 50.72285162 144.65866041 57.36243946 138 64 C139.6358657 68.17469628 142.69524012 70.95513629 145.82666016 74.0378418 C146.42192001 74.63178741 147.01717987 75.22573303 147.63047791 75.837677 C149.5954473 77.79616453 151.56728961 79.74758315 153.5390625 81.69921875 C154.90434604 83.05823217 156.26911589 84.41776184 157.63339233 85.77778625 C161.22291001 89.35400637 164.817955 92.9246138 168.41461182 96.49365234 C174.18021826 102.21611426 179.93907393 107.94535111 185.69477463 113.67777443 C187.71112692 115.68386176 189.73083406 117.68652652 191.75088501 119.68888855 C192.97807932 120.90925933 194.20516659 122.12973777 195.43212891 123.3503418 C195.99938187 123.91085739 196.56663483 124.47137299 197.15107727 125.0488739 C198.45312892 126.34705884 199.72967676 127.67075153 201 129 C201 129.33 201 129.66 201 130 C184.10008905 133.22400072 160.84476929 137.59203246 145.43170166 127.92022705 C136.7490341 121.90248922 129.37560917 114.24303334 122.25 106.5 C121.73249554 105.9379826 121.21499107 105.37596519 120.68180466 104.79691696 C114.21224867 97.72810258 108.00416108 90.46885856 102 83 C98.43340876 84.46950819 96.63781103 86.35573673 94.25610352 89.35791016 C61.40632766 129.80108449 61.40632766 129.80108449 41.95698547 132.67297363 C27.92222511 133.8298452 13.83905635 132.40055604 0 130 C3.79698509 125.46479694 7.71711354 121.13986003 11.91357422 116.97290039 C12.4704039 116.41592468 13.02723358 115.85894897 13.60093689 115.28509521 C15.41649 113.47023101 17.23554394 111.65892089 19.0546875 109.84765625 C20.32428531 108.57992626 21.59366048 107.31197327 22.86282349 106.04380798 C26.18467574 102.72575224 29.50952133 99.41071211 32.83502197 96.09631348 C36.23559509 92.70601645 39.63329737 89.31284494 43.03125 85.91992188 C49.68471019 79.27714838 56.34133959 72.63756054 63 66 C61.3641343 61.82530372 58.30475988 59.04486371 55.17333984 55.9621582 C54.57807999 55.36821259 53.98282013 54.77426697 53.36952209 54.162323 C51.4045527 52.20383547 49.43271039 50.25241685 47.4609375 48.30078125 C46.09565396 46.94176783 44.73088411 45.58223816 43.36660767 44.22221375 C39.77708999 40.64599363 36.182045 37.0753862 32.58538818 33.50634766 C26.81978174 27.78388574 21.06092607 22.05464889 15.30522537 16.32222557 C13.28887308 14.31613824 11.26916594 12.31347348 9.24911499 10.31111145 C8.02192068 9.09074067 6.79483341 7.87026223 5.56787109 6.6496582 C4.71699165 5.80888481 4.71699165 5.80888481 3.84892273 4.9511261 C2.54687108 3.65294116 1.27032324 2.32924847 0 1 C0 0.67 0 0.34 0 0 Z " fill="#E74944" transform="translate(380,297)"/>
<path d="M0 0 C12.54 0 25.08 0 38 0 C38 16.17 38 32.34 38 49 C47.70713467 48.84281036 47.70713467 48.84281036 57.41333008 48.63964844 C69.18010816 48.54417762 79.23818251 50.66513548 88 59 C97.11738487 68.73392934 100.42437996 79.54302838 100.27734375 92.7109375 C99.17190499 105.82050698 93.17081748 115.45255826 83.734375 124.17578125 C74.41355044 130.39410278 65.30199561 130.54384255 54.4921875 130.390625 C53.0925358 130.38473002 51.69287522 130.38065785 50.29321289 130.37841797 C45.15367247 130.3576067 40.0143219 130.30176197 34.875 130.25 C17.611875 130.12625 17.611875 130.12625 0 130 C0 87.1 0 44.2 0 0 Z M38 78 C38 84.6 38 91.2 38 98 C42.3003125 98.12375 42.3003125 98.12375 46.6875 98.25 C48.02880981 98.30462402 48.02880981 98.30462402 49.3972168 98.36035156 C53.44692845 98.41666694 55.50103852 98.31241573 59.01953125 96.109375 C61.5853781 93.37652036 61.95544281 92.47230623 62.3125 88.6875 C61.94421469 84.34173337 61.18096215 82.92983355 58 80 C53.42737391 78.07923119 49.55713891 77.78194078 44.625 77.875 C42.43875 77.91625 40.2525 77.9575 38 78 Z " fill="#000000" transform="translate(313,135)"/>
<path d="M0 0 C12.21 0 24.42 0 37 0 C37 42.9 37 85.8 37 130 C24.79 130 12.58 130 0 130 C0 87.1 0 44.2 0 0 Z " fill="#000000" transform="translate(194,135)"/>
<path d="M0 0 C12.54 0 25.08 0 38 0 C38 26.73 38 53.46 38 81 C25.46 81 12.92 81 0 81 C0 54.27 0 27.54 0 0 Z " fill="#000000" transform="translate(253,184)"/>
<path d="M0 0 C12.54 0 25.08 0 38 0 C38 10.56 38 21.12 38 32 C25.46 32 12.92 32 0 32 C0 21.44 0 10.88 0 0 Z " fill="#000000" transform="translate(253,135)"/>
</svg>
