<?xml version="1.0" encoding="UTF-8"?>
<svg version="1.1" xmlns="http://www.w3.org/2000/svg" width="100" height="100">
<path d="M0 0 C0.73541016 0.00202423 1.47082031 0.00404846 2.22851562 0.00613403 C2.97939453 0.00517731 3.73027344 0.00422058 4.50390625 0.00323486 C6.09440189 0.00255315 7.6849003 0.00440682 9.27539062 0.00857544 C11.71816217 0.01392386 14.16074984 0.00863019 16.60351562 0.00222778 C18.1451827 0.00288857 19.68684966 0.00416973 21.22851562 0.00613403 C21.96392578 0.0041098 22.69933594 0.00208557 23.45703125 0 C28.61356402 0.02399493 28.61356402 0.02399493 29.72851562 1.13894653 C29.83939475 3.48523739 29.88589566 5.80237702 29.88964844 8.14968872 C29.89709579 9.24976761 29.89709579 9.24976761 29.9046936 10.37207031 C29.91935519 12.80999679 29.92612499 15.24785812 29.93164062 17.68582153 C29.93739026 19.37635297 29.94314802 21.06688439 29.94891357 22.75741577 C29.95943594 26.30842392 29.96527002 29.85940935 29.96875 33.41043091 C29.97422723 37.95794991 29.99823337 42.50516835 30.02672195 47.05259323 C30.04536185 50.54762644 30.05055472 54.0425876 30.05208588 57.53766632 C30.05511157 59.21378466 30.06313732 60.88990176 30.07627106 62.56597137 C30.09335471 64.91442039 30.09144556 67.26214002 30.08496094 69.61062622 C30.09417572 70.30173492 30.1033905 70.99284363 30.11288452 71.70489502 C30.06458442 77.29801225 28.33308886 80.28517897 24.75561523 84.41824341 C20.07850321 87.07686794 15.58581665 86.71019897 10.29492188 86.67019653 C9.18422836 86.67402344 8.07353485 86.67785034 6.92918396 86.68179321 C4.58323255 86.68451188 2.2372508 86.67715398 -0.10864258 86.66043091 C-3.69291068 86.63904245 -7.27516959 86.66022534 -10.859375 86.68582153 C-13.14128045 86.68317785 -15.42318466 86.67805205 -17.70507812 86.67019653 C-18.77398788 86.67829346 -19.84289764 86.68639038 -20.94419861 86.69473267 C-27.08226209 86.61768417 -30.54423267 86.1268515 -35.27148438 82.13894653 C-36.7830811 81.3297831 -38.30319547 80.53618709 -39.83398438 79.76394653 C-44.96053722 76.96292947 -48.37617304 73.82488055 -50.27148438 68.13894653 C-50.36426772 66.52381602 -50.4021694 64.90517598 -50.40429688 63.28738403 C-50.40623047 61.88746216 -50.40623047 61.88746216 -50.40820312 60.45925903 C-50.40240234 59.00132935 -50.40240234 59.00132935 -50.39648438 57.51394653 C-50.40035156 56.53425903 -50.40421875 55.55457153 -50.40820312 54.54519653 C-50.40691406 53.61449341 -50.405625 52.68379028 -50.40429688 51.72488403 C-50.40316895 50.86942993 -50.40204102 50.01397583 -50.40087891 49.13259888 C-50.27148438 47.13894653 -50.27148438 47.13894653 -49.27148438 46.13894653 C-46.77148438 46.01394653 -46.77148438 46.01394653 -44.27148438 46.13894653 C-42.74040376 47.67002714 -43.09204495 49.12041139 -43.02539062 51.25222778 C-42.99251953 52.08818481 -42.95964844 52.92414185 -42.92578125 53.78543091 C-42.86499086 55.55093891 -42.80765176 57.31656941 -42.75390625 59.08230591 C-42.71974609 59.92213013 -42.68558594 60.76195435 -42.65039062 61.62722778 C-42.62533447 62.39591187 -42.60027832 63.16459595 -42.57446289 63.95657349 C-42.23496723 66.40198181 -41.56717601 68.04418282 -40.27148438 70.13894653 C-39.61148438 70.46894653 -38.95148437 70.79894653 -38.27148438 71.13894653 C-38.28195801 69.9638855 -38.29243164 68.78882446 -38.30322266 67.57815552 C-38.33956654 63.19667639 -38.36243706 58.81521046 -38.38134766 54.43362427 C-38.39137253 52.54134883 -38.40499593 50.64908875 -38.42236328 48.75686646 C-38.4467666 46.02871903 -38.45800282 43.30077738 -38.46679688 40.57254028 C-38.47711945 39.73371811 -38.48744202 38.89489594 -38.49807739 38.03065491 C-38.49902437 33.01374927 -38.036125 28.85708192 -36.27148438 24.13894653 C-31.40559784 19.51635432 -28.2440253 19.04304013 -21.77148438 19.17410278 C-20.228524 19.18013968 -18.6855502 19.18329861 -17.14257812 19.18386841 C-14.71635789 19.18557736 -12.29503972 19.20081683 -9.86962891 19.26565552 C0.19077062 19.78057357 0.19077062 19.78057357 9.08398438 15.84158325 C11.53738536 13.38861482 13.69760732 10.94771058 15.72851562 8.13894653 C15.0976001 8.11389038 14.46668457 8.08883423 13.81665039 8.0630188 C10.97454738 7.94740516 8.1328048 7.82452338 5.29101562 7.70144653 C4.29779297 7.66213013 3.30457031 7.62281372 2.28125 7.58230591 C1.33701172 7.54041138 0.39277344 7.49851685 -0.58007812 7.45535278 C-1.89190063 7.40036621 -1.89190063 7.40036621 -3.23022461 7.3442688 C-5.27148438 7.13894653 -5.27148438 7.13894653 -6.27148438 6.13894653 C-6.39648438 3.63894653 -6.39648438 3.63894653 -6.27148438 1.13894653 C-4.53855458 -0.59398326 -2.30934102 0.01074607 0 0 Z M21.72851562 13.13894653 C20.03763341 15.11851596 18.37021091 17.11839849 16.72851562 19.13894653 C19.69851562 19.63394653 19.69851562 19.63394653 22.72851562 20.13894653 C22.72851562 17.82894653 22.72851562 15.51894653 22.72851562 13.13894653 C22.39851563 13.13894653 22.06851563 13.13894653 21.72851562 13.13894653 Z " fill="#8FC9F8" transform="translate(60.271484375,9.861053466796875)"/>
<path d="M0 0 C0.08738991 4.37487331 0.140524 8.74952078 0.1875 13.125 C0.21263672 14.3625 0.23777344 15.6 0.26367188 16.875 C0.27333984 18.07382813 0.28300781 19.27265625 0.29296875 20.5078125 C0.3086792 21.60754395 0.32438965 22.70727539 0.34057617 23.84033203 C-0.18318582 28.69949163 -1.86182106 31.94937329 -5.4375 35.25 C-9.38090997 37.94306047 -12.03521809 39.24832088 -16.85693359 39.2746582 C-18.29895645 39.28895622 -18.29895645 39.28895622 -19.77011108 39.30354309 C-20.8024588 39.30263168 -21.83480652 39.30172028 -22.8984375 39.30078125 C-23.96615387 39.30506638 -25.03387024 39.3093515 -26.13394165 39.31376648 C-28.39169608 39.31950718 -30.649469 39.32001196 -32.90722656 39.31567383 C-36.35514036 39.31251818 -39.80219254 39.33596211 -43.25 39.36132812 C-45.44531142 39.36360162 -47.64062514 39.36430438 -49.8359375 39.36328125 C-50.86423676 39.372491 -51.89253601 39.38170074 -52.95199585 39.39118958 C-59.15323383 39.35127215 -63.85755828 38.86626514 -68.64453125 34.5 C-71.94496895 30.26131078 -73.12582511 27.46185224 -73.1328125 22.1484375 C-73.13474609 20.74851562 -73.13474609 20.74851562 -73.13671875 19.3203125 C-73.13091797 17.86238281 -73.13091797 17.86238281 -73.125 16.375 C-73.12886719 15.3953125 -73.13273437 14.415625 -73.13671875 13.40625 C-73.13542969 12.47554687 -73.13414063 11.54484375 -73.1328125 10.5859375 C-73.13168457 9.7304834 -73.13055664 8.8750293 -73.12939453 7.99365234 C-73 6 -73 6 -72 5 C-69.5 4.875 -69.5 4.875 -67 5 C-65.46891939 6.53108061 -65.82056058 7.98146485 -65.75390625 10.11328125 C-65.72103516 10.94923828 -65.68816406 11.78519531 -65.65429688 12.64648438 C-65.59350649 14.41199238 -65.53616738 16.17762287 -65.48242188 17.94335938 C-65.44826172 18.78318359 -65.41410156 19.62300781 -65.37890625 20.48828125 C-65.3538501 21.25696533 -65.32879395 22.02564941 -65.30297852 22.81762695 C-64.95961771 25.29087612 -64.33171166 26.89110734 -63 29 C-59.82271714 31.11818857 -58.9804262 31.25968853 -55.33251953 31.30639648 C-53.91557297 31.33037758 -53.91557297 31.33037758 -52.47000122 31.35484314 C-51.45122894 31.36020584 -50.43245667 31.36556854 -49.3828125 31.37109375 C-48.33350555 31.38012222 -47.28419861 31.3891507 -46.20309448 31.39845276 C-43.98226784 31.41296641 -41.76139834 31.42184475 -39.54052734 31.42553711 C-36.14477376 31.43743074 -32.75083856 31.48660504 -29.35546875 31.53710938 C-27.19792554 31.54657378 -25.04037116 31.55380873 -22.8828125 31.55859375 C-21.36072678 31.58789223 -21.36072678 31.58789223 -19.80789185 31.61778259 C-15.19388825 31.58829304 -12.74328832 31.50933622 -8.86401367 28.85107422 C-6.71021247 25.55675981 -6.3507561 23.73449623 -6.29296875 19.82421875 C-6.26396484 18.66728516 -6.23496094 17.51035156 -6.20507812 16.31835938 C-6.19637695 14.52108398 -6.19637695 14.52108398 -6.1875 12.6875 C-6.16236328 11.46998047 -6.13722656 10.25246094 -6.11132812 8.99804688 C-6.05251099 5.99837313 -6.01618961 3.00015702 -6 0 C-3.50907189 -1.24546405 -2.58919267 -0.7767578 0 0 Z " fill="#1D2148" transform="translate(83,51)"/>
<path d="M0 0 C0.73541016 0.00202423 1.47082031 0.00404846 2.22851562 0.00613403 C2.97939453 0.00517731 3.73027344 0.00422058 4.50390625 0.00323486 C6.09440189 0.00255315 7.6849003 0.00440682 9.27539062 0.00857544 C11.71816217 0.01392386 14.16074984 0.00863019 16.60351562 0.00222778 C18.1451827 0.00288857 19.68684966 0.00416973 21.22851562 0.00613403 C21.96392578 0.0041098 22.69933594 0.00208557 23.45703125 0 C28.61356402 0.02399493 28.61356402 0.02399493 29.72851562 1.13894653 C29.84173996 3.56385024 29.89268438 5.95921515 29.89648438 8.38504028 C29.90147697 9.47450706 29.90147697 9.47450706 29.90657043 10.58598328 C29.91164237 12.12519699 29.91397868 13.66442174 29.91381836 15.2036438 C29.91600329 17.56312124 29.93415128 19.92213014 29.953125 22.28152466 C29.95605914 23.77436159 29.9580438 25.26720076 29.95898438 26.76004028 C29.96616989 27.46841537 29.97335541 28.17679047 29.98075867 28.90663147 C29.957339 33.91012316 29.957339 33.91012316 27.72851562 36.13894653 C24.19280134 35.60323225 24.19280134 35.60323225 22.72851562 34.13894653 C22.57196535 32.65255661 22.4778462 31.15945526 22.41210938 29.66629028 C22.37021484 28.76716919 22.32832031 27.8680481 22.28515625 26.94168091 C22.24583984 25.99615356 22.20652344 25.05062622 22.16601562 24.07644653 C22.12283203 23.127052 22.07964844 22.17765747 22.03515625 21.19949341 C21.92872286 18.846133 21.82670554 16.49266299 21.72851562 14.13894653 C19.36987497 16.32166001 17.01727018 18.5107799 14.66601562 20.70144653 C13.94953857 21.36660278 13.23306152 22.03175903 12.49487305 22.71707153 C8.73576558 26.23101086 5.05850706 29.79045673 1.50195312 33.51004028 C0.83558838 34.20218628 0.16922363 34.89433228 -0.51733398 35.60745239 C-1.79429403 36.94349974 -3.05861742 38.2917607 -4.30883789 39.65286255 C-5.90382728 41.31528022 -7.37795342 42.82644588 -9.27148438 44.13894653 C-12.19726562 44.04519653 -12.19726562 44.04519653 -14.27148438 43.13894653 C-13.76815508 38.85317697 -12.57095491 36.96318022 -9.48242188 33.99441528 C-8.70511719 33.23451294 -7.9278125 32.4746106 -7.12695312 31.69168091 C-6.30839844 30.91115356 -5.48984375 30.13062622 -4.64648438 29.32644653 C0.52439521 24.32737088 5.55695988 19.33109346 10.23388672 13.86282349 C11.97342826 11.8564689 13.8132195 9.97763081 15.72851562 8.13894653 C15.0976001 8.11389038 14.46668457 8.08883423 13.81665039 8.0630188 C10.97454738 7.94740516 8.1328048 7.82452338 5.29101562 7.70144653 C4.29779297 7.66213013 3.30457031 7.62281372 2.28125 7.58230591 C1.33701172 7.54041138 0.39277344 7.49851685 -0.58007812 7.45535278 C-1.89190063 7.40036621 -1.89190063 7.40036621 -3.23022461 7.3442688 C-5.27148438 7.13894653 -5.27148438 7.13894653 -6.27148438 6.13894653 C-6.39648438 3.63894653 -6.39648438 3.63894653 -6.27148438 1.13894653 C-4.53855458 -0.59398326 -2.30934102 0.01074607 0 0 Z " fill="#1A1C42" transform="translate(60.271484375,9.861053466796875)"/>
<path d="M0 0 C1.15564453 -0.00128906 2.31128906 -0.00257812 3.50195312 -0.00390625 C4.70400391 -0.00003906 5.90605469 0.00382813 7.14453125 0.0078125 C8.96500977 0.00201172 8.96500977 0.00201172 10.82226562 -0.00390625 C11.97404297 -0.00261719 13.12582031 -0.00132813 14.3125 0 C15.37106201 0.00112793 16.42962402 0.00225586 17.52026367 0.00341797 C19.95703125 0.1328125 19.95703125 0.1328125 20.95703125 1.1328125 C21.08203125 3.6328125 21.08203125 3.6328125 20.95703125 6.1328125 C19.26588571 7.82395804 17.10090868 7.3017505 14.78515625 7.34375 C13.728125 7.37210938 12.67109375 7.40046875 11.58203125 7.4296875 C9.34781622 7.48140544 7.11341814 7.52578267 4.87890625 7.5625 C3.81671875 7.5934375 2.75453125 7.624375 1.66015625 7.65625 C0.68723633 7.67606934 -0.28568359 7.69588867 -1.28808594 7.71630859 C-4.52707476 8.20600329 -6.40871732 9.20786984 -9.04296875 11.1328125 C-11.44009231 14.72849783 -11.44483228 17.58910011 -11.60546875 21.7578125 C-11.92234193 29.01218568 -11.92234193 29.01218568 -13.04296875 30.1328125 C-15.54296875 30.2578125 -15.54296875 30.2578125 -18.04296875 30.1328125 C-20.12209454 28.05368671 -19.27398926 23.79935309 -19.29296875 20.9453125 C-19.31359375 20.18927734 -19.33421875 19.43324219 -19.35546875 18.65429688 C-19.39462816 13.01044645 -18.46275411 8.84942486 -14.578125 4.48828125 C-9.55623553 0.5054034 -6.30182416 0.00669339 0 0 Z " fill="#17183E" transform="translate(29.04296875,15.8671875)"/>
</svg>
