<?xml version="1.0" encoding="UTF-8"?>
<svg version="1.1" xmlns="http://www.w3.org/2000/svg" width="100" height="100">
<path d="M0 0 C0.99 0.33 1.98 0.66 3 1 C3.74913597 2.72626985 4.49295762 4.45586386 5.171875 6.2109375 C6.30905052 8.66766575 7.96836171 10.24858768 10 12 C10 9.36 10 6.72 10 4 C11.9375 4.375 11.9375 4.375 14 5 C15.88126094 8.76252189 14.8298134 13.48927348 14.64453125 17.6171875 C14.70101996 21.05932966 14.70101996 21.05932966 16.88671875 23.3828125 C21.30487946 26.76380794 25.5898578 26.69296574 31 26 C37.24058716 22.51967255 40.20790816 16.42443703 43 10 C43.45198903 8.30565862 43.8547066 6.59672453 44.1875 4.875 C44.455625 3.59625 44.72375 2.3175 45 1 C45.99 0.67 46.98 0.34 48 0 C48.21755666 5.4389165 48.10428384 9.87080814 46 15 C51.65718492 11.52536578 51.65718492 11.52536578 55 6 C55.99 6 56.98 6 58 6 C57.54231166 10.92014964 56.60268238 13.57305822 53 17 C51.37398168 17.8514623 49.72538592 18.66049676 48.0625 19.4375 C43.32572878 21.68676562 40.65350196 23.42499662 38 28 C37.92632232 32.19962759 38.54848719 34.32273078 40.875 37.8125 C43.89715264 41.03115845 43.89715264 41.03115845 48.015625 42.0390625 C54.12299665 40.90727684 56.77893977 38.69687864 60.39453125 33.6796875 C60.92433594 33.12539063 61.45414062 32.57109375 62 32 C63.32 32 64.64 32 66 32 C66 35 66 35 63.625 37.4375 C62.75875 38.283125 61.8925 39.12875 61 40 C60.34 41.32 59.68 42.64 59 44 C62.63 44 66.26 44 70 44 C70 44.99 70 45.98 70 47 C66.37 47.99 62.74 48.98 59 50 C59.495 50.721875 59.99 51.44375 60.5 52.1875 C62.07919285 55.14848659 62.28178312 56.71253029 62 60 C61.01 60 60.02 60 59 60 C58.608125 59.113125 58.21625 58.22625 57.8125 57.3125 C55.88483718 53.78953001 54.15853646 51.48170722 51 49 C48.35192865 48.34539132 48.35192865 48.34539132 46 50 C43.42868944 54.09072134 40.91589554 59.12152993 42 64 C46.11287544 70.97400618 53.48444881 74.80470767 61.0625 76.875 C62.70439308 77.26689218 64.34905017 77.64820882 66 78 C65.505 79.485 65.505 79.485 65 81 C58.98579743 81.38388527 54.65404897 80.08764885 49 78 C49 81.63 49 85.26 49 89 C47.515 89.495 47.515 89.495 46 90 C45.90203125 89.29875 45.8040625 88.5975 45.703125 87.875 C44.70622575 81.54984611 43.1609268 76.54396927 40 71 C39.32679633 69.66995525 38.65842367 68.33742308 38 67 C28.34658075 69.03218534 28.34658075 69.03218534 20 74 C20.66717575 79.49654684 20.66717575 79.49654684 23.9140625 83.7265625 C25.35467538 84.71921095 26.82343712 85.67254203 28.3203125 86.578125 C28.87460937 87.04734375 29.42890625 87.5165625 30 88 C30 89.32 30 90.64 30 92 C29.01 92 28.02 92 27 92 C26 91 25 90 24 89 C22.02379014 87.95377125 20.0262871 86.94560065 18 86 C18.47960897 88.23817521 18.99638445 89.99357235 20.125 92 C21.19223228 94.43938807 20.87822019 95.54098346 20 98 C19.34 98 18.68 98 18 98 C17.54625 97.071875 17.0925 96.14375 16.625 95.1875 C15.0578367 91.96078611 15.0578367 91.96078611 13 89 C13 88.01 13 87.02 13 86 C9.83282717 87.58358642 8.26731682 88.45263699 6.6875 91.6875 C6.460625 92.450625 6.23375 93.21375 6 94 C5.34 94 4.68 94 4 94 C3.6875 90.8125 3.6875 90.8125 4 87 C6.25 84.3125 6.25 84.3125 9 82 C11.08671283 80.08717991 12.70233198 78.57673179 14 76.0625 C14 72.74499486 12.24488725 71.30555987 10 69 C5.5949897 66.27790595 1.88939485 66.86906171 -3 68 C-7.88387487 70.1194174 -9.43667511 72.47510211 -11.375 77.25 C-11.93552325 78.82675645 -12.48359233 80.40824929 -13 82 C-13.99 82 -14.98 82 -16 82 C-14.44191344 70.29384966 -14.44191344 70.29384966 -10 66 C-12.71357535 65.12865812 -12.71357535 65.12865812 -16 65 C-19.14748615 66.82053354 -19.14748615 66.82053354 -22 69 C-24.375 69.75 -24.375 69.75 -26 70 C-25.75815894 66.73514566 -24.74863504 65.73637333 -22.4375 63.3125 C-17.43688537 59.44297677 -11.98273911 59.80823231 -6 60.4375 C-4.66537853 60.61559983 -3.33146515 60.79966381 -2 61 C-2.11487748 59.41590006 -2.24234508 57.83271037 -2.375 56.25 C-2.44460937 55.36828125 -2.51421875 54.4865625 -2.5859375 53.578125 C-3.0178867 50.88862999 -3.43683646 49.22966579 -5 47 C-11.84760421 43.04122882 -18.37243177 42.47779549 -26 44 C-26 43.01 -26 42.02 -26 41 C-23.03 39.68 -20.06 38.36 -17 37 C-19.30718811 32.71522208 -21.32966073 29.27708863 -25 26 C-22.26171875 25.69921875 -22.26171875 25.69921875 -19 26 C-16.76953125 28.08203125 -16.76953125 28.08203125 -14.8125 30.8125 C-11.06998629 36.3414127 -11.06998629 36.3414127 -5.6875 39.9375 C-1.86744087 40.02633858 -0.01423914 38.21044204 3 36 C3.66 36 4.32 36 5 36 C8.02481703 30.28016553 8.02481703 30.28016553 9 24 C8.175 23.649375 7.35 23.29875 6.5 22.9375 C2.73181917 21.08473651 -0.12001859 18.37300037 -3.16796875 15.5234375 C-5.02850607 13.78859699 -5.02850607 13.78859699 -8 13 C-8 12.01 -8 11.02 -8 10 C-1.83543524 10.37742233 1.17375515 12.15870308 6 16 C5.566875 15.43152344 5.13375 14.86304688 4.6875 14.27734375 C1.0647565 9.25414153 -0.7941402 6.2207649 0 0 Z M15.625 43.625 C13.53620159 46.67785921 13.45931438 48.36968224 14 52 C15.37506099 53.87890434 15.37506099 53.87890434 17 55 C17.66 52.69 18.32 50.38 19 48 C21.8125 47.75 21.8125 47.75 25 48 C26.875 50 26.875 50 28 52 C28.32152515 48.46322336 28.4131192 46.6037896 26.375 43.625 C22.48589378 40.96403258 19.51410622 40.96403258 15.625 43.625 Z " fill="#FFFFFF" transform="translate(29,1)"/>
</svg>
