<?xml version="1.0" encoding="UTF-8"?>
<svg version="1.1" xmlns="http://www.w3.org/2000/svg" width="60" height="60">
<path d="M0 0 C19.8 0 39.6 0 60 0 C57.74739282 10.13673233 57.74739282 10.13673233 55.0625 13.375 C54.55847656 14.00148438 54.05445313 14.62796875 53.53515625 15.2734375 C53.02855469 15.84320313 52.52195313 16.41296875 52 17 C51.64574951 17.51876709 51.29149902 18.03753418 50.92651367 18.57202148 C47.82977075 20.86740221 44.35759716 20.52920556 40.640625 20.57421875 C39.40672028 20.59631157 39.40672028 20.59631157 38.14788818 20.61885071 C36.40630375 20.64280054 34.6645843 20.65822248 32.92285156 20.66577148 C30.27171017 20.68732351 27.62642398 20.76744887 24.9765625 20.84960938 C12.68627858 21.04552654 12.68627858 21.04552654 8.32202148 18.33959961 C6.49435481 16.30798525 5.22593719 14.43427858 4 12 C3.48566406 11.12730469 2.97132812 10.25460938 2.44140625 9.35546875 C2.15136719 8.64003906 1.86132812 7.92460938 1.5625 7.1875 C1.25441406 6.45917969 0.94632812 5.73085938 0.62890625 4.98046875 C0 3 0 3 0 0 Z M23 4 C23 7.63 23 11.26 23 15 C23.33 15 23.66 15 24 15 C24 11.7 24 8.4 24 5 C26.97 5 29.94 5 33 5 C33 4.67 33 4.34 33 4 C29.7 4 26.4 4 23 4 Z M33 5 C33 6.65 33 8.3 33 10 C33.33 10 33.66 10 34 10 C34 8.35 34 6.7 34 5 C33.67 5 33.34 5 33 5 Z M38 5 C38 7.97 38 10.94 38 14 C35.03 14 32.06 14 29 14 C28.67 12.68 28.34 11.36 28 10 C28 11.65 28 13.3 28 15 C31.63 15 35.26 15 39 15 C39 11.7 39 8.4 39 5 C38.67 5 38.34 5 38 5 Z " fill="#FFFFFF" transform="translate(0,33)"/>
<path d="M0 0 C3 2.375 3 2.375 5 5 C5 5.99 5 6.98 5 8 C5.54269531 8.24234375 6.08539063 8.4846875 6.64453125 8.734375 C14.03756228 12.19777693 14.03756228 12.19777693 16 16 C16 16.99 16 17.98 16 19 C10.49541284 19.37531276 10.49541284 19.37531276 7.9375 17.4375 C6.06539862 15.72096097 6.06539862 15.72096097 3.5 16.1875 C1.04494969 16.88666432 1.04494969 16.88666432 -0.8125 18.0625 C-4.20285833 19.51551071 -7.33354409 19.1222152 -11 19 C-11 18.34 -11 17.68 -11 17 C-11.66 17 -12.32 17 -13 17 C-13 17.66 -13 18.32 -13 19 C-17.66666667 19 -22.33333333 19 -27 19 C-26.51999859 14.67998734 -25.38496591 12.72677809 -22 10 C-21.113125 9.67 -20.22625 9.34 -19.3125 9 C-18.549375 8.67 -17.78625 8.34 -17 8 C-16.64587656 6.67203709 -16.31478446 5.33783393 -16 4 C-10.95987661 -0.64221891 -6.67625768 -1.92234657 0 0 Z M-2 7 C-2.33 8.32 -2.66 9.64 -3 11 C-1.68 10.34 -0.36 9.68 1 9 C0.01 8.34 -0.98 7.68 -2 7 Z M-11 8 C-11.66 8.66 -12.32 9.32 -13 10 C-12.01 10 -11.02 10 -10 10 C-10.33 9.34 -10.66 8.68 -11 8 Z M-7 12 C-6.01 13.485 -6.01 13.485 -5 15 C-4.67 14.01 -4.34 13.02 -4 12 C-4.99 12 -5.98 12 -7 12 Z " fill="#FFFFFF" transform="translate(32,5)"/>
<path d="M0 0 C19.8 0 39.6 0 60 0 C60 2.31 60 4.62 60 7 C40.2 7 20.4 7 0 7 C0 4.69 0 2.38 0 0 Z " fill="#FFFFFF" transform="translate(0,25)"/>
<path d="M0 0 C1.25159912 0.00523682 2.50319824 0.01047363 3.79272461 0.01586914 C4.78942421 0.01799156 4.78942421 0.01799156 5.80625916 0.02015686 C7.93590735 0.02577021 10.06545175 0.03832485 12.19506836 0.05102539 C13.63582205 0.05603868 15.07657739 0.06060188 16.51733398 0.06469727 C20.05577938 0.07574394 23.59416375 0.09301747 27.13256836 0.11352539 C27.46256836 1.10352539 27.79256836 2.09352539 28.13256836 3.11352539 C27.14256836 4.59852539 27.14256836 4.59852539 26.13256836 6.11352539 C23.33520508 6.45410156 23.33520508 6.45410156 19.81225586 6.40649414 C18.55541992 6.39682617 17.29858398 6.3871582 16.00366211 6.37719727 C14.68495117 6.35206055 13.36624023 6.32692383 12.00756836 6.30102539 C10.66773933 6.28598022 9.32789432 6.27229152 7.98803711 6.26000977 C4.70247994 6.22455411 1.41772254 6.17513388 -1.86743164 6.11352539 C-2.52743164 4.46352539 -3.18743164 2.81352539 -3.86743164 1.11352539 C-2.86743164 0.11352539 -2.86743164 0.11352539 0 0 Z " fill="#FFFFFF" transform="translate(17.867431640625,53.886474609375)"/>
<path d="M0 0 C0.99 0 1.98 0 3 0 C1.23570801 4.97209562 -1.3939166 9.43438061 -4 14 C-4.99 14 -5.98 14 -7 14 C-6.43183168 10.09903945 -5.30753577 7.46130366 -3.125 4.1875 C-2.61195312 3.39730469 -2.09890625 2.60710937 -1.5703125 1.79296875 C-1.05210938 1.20128906 -0.53390625 0.60960938 0 0 Z " fill="#FFFFFF" transform="translate(47,0)"/>
<path d="M0 0 C-0.54581199 3.79549259 -2.05409295 5.30979295 -4.9375 7.75 C-5.64777344 8.36359375 -6.35804687 8.9771875 -7.08984375 9.609375 C-9 11 -9 11 -11 11 C-10.42073787 7.46180427 -9.15676523 5.74971757 -6.625 3.25 C-6.01914062 2.63640625 -5.41328125 2.0228125 -4.7890625 1.390625 C-3 0 -3 0 0 0 Z " fill="#FFFFFF" transform="translate(56,6)"/>
<path d="M0 0 C0 0.66 0 1.32 0 2 C-2.31 2 -4.62 2 -7 2 C-7 1.34 -7 0.68 -7 0 C-4.3333581 -1.33332095 -2.83319697 -0.67102033 0 0 Z " fill="#FFFFFF" transform="translate(40,22)"/>
</svg>
