<?xml version="1.0" encoding="UTF-8"?>
<svg version="1.1" xmlns="http://www.w3.org/2000/svg" width="100" height="100">
<path d="M0 0 C1.23234375 -0.00515625 2.4646875 -0.0103125 3.734375 -0.015625 C5.66023438 0.00757813 5.66023438 0.00757813 7.625 0.03125 C8.90890625 0.01578125 10.1928125 0.0003125 11.515625 -0.015625 C12.74796875 -0.01046875 13.9803125 -0.0053125 15.25 0 C16.93996094 0.00676758 16.93996094 0.00676758 18.6640625 0.01367188 C22.30785461 0.65061443 23.50537587 1.52332929 25.625 4.53125 C26.015625 7.109375 26.015625 7.109375 25.875 9.78125 C25.83890625 10.67328125 25.8028125 11.5653125 25.765625 12.484375 C25.71921875 13.15984375 25.6728125 13.8353125 25.625 14.53125 C26.5696814 14.48411865 26.5696814 14.48411865 27.53344727 14.43603516 C30.41775844 14.31045754 33.30149371 14.23301521 36.1875 14.15625 C37.17814453 14.10597656 38.16878906 14.05570313 39.18945312 14.00390625 C44.35238885 13.90099059 47.72659818 14.0238728 51.77734375 17.4296875 C54.43591213 20.06543039 55.58576413 21.58571579 55.74525452 25.42922974 C55.74303391 26.66833099 55.74081329 27.90743225 55.73852539 29.18408203 C55.73864593 29.8781761 55.73876646 30.57227016 55.73889065 31.28739738 C55.73814324 33.53798483 55.73052284 35.78848984 55.72265625 38.0390625 C55.7211863 39.42700155 55.72016592 40.81494115 55.71960449 42.20288086 C55.71435779 47.35401235 55.70039663 52.50513198 55.6875 57.65625 C55.666875 69.165 55.64625 80.67375 55.625 92.53125 C23.945 92.53125 -7.735 92.53125 -40.375 92.53125 C-40.49875 81.125625 -40.6225 69.72 -40.75 57.96875 C-40.80462402 54.37798584 -40.85924805 50.78722168 -40.91552734 47.08764648 C-40.94262695 42.67590332 -40.94262695 42.67590332 -40.94766235 40.60536194 C-40.95682842 39.17055574 -40.97783337 37.73579351 -41.00845337 36.30128479 C-41.28448208 22.67933247 -41.28448208 22.67933247 -37.46337891 18.09399414 C-34.12942174 14.97859618 -31.90297061 14.40752603 -27.3671875 14.43359375 C-26.38105469 14.43681641 -25.39492188 14.44003906 -24.37890625 14.44335938 C-23.34636719 14.45173828 -22.31382813 14.46011719 -21.25 14.46875 C-19.68958984 14.47551758 -19.68958984 14.47551758 -18.09765625 14.48242188 C-15.52338038 14.49423048 -12.94921854 14.51069925 -10.375 14.53125 C-10.42140625 13.85578125 -10.4678125 13.1803125 -10.515625 12.484375 C-10.56976562 11.14632813 -10.56976562 11.14632813 -10.625 9.78125 C-10.67140625 8.89953125 -10.7178125 8.0178125 -10.765625 7.109375 C-10.375 4.53125 -10.375 4.53125 -8.7578125 2.23632812 C-5.67247144 0.02853899 -3.77471885 0.01511615 0 0 Z M-5 6.1875 C-6.88101461 8.94088943 -6.88101461 8.94088943 -6.375 14.53125 C2.865 14.53125 12.105 14.53125 21.625 14.53125 C22.13101461 8.94088943 22.13101461 8.94088943 20.25 6.1875 C16.18804783 3.62460161 12.32887924 3.95061207 7.625 4.03125 C6.72265625 4.01578125 5.8203125 4.0003125 4.890625 3.984375 C0.93177068 4.00780017 -1.60653063 4.04638242 -5 6.1875 Z M-2.08203125 35.1875 C-3.89185298 38.46814362 -3.66575671 41.06400828 -3.5625 44.78125 C-3.53542969 46.04453125 -3.50835937 47.3078125 -3.48046875 48.609375 C-3.44566406 49.57359375 -3.41085938 50.5378125 -3.375 51.53125 C-2.715 51.53125 -2.055 51.53125 -1.375 51.53125 C-1.230625 52.315 -1.08625 53.09875 -0.9375 53.90625 C-0.49701075 56.49546018 -0.49701075 56.49546018 0.625 58.53125 C0.66522391 60.8642366 0.66820247 63.19831666 0.625 65.53125 C-0.07367188 65.86898437 -0.77234375 66.20671875 -1.4921875 66.5546875 C-2.40226562 67.00070313 -3.31234375 67.44671875 -4.25 67.90625 C-5.15492187 68.34710938 -6.05984375 68.78796875 -6.9921875 69.2421875 C-9.47034472 70.43627699 -9.47034472 70.43627699 -11.375 72.53125 C-11.375 73.85125 -11.375 75.17125 -11.375 76.53125 C1.495 76.53125 14.365 76.53125 27.625 76.53125 C25.25554524 70.60761309 23.44974199 69.26510258 17.875 66.84375 C16.8025 66.410625 15.73 65.9775 14.625 65.53125 C14.375 58.90625 14.375 58.90625 16.625 55.53125 C16.625 54.21125 16.625 52.89125 16.625 51.53125 C17.285 51.53125 17.945 51.53125 18.625 51.53125 C18.73323773 49.28231046 18.81069645 47.03187425 18.875 44.78125 C18.92140625 43.52828125 18.9678125 42.2753125 19.015625 40.984375 C18.92048192 37.48896291 18.92048192 37.48896291 16.78125 35.125 C14.3615633 33.33653592 12.59160126 32.86087236 9.625 32.53125 C9.625 31.87125 9.625 31.21125 9.625 30.53125 C5.12935187 30.53125 1.17628635 32.02611176 -2.08203125 35.1875 Z " fill="#FFFFFF" transform="translate(42.375,3.46875)"/>
</svg>
