<?xml version="1.0" encoding="UTF-8"?>
<svg version="1.1" xmlns="http://www.w3.org/2000/svg" width="100" height="100">
<path d="M0 0 C0.83724609 -0.01224609 1.67449219 -0.02449219 2.53710938 -0.03710938 C3.73883789 -0.04000977 3.73883789 -0.04000977 4.96484375 -0.04296875 C5.70210693 -0.04707764 6.43937012 -0.05118652 7.19897461 -0.05541992 C9.0625 0.1875 9.0625 0.1875 11.0625 2.1875 C11.46014263 4.17571313 11.80025349 6.17694339 12.0625 8.1875 C12.78824219 8.28933594 13.51398437 8.39117187 14.26171875 8.49609375 C17.35925322 9.26075707 19.25179958 10.45740908 21.875 12.25 C25.25504041 14.38078554 27.42016707 15.56029811 31.4375 15.3125 C35.0625 15.1875 35.0625 15.1875 37.25 16.625 C44.94164972 27.49940133 44.94164972 27.49940133 44.0625 33.1875 C43.4128125 33.93902344 42.763125 34.69054688 42.09375 35.46484375 C39.28006264 39.236267 39.46814086 42.16965018 39.5625 46.75 C39.54703125 47.50474609 39.5315625 48.25949219 39.515625 49.03710938 C39.54143801 52.69933064 39.64439961 54.70563526 42.0859375 57.51953125 C43.06433594 58.34517578 43.06433594 58.34517578 44.0625 59.1875 C44.3215874 65.66468504 41.10810836 71.25544132 37.0625 76.1875 C34.0625 77.25 34.0625 77.25 31.0625 77.1875 C26.01792324 77.62615885 23.08117646 79.30138055 18.96484375 82.04296875 C16.70926653 83.40002034 14.67755051 83.94233901 12.0625 84.1875 C11.753125 85.321875 11.44375 86.45625 11.125 87.625 C10.0625 91.1875 10.0625 91.1875 9.0625 92.1875 C6.07231839 92.31417764 3.11555892 92.37270838 0.125 92.375 C-0.71224609 92.38724609 -1.54949219 92.39949219 -2.41210938 92.41210938 C-3.21326172 92.41404297 -4.01441406 92.41597656 -4.83984375 92.41796875 C-5.57710693 92.42207764 -6.31437012 92.42618652 -7.07397461 92.43041992 C-8.9375 92.1875 -8.9375 92.1875 -10.9375 90.1875 C-11.33514263 88.19928687 -11.67525349 86.19805661 -11.9375 84.1875 C-12.66324219 84.08566406 -13.38898437 83.98382813 -14.13671875 83.87890625 C-17.23425322 83.11424293 -19.12679958 81.91759092 -21.75 80.125 C-25.13004041 77.99421446 -27.29516707 76.81470189 -31.3125 77.0625 C-34.9375 77.1875 -34.9375 77.1875 -37.125 75.75 C-44.81664972 64.87559867 -44.81664972 64.87559867 -43.9375 59.1875 C-43.2878125 58.43597656 -42.638125 57.68445312 -41.96875 56.91015625 C-39.15506264 53.138733 -39.34314086 50.20534982 -39.4375 45.625 C-39.42203125 44.87025391 -39.4065625 44.11550781 -39.390625 43.33789062 C-39.41643801 39.67566936 -39.51939961 37.66936474 -41.9609375 34.85546875 C-42.61320312 34.30503906 -43.26546875 33.75460938 -43.9375 33.1875 C-44.1965874 26.71031496 -40.98310836 21.11955868 -36.9375 16.1875 C-33.9375 15.125 -33.9375 15.125 -30.9375 15.1875 C-25.89292324 14.74884115 -22.95617646 13.07361945 -18.83984375 10.33203125 C-16.58426653 8.97497966 -14.55255051 8.43266099 -11.9375 8.1875 C-11.628125 7.053125 -11.31875 5.91875 -11 4.75 C-9.13819211 -1.49253233 -5.8091189 0.00445143 0 0 Z M-5.9375 4.1875 C-6.123125 5.79625 -6.123125 5.79625 -6.3125 7.4375 C-6.85546875 9.38671875 -6.85546875 9.38671875 -7.9375 11.1875 C-10.34452464 12.49111963 -12.74754245 13.29008562 -15.34765625 14.140625 C-18.0785402 15.24451173 -19.50542011 16.42866782 -21.5625 18.5 C-23.54802822 20.3907536 -24.38072775 21.14709706 -27.14453125 21.34765625 C-29.375 21.0625 -29.375 21.0625 -32.9375 20.1875 C-35.9075 25.6325 -35.9075 25.6325 -38.9375 31.1875 C-37.6175 32.1775 -36.2975 33.1675 -34.9375 34.1875 C-34.41992188 36.66772461 -34.41992188 36.66772461 -34.40625 39.58984375 C-34.39851563 41.17249023 -34.39851563 41.17249023 -34.390625 42.78710938 C-34.40609375 43.88861328 -34.4215625 44.99011719 -34.4375 46.125 C-34.42203125 47.22263672 -34.4065625 48.32027344 -34.390625 49.45117188 C-34.39578125 50.50755859 -34.4009375 51.56394531 -34.40625 52.65234375 C-34.41076172 53.617771 -34.41527344 54.58319824 -34.41992188 55.57788086 C-34.9375 58.1875 -34.9375 58.1875 -38.9375 62.1875 C-36.9575 65.4875 -34.9775 68.7875 -32.9375 72.1875 C-31.761875 71.89875 -30.58625 71.61 -29.375 71.3125 C-26.73428409 70.97489534 -25.4578388 70.8495721 -23.19921875 72.31640625 C-22.07433703 73.38759433 -20.96565847 74.4759767 -19.87109375 75.578125 C-17.56684989 77.4960007 -15.46377667 78.19639013 -12.625 79.125 C-8.23645655 80.68995859 -8.23645655 80.68995859 -6.85546875 82.98828125 C-6.3125 84.9375 -6.3125 84.9375 -5.9375 88.1875 C-1.9775 88.1875 1.9825 88.1875 6.0625 88.1875 C6.18625 87.115 6.31 86.0425 6.4375 84.9375 C6.98046875 82.98828125 6.98046875 82.98828125 8.0625 81.1875 C10.46952464 79.88388037 12.87254245 79.08491438 15.47265625 78.234375 C18.2035402 77.13048827 19.63042011 75.94633218 21.6875 73.875 C23.67302822 71.9842464 24.50572775 71.22790294 27.26953125 71.02734375 C29.5 71.3125 29.5 71.3125 33.0625 72.1875 C35.0425 68.8875 37.0225 65.5875 39.0625 62.1875 C37.7425 60.8675 36.4225 59.5475 35.0625 58.1875 C34.54492188 55.59375 34.54492188 55.59375 34.53125 52.6875 C34.52351563 51.1096875 34.52351563 51.1096875 34.515625 49.5 C34.53109375 48.406875 34.5465625 47.31375 34.5625 46.1875 C34.53929688 44.5478125 34.53929688 44.5478125 34.515625 42.875 C34.52078125 41.823125 34.5259375 40.77125 34.53125 39.6875 C34.53576172 38.7284375 34.54027344 37.769375 34.54492188 36.78125 C35.0625 34.1875 35.0625 34.1875 39.0625 30.1875 C37.0825 26.8875 35.1025 23.5875 33.0625 20.1875 C31.886875 20.47625 30.71125 20.765 29.5 21.0625 C26.85928409 21.40010466 25.5828388 21.5254279 23.32421875 20.05859375 C22.19933703 18.98740567 21.09065847 17.8990233 19.99609375 16.796875 C17.69184989 14.8789993 15.58877667 14.17860987 12.75 13.25 C8.36145655 11.68504141 8.36145655 11.68504141 6.98046875 9.38671875 C6.4375 7.4375 6.4375 7.4375 6.0625 4.1875 C2.1025 4.1875 -1.8575 4.1875 -5.9375 4.1875 Z " fill="#000000" transform="translate(49.9375,3.8125)"/>
<path d="M0 0 C1.67542976 0.28604898 3.34385343 0.61781233 5 1 C6.01625224 4.18254524 7.009984 7.37170518 8 10.5625 C8.28617188 11.45775391 8.57234375 12.35300781 8.8671875 13.27539062 C10.43804727 18.38068489 11.35173255 22.65806183 11 28 C9.68 28 8.36 28 7 28 C6.67 26.02 6.34 24.04 6 22 C3.36 22 0.72 22 -2 22 C-2.33 23.98 -2.66 25.96 -3 28 C-4.32 28 -5.64 28 -7 28 C-7.40369297 21.72987509 -5.94462621 16.5771703 -4.0625 10.625 C-3.78470703 9.71105469 -3.50691406 8.79710937 -3.22070312 7.85546875 C-1.15472274 1.15472274 -1.15472274 1.15472274 0 0 Z M1 13 C0.67 14.65 0.34 16.3 0 18 C1.32 18 2.64 18 4 18 C3.67 16.35 3.34 14.7 3 13 C2.34 13 1.68 13 1 13 Z " fill="#000000" transform="translate(31,36)"/>
<path d="M0 0 C4.62 0 9.24 0 14 0 C16 2 16 2 16.265625 5.1875 C16.26046875 6.445625 16.2553125 7.70375 16.25 9 C16.25515625 10.258125 16.2603125 11.51625 16.265625 12.8125 C16 16 16 16 14 18 C11.6171875 18.1953125 11.6171875 18.1953125 8.875 18.125 C7.26625 18.08375 5.6575 18.0425 4 18 C4 21.3 4 24.6 4 28 C2.68 28 1.36 28 0 28 C0 18.76 0 9.52 0 0 Z M4 4 C4 7.3 4 10.6 4 14 C6.91652174 14.16681109 6.91652174 14.16681109 10 14 C12.31563087 12.11499729 12.31563087 12.11499729 12.25 9 C12.31563087 5.88500271 12.31563087 5.88500271 10 4 C6.91652174 3.83318891 6.91652174 3.83318891 4 4 Z " fill="#000000" transform="translate(46,36)"/>
<path d="M0 0 C0 1.32 0 2.64 0 4 C-0.66 4 -1.32 4 -2 4 C-2 10.6 -2 17.2 -2 24 C-1.34 24 -0.68 24 0 24 C0 25.32 0 26.64 0 28 C-2.64 28 -5.28 28 -8 28 C-8 26.68 -8 25.36 -8 24 C-7.34 24 -6.68 24 -6 24 C-6 17.4 -6 10.8 -6 4 C-6.99 3.67 -7.98 3.34 -9 3 C-8.67 2.01 -8.34 1.02 -8 0 C-4.71023192 -1.09658936 -3.28696233 -0.79953138 0 0 Z " fill="#000000" transform="translate(74,36)"/>
</svg>
