<svg xmlns="http://www.w3.org/2000/svg" width="60" height="60" viewBox="0 0 15.875 15.875" id="resume">
  <path d="M 6.6503906 1.0273438 C 6.1102961 1.0273438 5.6757813 1.4618662 5.6757812 2.0019531 L 5.6757812 58.001953 C 5.6757812 58.54204 6.1102961 58.976563 6.6503906 58.976562 L 53.150391 58.976562 C 53.690489 58.976562 54.125 58.54204 54.125 58.001953 L 54.125 20.490234 L 34.904297 1.0273438 L 6.6503906 1.0273438 z M 34.904297 4.3535156 L 50.839844 20.490234 L 35.685547 20.490234 C 35.28628 20.490234 34.904297 20.181201 34.904297 19.693359 L 34.904297 4.3535156 z M 20.640625 8.1933594 C 24.546732 8.1933594 27.734375 11.381033 27.734375 15.287109 C 27.734339 17.072539 26.707271 18.573212 25.519531 19.871094 C 27.447065 20.882055 29.088441 22.39545 30.095703 24.425781 C 31.270706 26.794226 31.942453 29.477548 32.273438 31.757812 C 32.36011 32.35999 31.893539 32.899407 31.285156 32.900391 L 10.171875 32.900391 C 9.563492 32.899407 9.0969198 32.35999 9.1835938 31.757812 C 9.5151522 29.489241 10.146196 26.802763 11.279297 24.433594 C 12.248718 22.406656 13.865648 20.899547 15.783203 19.886719 C 14.583939 18.588591 13.547622 17.080555 13.544922 15.287109 C 13.544922 11.381033 16.734549 8.1933594 20.640625 8.1933594 z M 20.640625 10.195312 C 17.815438 10.195313 15.546875 12.461922 15.546875 15.287109 C 15.549218 16.844864 16.265344 18.316397 17.488281 19.28125 C 18.105977 19.774575 17.934136 20.755734 17.185547 21.009766 C 15.445109 21.598714 14.082467 23.201005 13.080078 25.296875 C 12.247652 27.037374 11.83103 29.041994 11.486328 30.900391 L 29.955078 30.900391 C 29.603036 29.051222 29.166768 27.054124 28.302734 25.3125 C 27.261744 23.214184 25.851529 21.594593 24.109375 21.001953 C 23.363445 20.74401 23.196256 19.764128 23.814453 19.273438 C 25.030522 18.306601 25.73239 16.840713 25.732422 15.287109 C 25.732422 12.461922 23.465856 10.195312 20.640625 10.195312 z M 35.861328 25.017578 C 35.866538 25.017537 35.871753 25.017537 35.876953 25.017578 L 48.027344 25.017578 C 48.772311 25.017578 49.40625 25.645961 49.40625 26.390625 L 49.40625 30.257812 C 49.40625 31.002417 48.77219 31.638672 48.027344 31.638672 L 35.580078 31.638672 C 34.835113 31.638671 34.207031 31.002477 34.207031 30.257812 L 34.207031 26.574219 C 34.207031 26.178455 34.373978 25.699857 34.724609 25.400391 C 35.075241 25.100928 35.494238 25.017578 35.861328 25.017578 z M 36.208984 27.017578 L 36.208984 29.638672 L 47.40625 29.638672 L 47.40625 27.017578 L 36.208984 27.017578 z M 12.933594 36.238281 L 25.71875 36.238281 C 26.463715 36.238281 27.091796 36.872523 27.091797 37.617188 L 27.091797 41.486328 C 27.091797 42.230937 26.463594 42.859375 25.71875 42.859375 L 12.652344 42.859375 C 11.907379 42.859375 11.279297 42.232207 11.279297 41.486328 L 11.279297 37.802734 C 11.279297 36.895567 11.835594 36.316311 12.933594 36.238281 z M 32.369141 36.238281 L 48.027344 36.238281 C 48.772311 36.238281 49.40625 36.872523 49.40625 37.617188 L 49.40625 41.486328 C 49.40625 42.230937 48.77219 42.859375 48.027344 42.859375 L 32.089844 42.859375 C 31.344878 42.859375 30.716797 42.230993 30.716797 41.486328 L 30.716797 37.802734 C 30.716797 36.731104 31.124144 36.238281 32.369141 36.238281 z M 13.279297 38.238281 L 13.279297 40.859375 L 25.091797 40.859375 L 25.091797 38.238281 L 13.279297 38.238281 z M 32.716797 38.238281 L 32.716797 40.859375 L 47.40625 40.859375 L 47.40625 38.238281 L 32.716797 38.238281 z M 12.933594 45.988281 L 25.71875 45.988281 C 26.463715 45.988281 27.091796 46.624475 27.091797 47.369141 L 27.091797 51.238281 C 27.091797 51.982886 26.463594 52.611328 25.71875 52.611328 L 12.652344 52.611328 C 11.907379 52.611328 11.279297 51.984156 11.279297 51.238281 L 11.279297 47.554688 C 11.279297 46.596606 11.836079 46.067941 12.933594 45.988281 z M 34.523438 45.988281 L 47.634766 45.988281 C 48.379729 45.988281 49.007812 46.624475 49.007812 47.369141 L 49.007812 51.238281 C 49.007812 51.982886 48.379608 52.611328 47.634766 52.611328 L 34.576172 52.611328 C 33.831207 52.611328 33.197266 51.984156 33.197266 51.238281 L 33.197266 47.554688 C 33.197266 46.387931 33.71233 46.046721 34.523438 45.988281 z M 13.279297 47.990234 L 13.279297 50.609375 L 25.091797 50.609375 L 25.091797 47.990234 L 13.279297 47.990234 z M 35.197266 47.990234 L 35.197266 50.609375 L 47.007812 50.609375 L 47.007812 47.990234 L 35.197266 47.990234 z " transform="scale(.26458)"></path>
</svg>
