<?xml version="1.0" encoding="UTF-8"?>
<svg version="1.1" xmlns="http://www.w3.org/2000/svg" width="100" height="100">
<path d="M0 0 C0.98613281 0.22880859 1.97226563 0.45761719 2.98828125 0.69335938 C4.02082031 0.94021484 5.05335937 1.18707031 6.1171875 1.44140625 C7.15746094 1.68439453 8.19773437 1.92738281 9.26953125 2.17773438 C11.8452609 2.78031333 14.41930962 3.38928484 16.9921875 4.00390625 C17.23816647 5.60521059 17.46018559 7.21020923 17.671875 8.81640625 C17.79804199 9.70972656 17.92420898 10.60304688 18.05419922 11.5234375 C17.9921875 14.00390625 17.9921875 14.00390625 16.77001953 15.703125 C15.1171875 17.00390625 15.1171875 17.00390625 11.9921875 19.00390625 C11.6621875 19.66390625 11.3321875 20.32390625 10.9921875 21.00390625 C11.5490625 21.23078125 12.1059375 21.45765625 12.6796875 21.69140625 C19.28729075 25.44166756 22.69092551 31.49049887 25.2421875 38.37890625 C27.03343876 47.03662068 25.97637218 54.04728965 21.9921875 62.00390625 C17.2687374 69.04722805 10.91306317 74.14811641 2.6796875 76.37890625 C-4.55615283 77.70819407 -11.2577569 76.70843604 -18.0078125 74.00390625 C-20.84414263 74.26775091 -23.49958129 74.87883029 -26.26171875 75.55859375 C-35.65648312 77.70512833 -43.13510997 77.1991742 -51.68359375 72.515625 C-58.89962276 67.8221742 -63.23882813 61.75310545 -65.7578125 53.56640625 C-66.75933796 43.30077026 -65.55101745 34.09424011 -58.89453125 25.828125 C-54.89118271 21.95739256 -49.95163562 19.47581781 -45.0078125 17.00390625 C-46.27625 15.76640625 -46.27625 15.76640625 -47.5703125 14.50390625 C-49.23932646 12.52929819 -49.97399573 11.49744835 -50.15234375 8.89453125 C-49.79805174 6.08073384 -49.28090759 3.55009642 -48.0078125 1.00390625 C-44.07069813 0.85897906 -40.13426625 0.76996088 -36.1953125 0.69140625 C-34.51598633 0.62856445 -34.51598633 0.62856445 -32.80273438 0.56445312 C-31.72958984 0.54833984 -30.65644531 0.53222656 -29.55078125 0.515625 C-28.56102295 0.48944092 -27.57126465 0.46325684 -26.55151367 0.4362793 C-24.0078125 1.00390625 -24.0078125 1.00390625 -22.19262695 3.38208008 C-20.84292991 6.36876802 -20.37874982 7.77996 -21.0078125 11.00390625 C-22.51703145 13.21533124 -24.17338677 15.03189859 -26.0078125 17.00390625 C-23.52052579 18.6302091 -22.25771966 19.02662508 -19.2578125 18.75390625 C-15.49338753 17.88519279 -11.74821966 16.97125293 -8.0078125 16.00390625 C-8.3171875 15.09640625 -8.6265625 14.18890625 -8.9453125 13.25390625 C-9.2959375 12.18140625 -9.6465625 11.10890625 -10.0078125 10.00390625 C-10.2965625 9.34390625 -10.5853125 8.68390625 -10.8828125 8.00390625 C-11.09613077 4.59081396 -9.02499683 2.59742896 -7.0078125 0.00390625 C-4.27989277 -1.36005361 -2.9479479 -0.6946314 0 0 Z M-4.0078125 4.00390625 C-4.3378125 4.66390625 -4.6678125 5.32390625 -5.0078125 6.00390625 C-4.0178125 6.00390625 -3.0278125 6.00390625 -2.0078125 6.00390625 C-2.0078125 5.34390625 -2.0078125 4.68390625 -2.0078125 4.00390625 C-2.6678125 4.00390625 -3.3278125 4.00390625 -4.0078125 4.00390625 Z M-45.0078125 5.00390625 C-45.0078125 5.66390625 -45.0078125 6.32390625 -45.0078125 7.00390625 C-44.0178125 7.00390625 -43.0278125 7.00390625 -42.0078125 7.00390625 C-42.0078125 6.34390625 -42.0078125 5.68390625 -42.0078125 5.00390625 C-42.9978125 5.00390625 -43.9878125 5.00390625 -45.0078125 5.00390625 Z M-38.0078125 5.00390625 C-38.0078125 5.66390625 -38.0078125 6.32390625 -38.0078125 7.00390625 C-36.3578125 7.00390625 -34.7078125 7.00390625 -33.0078125 7.00390625 C-33.3378125 6.34390625 -33.6678125 5.68390625 -34.0078125 5.00390625 C-35.3278125 5.00390625 -36.6478125 5.00390625 -38.0078125 5.00390625 Z M-29.0078125 5.00390625 C-29.0078125 5.66390625 -29.0078125 6.32390625 -29.0078125 7.00390625 C-28.0178125 6.67390625 -27.0278125 6.34390625 -26.0078125 6.00390625 C-26.9978125 5.67390625 -27.9878125 5.34390625 -29.0078125 5.00390625 Z M1.9921875 6.00390625 C2.3221875 6.66390625 2.6521875 7.32390625 2.9921875 8.00390625 C4.3121875 7.67390625 5.6321875 7.34390625 6.9921875 7.00390625 C6.9921875 6.67390625 6.9921875 6.34390625 6.9921875 6.00390625 C5.3421875 6.00390625 3.6921875 6.00390625 1.9921875 6.00390625 Z M10.9921875 7.00390625 C11.3221875 7.99390625 11.6521875 8.98390625 11.9921875 10.00390625 C12.6521875 9.67390625 13.3121875 9.34390625 13.9921875 9.00390625 C13.6621875 8.34390625 13.3321875 7.68390625 12.9921875 7.00390625 C12.3321875 7.00390625 11.6721875 7.00390625 10.9921875 7.00390625 Z M-5.0078125 10.00390625 C-4.0178125 11.48890625 -4.0178125 11.48890625 -3.0078125 13.00390625 C-3.0078125 12.01390625 -3.0078125 11.02390625 -3.0078125 10.00390625 C-3.6678125 10.00390625 -4.3278125 10.00390625 -5.0078125 10.00390625 Z M-43.0078125 11.00390625 C-42.6778125 11.99390625 -42.3478125 12.98390625 -42.0078125 14.00390625 C-42.0078125 13.01390625 -42.0078125 12.02390625 -42.0078125 11.00390625 C-42.3378125 11.00390625 -42.6678125 11.00390625 -43.0078125 11.00390625 Z M-37.0078125 11.00390625 C-36.6778125 12.65390625 -36.3478125 14.30390625 -36.0078125 16.00390625 C-33.82291243 13.32748136 -33.82291243 13.32748136 -34.0078125 11.00390625 C-34.9978125 11.00390625 -35.9878125 11.00390625 -37.0078125 11.00390625 Z M-30.0078125 11.00390625 C-29.6778125 11.99390625 -29.3478125 12.98390625 -29.0078125 14.00390625 C-28.6778125 13.01390625 -28.3478125 12.02390625 -28.0078125 11.00390625 C-28.6678125 11.00390625 -29.3278125 11.00390625 -30.0078125 11.00390625 Z M1.9921875 12.00390625 C1.9921875 13.65390625 1.9921875 15.30390625 1.9921875 17.00390625 C2.9821875 15.68390625 3.9721875 14.36390625 4.9921875 13.00390625 C4.0021875 12.67390625 3.0121875 12.34390625 1.9921875 12.00390625 Z M8.9921875 13.00390625 C9.3221875 13.66390625 9.6521875 14.32390625 9.9921875 15.00390625 C10.3221875 14.34390625 10.6521875 13.68390625 10.9921875 13.00390625 C10.3321875 13.00390625 9.6721875 13.00390625 8.9921875 13.00390625 Z M-30.0078125 21.00390625 C-30.3378125 21.66390625 -30.6678125 22.32390625 -31.0078125 23.00390625 C-30.35554688 23.28363281 -29.70328125 23.56335938 -29.03125 23.8515625 C-22.11128169 27.02576625 -17.25698844 30.38146191 -13.875 37.33203125 C-11.66157147 44.151784 -12.09497911 51.79868331 -15.0078125 58.31640625 C-15.65005015 59.5585117 -16.3073274 60.79369315 -17.0078125 62.00390625 C-16.3478125 62.33390625 -15.6878125 62.66390625 -15.0078125 63.00390625 C-10.24397365 55.46683265 -8.66794114 48.88191568 -10.0078125 40.00390625 C-12.67111402 31.47430183 -17.70200275 26.44115705 -25.3203125 22.12890625 C-27.82971525 20.87519355 -27.82971525 20.87519355 -30.0078125 21.00390625 Z M-11.6953125 21.50390625 C-12.50355469 21.78234375 -13.31179687 22.06078125 -14.14453125 22.34765625 C-14.75941406 22.56421875 -15.37429687 22.78078125 -16.0078125 23.00390625 C-15.3478125 23.66390625 -14.6878125 24.32390625 -14.0078125 25.00390625 C-11.31987357 24.80320985 -11.31987357 24.80320985 -8.3828125 24.12890625 C-6.87847656 23.82339844 -6.87847656 23.82339844 -5.34375 23.51171875 C-4.57289062 23.34414063 -3.80203125 23.1765625 -3.0078125 23.00390625 C-3.3378125 22.01390625 -3.6678125 21.02390625 -4.0078125 20.00390625 C-7.02271807 20.00390625 -8.87645364 20.5234336 -11.6953125 21.50390625 Z M-46.6953125 22.37890625 C-53.4385952 26.0118187 -58.55460225 31.68015167 -61.0703125 38.94140625 C-62.83134437 46.31715661 -62.08314594 53.47006669 -58.3671875 60.12109375 C-54.29099915 65.76684887 -48.72117819 70.13296827 -42.0078125 72.00390625 C-35.61690786 72.49490512 -29.9065139 72.75590263 -24.0078125 70.00390625 C-24.6678125 69.34390625 -25.3278125 68.68390625 -26.0078125 68.00390625 C-26.9978125 68.33390625 -27.9878125 68.66390625 -29.0078125 69.00390625 C-37.1824901 69.68606129 -42.98322694 69.29670854 -50.0078125 65.00390625 C-50.9978125 64.67390625 -51.9878125 64.34390625 -53.0078125 64.00390625 C-54.0078125 62.31640625 -54.0078125 62.31640625 -55.0078125 60.00390625 C-55.5234375 59.11703125 -56.0390625 58.23015625 -56.5703125 57.31640625 C-59.60195148 50.33045555 -59.75100685 43.13368326 -57.0078125 36.00390625 C-54.02218686 30.48294605 -50.6154228 27.23078713 -44.83984375 24.79296875 C-42.73252169 23.95060951 -42.73252169 23.95060951 -40.0078125 22.00390625 C-43.13624019 20.61234566 -43.13624019 20.61234566 -46.6953125 22.37890625 Z M5.9921875 23.00390625 C5.9921875 23.66390625 5.9921875 24.32390625 5.9921875 25.00390625 C7.20573745 25.92879626 8.46479457 26.79440503 9.7421875 27.62890625 C14.80753797 31.33154297 17.08378111 35.16168365 18.51953125 41.234375 C19.63484671 48.51525456 18.14783975 55.1059533 14.33203125 61.3984375 C11.14277007 65.21997204 6.64176855 67.4540459 1.9921875 69.00390625 C-5.67815705 69.64397604 -12.72262555 69.90033891 -19.0078125 65.00390625 C-23.61216296 60.65706979 -26.62743872 56.41842437 -27.34375 49.98828125 C-27.43158179 42.71580891 -26.67419872 37.33824316 -23.0078125 31.00390625 C-23.9978125 31.00390625 -24.9878125 31.00390625 -26.0078125 31.00390625 C-30.14899232 38.15853389 -31.14052826 44.81655728 -30.0078125 53.00390625 C-27.35919401 61.53573926 -22.35382887 66.39629643 -14.8828125 70.87890625 C-7.78348985 73.5271929 0.52637916 73.09532498 7.3671875 70.00390625 C13.92931008 66.19467412 18.46912414 61.33604241 20.9921875 54.12890625 C22.8054443 46.78577933 22.10727122 39.62479892 18.4375 32.96484375 C15.56151134 29.06282671 11.90525512 25.84427966 7.9921875 23.00390625 C7.3321875 23.00390625 6.6721875 23.00390625 5.9921875 23.00390625 Z M-50.8203125 34.00390625 C-55.01006432 38.88732559 -55.35980659 42.9276264 -55.28515625 49.21484375 C-54.74002717 54.69684607 -52.11407271 58.22082307 -48.0078125 61.81640625 C-43.76911962 64.90711981 -41.17577261 66.2783056 -35.8828125 66.19140625 C-34.57957031 66.18173828 -34.57957031 66.18173828 -33.25 66.171875 C-30.971358 66.14365695 -30.971358 66.14365695 -29.0078125 65.00390625 C-29.2965625 64.30265625 -29.5853125 63.60140625 -29.8828125 62.87890625 C-33.73210358 53.04182904 -34.82608902 45.26243279 -32.0078125 35.00390625 C-31.05491593 33.30986791 -30.07420894 31.6288913 -29.0078125 30.00390625 C-29.3378125 29.01390625 -29.6678125 28.02390625 -30.0078125 27.00390625 C-39.11126912 26.56655157 -44.46555672 27.02009384 -50.8203125 34.00390625 Z M-10.0078125 27.00390625 C-10.3378125 27.66390625 -10.6678125 28.32390625 -11.0078125 29.00390625 C-10.26015191 30.9064887 -10.26015191 30.9064887 -9.1328125 33.00390625 C-5.32008342 41.27805789 -5.33151122 49.34437968 -8.0078125 58.00390625 C-9.6328125 61.00390625 -9.6328125 61.00390625 -11.0078125 63.00390625 C-11.0078125 63.66390625 -11.0078125 64.32390625 -11.0078125 65.00390625 C-7.2565189 66.87955305 -3.09258798 66.53020236 0.9921875 66.00390625 C6.65141457 63.73630577 10.49031198 59.88530849 13.9921875 55.00390625 C15.84974157 49.43124404 15.71371295 43.34886398 13.9921875 37.75390625 C10.6288135 33.12926701 6.48601159 28.83518095 0.9921875 27.00390625 C-0.90252066 26.93535675 -2.7994959 26.91910253 -4.6953125 26.94140625 C-5.68917969 26.95042969 -6.68304688 26.95945312 -7.70703125 26.96875 C-8.46628906 26.98035156 -9.22554687 26.99195312 -10.0078125 27.00390625 Z M-21.0078125 35.00390625 C-24.0563697 40.97399743 -25.42715688 46.55825862 -23.328125 53.1328125 C-22.62572129 54.78847838 -21.82572899 56.40215312 -21.0078125 58.00390625 C-20.3478125 58.00390625 -19.6878125 58.00390625 -19.0078125 58.00390625 C-15.9592553 52.03381507 -14.58846812 46.44955388 -16.6875 39.875 C-17.38990371 38.21933412 -18.18989601 36.60565938 -19.0078125 35.00390625 C-19.6678125 35.00390625 -20.3278125 35.00390625 -21.0078125 35.00390625 Z " fill="#FFFFFF" transform="translate(70.0078125,11.99609375)"/>
</svg>
