<?xml version="1.0" encoding="UTF-8"?>
<svg version="1.1" xmlns="http://www.w3.org/2000/svg" width="100" height="100">
<path d="M0 0 C1.10658966 0.00607269 1.10658966 0.00607269 2.23553467 0.01226807 C3.01289978 0.00876343 3.79026489 0.00525879 4.59118652 0.00164795 C7.16803849 -0.00717493 9.74461727 -0.00131833 12.32147217 0.00543213 C14.10744276 0.00408564 15.89341299 0.00214524 17.67938232 -0.00036621 C21.42534876 -0.00331823 25.17121992 0.00098264 28.91717529 0.01031494 C33.7261005 0.02170953 38.53480248 0.01515047 43.34371948 0.00317001 C47.03250825 -0.00404651 50.72124383 -0.00176162 54.41003418 0.0034256 C56.18351264 0.00476267 57.95699587 0.00311237 59.73046875 -0.00153351 C62.20624642 -0.00659536 64.68165927 0.0011065 67.15740967 0.01226807 C67.89513611 0.0082196 68.63286255 0.00417114 69.39294434 0 C74.46794339 0.04252835 74.46794339 0.04252835 76.69647217 2.27105713 C76.95526123 4.30230713 76.95526123 4.30230713 76.96209717 6.77105713 C76.96596436 8.10136963 76.96596436 8.10136963 76.96990967 9.45855713 C76.96217529 10.38668213 76.95444092 11.31480713 76.94647217 12.27105713 C76.95807373 13.66324463 76.95807373 13.66324463 76.96990967 15.08355713 C76.96733154 15.97043213 76.96475342 16.85730713 76.96209717 17.77105713 C76.95984131 18.58574463 76.95758545 19.40043213 76.95526123 20.23980713 C76.69647217 22.27105713 76.69647217 22.27105713 74.69647217 24.27105713 C72.14759092 24.46937229 69.70736996 24.54383975 67.15740967 24.52984619 C66.38004456 24.53335083 65.60267944 24.53685547 64.80175781 24.54046631 C62.22490585 24.54928919 59.64832707 24.54343258 57.07147217 24.53668213 C55.28550158 24.53802862 53.49953134 24.53996902 51.71356201 24.54248047 C47.96759558 24.54543248 44.22172442 24.54113162 40.47576904 24.53179932 C35.66684384 24.52040472 30.85814186 24.52696378 26.04922485 24.53894424 C22.36043608 24.54616077 18.6717005 24.54387588 14.98291016 24.53868866 C13.2094317 24.53735159 11.43594846 24.53900189 9.66247559 24.54364777 C7.18669791 24.54870962 4.71128507 24.54100776 2.23553467 24.52984619 C1.49780823 24.53389465 0.76008179 24.53794312 0 24.54211426 C-5.07499905 24.49958591 -5.07499905 24.49958591 -7.30352783 22.27105713 C-7.56231689 20.23980713 -7.56231689 20.23980713 -7.56915283 17.77105713 C-7.57173096 16.88418213 -7.57430908 15.99730713 -7.57696533 15.08355713 C-7.56536377 13.69136963 -7.56536377 13.69136963 -7.55352783 12.27105713 C-7.56126221 11.34293213 -7.56899658 10.41480713 -7.57696533 9.45855713 C-7.57438721 8.57168213 -7.57180908 7.68480713 -7.56915283 6.77105713 C-7.56689697 5.95636963 -7.56464111 5.14168213 -7.56231689 4.30230713 C-6.97714368 -0.29075055 -3.910345 0.03276858 0 0 Z M3.69647217 11.27105713 C3.69647217 11.93105713 3.69647217 12.59105713 3.69647217 13.27105713 C4.35647217 13.27105713 5.01647217 13.27105713 5.69647217 13.27105713 C5.69647217 12.61105713 5.69647217 11.95105713 5.69647217 11.27105713 C5.03647217 11.27105713 4.37647217 11.27105713 3.69647217 11.27105713 Z M11.69647217 11.27105713 C11.69647217 11.93105713 11.69647217 12.59105713 11.69647217 13.27105713 C12.35647217 13.27105713 13.01647217 13.27105713 13.69647217 13.27105713 C13.69647217 12.61105713 13.69647217 11.95105713 13.69647217 11.27105713 C13.03647217 11.27105713 12.37647217 11.27105713 11.69647217 11.27105713 Z M19.69647217 11.27105713 C19.69647217 11.93105713 19.69647217 12.59105713 19.69647217 13.27105713 C20.35647217 13.27105713 21.01647217 13.27105713 21.69647217 13.27105713 C21.69647217 12.61105713 21.69647217 11.95105713 21.69647217 11.27105713 C21.03647217 11.27105713 20.37647217 11.27105713 19.69647217 11.27105713 Z M27.69647217 11.27105713 C27.69647217 11.93105713 27.69647217 12.59105713 27.69647217 13.27105713 C28.35647217 13.27105713 29.01647217 13.27105713 29.69647217 13.27105713 C29.69647217 12.61105713 29.69647217 11.95105713 29.69647217 11.27105713 C29.03647217 11.27105713 28.37647217 11.27105713 27.69647217 11.27105713 Z M35.69647217 11.27105713 C35.69647217 11.93105713 35.69647217 12.59105713 35.69647217 13.27105713 C36.35647217 13.27105713 37.01647217 13.27105713 37.69647217 13.27105713 C37.69647217 12.61105713 37.69647217 11.95105713 37.69647217 11.27105713 C37.03647217 11.27105713 36.37647217 11.27105713 35.69647217 11.27105713 Z " fill="#FFFFFF" transform="translate(15.30352783203125,67.72894287109375)"/>
<path d="M0 0 C3.46614294 0.18735908 4.73890622 0.7314464 7.1875 3.25 C11.51844591 9.82109035 12.80493453 16.88547224 11.3125 24.625 C9.98765432 29.77116926 7.79351398 34.20648602 4 38 C2.68 38 1.36 38 0 38 C0.42115746 34.63074034 1.41293875 32.08061407 3 29.125 C5.86176228 23.50630189 6.49361081 19.11480966 4.8125 13 C3.36623502 8.62103104 1.45504976 4.89421685 -1 1 C-0.67 0.67 -0.34 0.34 0 0 Z " fill="#FFFFFF" transform="translate(53,7)"/>
<path d="M0 0 C1.32 0 2.64 0 4 0 C4 13.2 4 26.4 4 40 C2.68 40 1.36 40 0 40 C0 26.8 0 13.6 0 0 Z " fill="#FFFFFF" transform="translate(34,24)"/>
<path d="M0 0 C1.32 0 2.64 0 4 0 C4 13.2 4 26.4 4 40 C2.68 40 1.36 40 0 40 C0 26.8 0 13.6 0 0 Z " fill="#FFFFFF" transform="translate(18,24)"/>
<path d="M0 0 C1.75 0.125 1.75 0.125 4 1 C7.62001883 5.24059348 9.2730485 9.42778798 9 15 C7.95015492 19.86454934 6.40332959 24.27254378 3 28 C1.68 27.67 0.36 27.34 -1 27 C-0.45276317 23.62537285 0.0549 21.91765 2 19 C2.76793433 13.11582789 2.35432603 8.95856891 -1 4 C-0.6875 1.6875 -0.6875 1.6875 0 0 Z " fill="#FFFFFF" transform="translate(48,12)"/>
<path d="M0 0 C2.8992226 0.46761655 3.86675182 0.86675182 6 3 C6.265625 5.27734375 6.265625 5.27734375 6.25 7.9375 C6.25515625 8.81277344 6.2603125 9.68804687 6.265625 10.58984375 C6 13 6 13 4 16 C2.35 15.67 0.7 15.34 -1 15 C-0.91621094 14.32453125 -0.83242188 13.6490625 -0.74609375 12.953125 C-0.64425781 12.06109375 -0.54242188 11.1690625 -0.4375 10.25 C-0.33308594 9.36828125 -0.22867188 8.4865625 -0.12109375 7.578125 C-0.00514472 5.10953281 -0.36770652 3.35914543 -1 1 C-0.67 0.67 -0.34 0.34 0 0 Z " fill="#FFFFFF" transform="translate(42,18)"/>
</svg>
