<?xml version="1.0" encoding="UTF-8"?>
<svg version="1.1" xmlns="http://www.w3.org/2000/svg" width="100" height="100">
<path d="M0 0 C1.85270648 -0.00404694 3.70540984 -0.00987436 5.55810547 -0.01739502 C9.43162518 -0.02621658 13.3043119 -0.01346298 17.17773438 0.01464844 C22.12773955 0.04883412 27.07579267 0.02913787 32.02572632 -0.00678635 C35.8486994 -0.02853156 39.67121431 -0.02153827 43.49420166 -0.00601959 C45.31854487 -0.00203461 47.14293051 -0.00686711 48.96722412 -0.02089691 C66.13766267 -0.12398718 66.13766267 -0.12398718 71.93138123 5.26824951 C74.41821749 8.45305305 74.26222439 10.75073356 73.984375 14.640625 C72.10996092 21.52483673 67.65075065 29.14924666 61.91404724 33.45716858 C58.43603398 35.12781676 55.89758706 35.18426593 52.04321289 35.20092773 C51.34986343 35.20779099 50.65651398 35.21465424 49.94215393 35.22172546 C47.66044372 35.23995946 45.37942337 35.23616104 43.09765625 35.23046875 C41.50491615 35.23503231 39.91217803 35.24033841 38.31944275 35.24635315 C34.98477163 35.25527762 31.65034008 35.25286893 28.31567383 35.24291992 C24.0506803 35.23143275 19.78651503 35.25164052 15.52163029 35.28083706 C12.23325889 35.29921882 8.94508524 35.29890269 5.65667534 35.29319954 C4.08465857 35.29304656 2.5126282 35.29907197 0.94066048 35.31149101 C-1.26135476 35.32643705 -3.46184939 35.31569976 -5.66381836 35.29858398 C-6.91448593 35.29841782 -8.1651535 35.29825165 -9.45372009 35.29808044 C-14.79470099 34.51564557 -17.84319939 32.05470551 -21.2109375 27.94921875 C-25.08768038 21.83703601 -27.75453681 16.73060537 -27.9375 9.33203125 C-23.24419852 -1.86632411 -10.1096392 -0.07774855 0 0 Z M-21.875 14.796875 C-16.8155457 25.52913139 -16.8155457 25.52913139 -7.875 30.796875 C-5.89807319 30.90069995 -3.9178439 30.94545349 -1.93823242 30.95800781 C-0.71653854 30.96761536 0.50515533 30.9772229 1.76387024 30.98712158 C3.09908867 30.9919701 4.43430928 30.99624879 5.76953125 31 C7.1409251 31.00575478 8.51231894 31.01151247 9.88371277 31.01727295 C12.75947442 31.02777422 15.6352082 31.03362237 18.51098633 31.03710938 C22.18624012 31.04258771 25.86112224 31.06660482 29.53625965 31.09508133 C32.36993975 31.11375679 35.20353126 31.11891594 38.03726768 31.12044525 C40.04798552 31.12492416 42.05865585 31.14354771 44.06929016 31.16241455 C45.9160157 31.1579129 45.9160157 31.1579129 47.80004883 31.15332031 C48.87909988 31.15696594 49.95815094 31.16061157 51.06990051 31.16436768 C55.78365047 30.59735878 59.08041727 28.98844404 62.20703125 25.421875 C62.77808594 24.555625 63.34914063 23.689375 63.9375 22.796875 C64.52144531 21.930625 65.10539062 21.064375 65.70703125 20.171875 C67.24939153 17.78170398 67.24939153 17.78170398 68.125 14.796875 C38.425 14.796875 8.725 14.796875 -21.875 14.796875 Z " fill="#FFFFFF" transform="translate(26.875,45.203125)"/>
<path d="M0 0 C1.07030457 -0.00717545 1.07030457 -0.00717545 2.16223145 -0.01449585 C3.66498022 -0.0178856 5.16780366 -0.00874758 6.67041016 0.01220703 C8.96294475 0.03899467 11.25058534 0.01243719 13.54296875 -0.01953125 C15.00782324 -0.01622698 16.4726747 -0.00982036 17.9375 0 C18.95801453 -0.01518173 18.95801453 -0.01518173 19.99914551 -0.03067017 C23.81044217 0.0625804 25.37251222 0.58483134 28.35205078 3.0378418 C32.33863644 7.98405885 34.56716269 13.85930083 34.34375 20.2265625 C33.46875 22.6640625 33.46875 22.6640625 31.46875 24.6640625 C29.6472168 24.91802979 29.6472168 24.91802979 27.41796875 24.92285156 C26.58370361 24.92915588 25.74943848 24.93546021 24.88989258 24.94195557 C23.5367395 24.93588287 23.5367395 24.93588287 22.15625 24.9296875 C20.76925903 24.93255768 20.76925903 24.93255768 19.35424805 24.93548584 C17.39729541 24.93684816 15.44033376 24.93314846 13.48339844 24.92480469 C10.4809141 24.91410584 7.47902813 24.92469841 4.4765625 24.9375 C2.57812367 24.93617841 0.67968522 24.93361604 -1.21875 24.9296875 C-2.12085205 24.93373596 -3.0229541 24.93778442 -3.95239258 24.94195557 C-5.20379028 24.93249908 -5.20379028 24.93249908 -6.48046875 24.92285156 C-7.21612061 24.92126038 -7.95177246 24.91966919 -8.7097168 24.91802979 C-10.53125 24.6640625 -10.53125 24.6640625 -12.53125 22.6640625 C-12.81123939 19.84353775 -12.94752428 17.17458297 -12.96875 14.3515625 C-13.00162109 13.59166016 -13.03449219 12.83175781 -13.06835938 12.04882812 C-13.07544922 11.30697266 -13.08253906 10.56511719 -13.08984375 9.80078125 C-13.10329834 9.12748779 -13.11675293 8.45419434 -13.13061523 7.76049805 C-11.24879219 1.17833329 -6.11107895 -0.09091175 0 0 Z " fill="#FFFFFF" transform="translate(34.53125,19.3359375)"/>
<path d="M0 0 C10.56 0 21.12 0 32 0 C32 3.3 32 6.6 32 10 C22.43 10 12.86 10 3 10 C2.01 6.7 1.02 3.4 0 0 Z " fill="#FFFFFF" transform="translate(68,26)"/>
<path d="M0 0 C0.70125 0.00515625 1.4025 0.0103125 2.125 0.015625 C2.82625 0.01046875 3.5275 0.0053125 4.25 0 C6.125 0.265625 6.125 0.265625 8.125 2.265625 C8.390625 4.140625 8.390625 4.140625 8.375 6.265625 C8.38015625 6.966875 8.3853125 7.668125 8.390625 8.390625 C8.125 10.265625 8.125 10.265625 6.125 12.265625 C4.25 12.53125 4.25 12.53125 2.125 12.515625 C1.42375 12.52078125 0.7225 12.5259375 0 12.53125 C-1.875 12.265625 -1.875 12.265625 -3.875 10.265625 C-4.140625 8.390625 -4.140625 8.390625 -4.125 6.265625 C-4.13015625 5.564375 -4.1353125 4.863125 -4.140625 4.140625 C-3.75603481 1.4258707 -2.7147543 0.38459019 0 0 Z " fill="#FFFFFF" transform="translate(77.875,61.734375)"/>
<path d="M0 0 C0.70125 0.00515625 1.4025 0.0103125 2.125 0.015625 C2.82625 0.01046875 3.5275 0.0053125 4.25 0 C6.125 0.265625 6.125 0.265625 8.125 2.265625 C8.390625 4.140625 8.390625 4.140625 8.375 6.265625 C8.38015625 6.966875 8.3853125 7.668125 8.390625 8.390625 C8.125 10.265625 8.125 10.265625 6.125 12.265625 C4.25 12.53125 4.25 12.53125 2.125 12.515625 C1.42375 12.52078125 0.7225 12.5259375 0 12.53125 C-1.875 12.265625 -1.875 12.265625 -3.875 10.265625 C-4.140625 8.390625 -4.140625 8.390625 -4.125 6.265625 C-4.13015625 5.564375 -4.1353125 4.863125 -4.140625 4.140625 C-3.75603481 1.4258707 -2.7147543 0.38459019 0 0 Z " fill="#FFFFFF" transform="translate(57.875,61.734375)"/>
<path d="M0 0 C0.70125 0.00515625 1.4025 0.0103125 2.125 0.015625 C2.82625 0.01046875 3.5275 0.0053125 4.25 0 C6.125 0.265625 6.125 0.265625 8.125 2.265625 C8.390625 4.140625 8.390625 4.140625 8.375 6.265625 C8.38015625 6.966875 8.3853125 7.668125 8.390625 8.390625 C8.125 10.265625 8.125 10.265625 6.125 12.265625 C4.25 12.53125 4.25 12.53125 2.125 12.515625 C1.42375 12.52078125 0.7225 12.5259375 0 12.53125 C-1.875 12.265625 -1.875 12.265625 -3.875 10.265625 C-4.140625 8.390625 -4.140625 8.390625 -4.125 6.265625 C-4.13015625 5.564375 -4.1353125 4.863125 -4.140625 4.140625 C-3.75603481 1.4258707 -2.7147543 0.38459019 0 0 Z " fill="#FFFFFF" transform="translate(37.875,61.734375)"/>
<path d="M0 0 C0.70125 0.00515625 1.4025 0.0103125 2.125 0.015625 C2.82625 0.01046875 3.5275 0.0053125 4.25 0 C6.125 0.265625 6.125 0.265625 8.125 2.265625 C8.390625 4.140625 8.390625 4.140625 8.375 6.265625 C8.38015625 6.966875 8.3853125 7.668125 8.390625 8.390625 C8.125 10.265625 8.125 10.265625 6.125 12.265625 C4.25 12.53125 4.25 12.53125 2.125 12.515625 C1.42375 12.52078125 0.7225 12.5259375 0 12.53125 C-1.875 12.265625 -1.875 12.265625 -3.875 10.265625 C-4.140625 8.390625 -4.140625 8.390625 -4.125 6.265625 C-4.13015625 5.564375 -4.1353125 4.863125 -4.140625 4.140625 C-3.75603481 1.4258707 -2.7147543 0.38459019 0 0 Z " fill="#FFFFFF" transform="translate(17.875,61.734375)"/>
</svg>
