<?xml version="1.0" encoding="UTF-8"?>
<svg version="1.1" xmlns="http://www.w3.org/2000/svg" width="480" height="480">
<path d="M0 0 C3.67491079 0.22045279 6.70075794 0.82416663 10.22651672 1.8528595 C12.10238968 2.39265694 12.10238968 2.39265694 14.01615906 2.94335938 C15.3808395 3.34622297 16.7454722 3.74924833 18.11006165 4.15242004 C19.55453315 4.57169236 20.99925209 4.99011303 22.44419861 5.40774536 C25.5398979 6.30439339 28.63382678 7.20682992 31.72648621 8.11390686 C36.65321982 9.55888696 41.58359784 10.99113713 46.51460266 12.42146301 C52.45848464 14.14649251 58.40147719 15.87452251 64.34327984 17.6067009 C74.21464018 20.48431827 84.09139382 23.34263793 93.9733429 26.18367004 C94.65144579 26.37863445 95.32954868 26.57359886 96.02820015 26.77447128 C99.40993732 27.74664408 102.79178949 28.71841607 106.1736908 29.6900177 C112.32415209 31.457277 118.47342947 33.22864893 124.6228199 34.99962997 C128.01777176 35.97731722 131.41278942 36.9547759 134.80781555 37.9322052 C135.47286763 38.12367441 136.13791971 38.31514362 136.82312489 38.51241493 C143.85345753 40.53637136 150.88410819 42.5592224 157.91474915 44.58210754 C162.42251962 45.87921344 166.93027146 47.17638407 171.43799973 48.47363663 C172.74663438 48.85023926 174.05527136 49.22683382 175.36391068 49.60342026 C193.82406684 54.91576098 212.28178071 60.23652919 230.73769379 65.56359291 C234.10347432 66.53506231 237.46928237 67.50643632 240.83509827 68.4777832 C243.10741761 69.13356751 245.37973613 69.78935467 247.65205383 70.44514465 C248.78500759 70.77211429 249.91796135 71.09908392 251.08524704 71.43596172 C256.79976042 73.08525458 262.51416192 74.73493346 268.22834778 76.38536072 C298.93939076 85.2618995 298.93939076 85.2618995 329.68150711 94.02999306 C331.7729826 94.62209556 333.8642612 95.21488861 335.95549011 95.80786133 C341.96106261 97.51008486 347.96846022 99.20537995 353.97969055 100.88752747 C355.9828463 101.45346558 357.98594356 102.01961074 359.9889679 102.58601379 C360.8730835 102.83033646 361.7571991 103.07465912 362.66810608 103.3263855 C368.55102801 104.9996364 368.55102801 104.9996364 370.7780304 107.22663879 C371.1842804 110.04304504 371.1842804 110.04304504 370.7780304 113.22663879 C368.8717804 115.75398254 368.8717804 115.75398254 366.2780304 118.16413879 C365.4427179 118.95691223 364.6074054 119.74968567 363.7467804 120.56648254 C362.16991468 121.97943722 360.58935319 123.38867741 358.98310852 124.7681427 C353.47861651 129.50140094 348.36891482 134.55403872 343.2780304 139.72663879 C338.2587553 144.8264801 333.21757415 149.77847362 327.78779602 154.43952942 C323.94493849 157.85664763 320.38194352 161.56122544 316.7780304 165.22663879 C311.93162636 170.15574597 307.04805421 174.9163609 301.80537415 179.42195129 C297.95804983 182.8467371 294.38788354 186.55518406 290.7780304 190.22663879 C285.93162636 195.15574597 281.04805421 199.9163609 275.80537415 204.42195129 C271.95804983 207.8467371 268.38788354 211.55518406 264.7780304 215.22663879 C256.35611082 223.79227713 256.35611082 223.79227713 251.8092804 227.69538879 C247.04636525 231.78866636 242.68088913 236.25310817 238.2780304 240.72663879 C233.2587553 245.8264801 228.21757415 250.77847362 222.78779602 255.43952942 C218.94493849 258.85664763 215.38194352 262.56122544 211.7780304 266.22663879 C206.93162636 271.15574597 202.04805421 275.9163609 196.80537415 280.42195129 C192.95804983 283.8467371 189.38788354 287.55518406 185.7780304 291.22663879 C177.35611082 299.79227713 177.35611082 299.79227713 172.8092804 303.69538879 C168.04636525 307.78866636 163.68088913 312.25310817 159.2780304 316.72663879 C154.2587553 321.8264801 149.21757415 326.77847362 143.78779602 331.43952942 C139.94493849 334.85664763 136.38194352 338.56122544 132.7780304 342.22663879 C124.35632609 350.79205819 124.35632609 350.79205819 119.7936554 354.71101379 C115.12495806 358.72266948 110.84219654 363.09056988 106.5280304 367.47663879 C104.96271139 369.06753491 103.39508771 370.65616747 101.8249054 372.24226379 C100.8015509 373.28302063 100.8015509 373.28302063 99.75752258 374.34480286 C94.67689677 379.17478112 94.67689677 379.17478112 90.5280304 379.41413879 C89.6205304 379.35226379 88.7130304 379.29038879 87.7780304 379.22663879 C85.36038719 373.14815545 83.61156213 367.08697229 82.06098938 360.73664856 C81.80622015 359.70998581 81.55145092 358.68332306 81.28896141 357.62554932 C80.44611645 354.22415908 79.61010731 350.82112766 78.77412415 347.41804504 C78.17807728 345.00672336 77.58160745 342.5955062 76.98474121 340.18438721 C75.55230591 334.39332729 74.12424512 328.60120509 72.69820303 322.80856889 C71.04252375 316.08417331 69.38133125 309.36114345 67.71982098 302.63818669 C64.3013516 288.80534181 60.88993082 274.97076679 57.48072815 261.13563538 C55.99545608 255.1082496 54.50902937 249.08114967 53.02168274 243.05427551 C52.81807412 242.22923114 52.6144655 241.40418676 52.40468693 240.55414104 C52.0131022 238.96744254 51.62151134 237.38074554 51.22991371 235.79405022 C48.92627616 226.45962587 46.6238552 217.12490285 44.32466125 207.78938293 C38.32542601 183.43109709 32.30307668 159.07855184 26.2780304 134.72663879 C18.41788707 102.95733312 10.56916335 71.18524428 2.73922253 39.40848064 C2.19744241 37.20974247 1.65562319 35.01101394 1.11380005 32.81228638 C0.46297437 30.17120736 -0.18764215 27.53007712 -0.83813477 24.88891602 C-1.12504684 23.72443436 -1.41195892 22.5599527 -1.70756531 21.36018372 C-1.97018158 20.29278961 -2.23279785 19.22539551 -2.50337219 18.12565613 C-3.1289373 15.60195641 -3.76949907 13.08267385 -4.41410828 10.563797 C-5.1328367 7.59483392 -5.57811823 5.25390211 -5.2219696 2.22663879 C-3.2219696 0.22663879 -3.2219696 0.22663879 0 0 Z M6.7780304 12.22663879 C8.23882751 21.10106459 10.30272707 29.798241 12.4733429 38.51960754 C12.82950227 39.9611294 13.18536243 41.40272522 13.54093933 42.84439087 C14.46844053 46.60149349 15.39994791 50.35759113 16.33235168 54.11347961 C17.2867633 57.96113645 18.23730188 61.80974976 19.18818665 65.65827942 C21.04772223 73.18199639 22.91149979 80.70465377 24.7780304 88.22663879 C29.63296521 84.71959321 34.10317349 81.14298766 38.3092804 76.85554504 C38.78949646 76.37012741 39.26971252 75.88470978 39.76448059 75.38458252 C41.27396497 73.85756847 42.77648677 72.3239583 44.2780304 70.78913879 C46.26410194 68.76612156 48.25348751 66.74644761 50.2467804 64.73054504 C50.72844666 64.24333481 51.21011292 63.75612457 51.70637512 63.25415039 C54.94875533 59.99829855 58.31042147 56.95298625 61.80342102 53.97200012 C65.80765714 50.4326475 69.52055636 46.58639065 73.2780304 42.78913879 C74.10045227 41.9622052 74.92287415 41.13527161 75.7702179 40.28327942 C77.77515152 38.2666892 79.77769293 36.24778643 81.7780304 34.22663879 C79.27668579 31.72529419 77.36803821 31.35567329 73.97065735 30.37898254 C72.75211563 30.02521545 71.53357391 29.67144836 70.27810669 29.30696106 C68.94088128 28.92588131 67.60361523 28.54494413 66.26631165 28.16413879 C64.89572017 27.7687923 63.52529488 27.37286921 62.1550293 26.97639465 C58.54096043 25.93238906 54.92467325 24.89628034 51.30787659 23.86177063 C47.64877208 22.81366467 43.99181716 21.75811599 40.33467102 20.70320129 C32.81805978 18.53640711 25.29896277 16.37839269 17.7780304 14.22663879 C16.57240952 13.85853088 15.36678864 13.49042297 14.12463379 13.11116028 C10.71041654 12.05628568 10.71041654 12.05628568 6.7780304 12.22663879 Z M98.7780304 38.22663879 C102.05334986 53.5226386 105.79067528 68.70064915 109.54255676 83.88563538 C110.362138 87.20466117 111.17934489 90.52427151 111.9967804 93.84382629 C113.58839851 100.30529084 115.18229316 106.76619035 116.7780304 113.22663879 C120.38621938 111.53368988 122.67867342 109.54456035 125.4811554 106.68367004 C126.37963196 105.77423645 127.27810852 104.86480286 128.20381165 103.92781067 C129.1455997 102.96529348 130.08700395 102.0024006 131.0280304 101.03913879 C136.46225535 95.50173236 141.87006586 90.05116795 147.76777649 85.00764465 C151.84666252 81.39391213 155.63341585 77.47307259 159.4655304 73.60163879 C160.29375305 72.76890442 161.12197571 71.93617004 161.97529602 71.07820129 C163.51578274 69.52908094 165.05522967 67.97892526 166.59321594 66.42732239 C168.98213977 64.02104689 171.37991366 61.62374916 173.7780304 59.22663879 C164.29545195 56.4854621 154.8120573 53.74712976 145.32760048 51.0124588 C140.92395045 49.74264871 136.52059116 48.47184842 132.11787415 47.19880676 C127.87160583 45.97104116 123.62460305 44.74584844 119.37707138 43.52246094 C117.7540412 43.05449611 116.13128106 42.5855937 114.50879288 42.11575317 C112.24198033 41.45949995 109.97424369 40.80654132 107.70625305 40.15437317 C107.03083969 39.95800766 106.35542633 39.76164215 105.6595459 39.55932617 C102.27291475 38.55882978 102.27291475 38.55882978 98.7780304 38.22663879 Z M87.0473175 41.85969543 C86.3074762 42.61113831 85.56763489 43.36258118 84.80537415 44.13679504 C83.57850891 45.37526184 83.57850891 45.37526184 82.32685852 46.63874817 C80.61311235 48.37813004 78.89956408 50.11770691 77.18623352 51.85749817 C73.47842372 55.59998741 69.78318675 59.29294587 65.78193665 62.72273254 C60.84670801 66.95496184 56.33785222 71.59772876 51.7780304 76.22663879 C46.41649761 81.66940692 41.08266586 86.99595035 35.1764679 91.85163879 C34.48424133 92.53226379 34.48424133 92.53226379 33.7780304 93.22663879 C33.7780304 93.88663879 33.7780304 94.54663879 33.7780304 95.22663879 C69.9130304 105.62163879 69.9130304 105.62163879 106.7780304 116.22663879 C107.91636624 111.6732954 107.38101106 109.66736254 106.23921204 105.16316223 C106.06379379 104.46032104 105.88837555 103.75747986 105.7076416 103.03334045 C105.12672068 100.71522156 104.53254425 98.40072056 103.93818665 96.08601379 C103.53237227 94.47767979 103.12738963 92.86913572 102.72320557 91.26039124 C101.65796795 87.02996303 100.58145448 82.8024833 99.50257874 78.57551575 C98.40333507 74.26042444 97.31476437 69.94264394 96.22529602 65.62507629 C94.08665219 57.1562599 91.93609029 48.69052822 89.7780304 40.22663879 C88.50266081 40.11225729 88.50266081 40.11225729 87.0473175 41.85969543 Z M189.7780304 64.22663879 C191.23882751 73.10106459 193.30272707 81.798241 195.4733429 90.51960754 C195.82950227 91.9611294 196.18536243 93.40272522 196.54093933 94.84439087 C197.46844053 98.60149349 198.39994791 102.35759113 199.33235168 106.11347961 C200.2867633 109.96113645 201.23730188 113.80974976 202.18818665 117.65827942 C204.04772223 125.18199639 205.91149979 132.70465377 207.7780304 140.22663879 C208.89615788 139.27574318 210.01322083 138.32359573 211.12983704 137.3709259 C212.0631057 136.57578835 212.0631057 136.57578835 213.01522827 135.7645874 C215.92953738 133.22201182 218.58260497 130.44128017 221.27412415 127.66804504 C223.28136396 125.71090794 225.31267017 123.88888745 227.43818665 122.06648254 C232.46902023 117.701969 237.10641792 112.96903328 241.7780304 108.22663879 C246.98817783 102.93754973 252.15782302 97.71834986 257.89131165 92.99226379 C260.45118119 90.59669229 262.56900275 87.94895169 264.7780304 85.22663879 C256.77178367 82.92914857 248.76490359 80.63388374 240.75723648 78.3413496 C237.03778734 77.2764265 233.31854951 76.21077774 229.59980774 75.14338684 C226.0017218 74.11065818 222.4030638 73.07994508 218.80402374 72.05054665 C217.44052407 71.66019189 216.07722162 71.2691475 214.71413422 70.87735558 C206.43832745 68.49922506 198.14799201 66.25013998 189.7780304 64.22663879 Z M177.49653625 68.41047668 C176.49293756 69.42106012 175.49191511 70.4342057 174.49287415 71.44929504 C173.69110497 72.25674416 173.69110497 72.25674416 172.87313843 73.08050537 C170.58090083 75.38907428 168.29441285 77.70330479 166.00776672 80.01741028 C160.38877345 85.6981418 154.80906548 91.32493007 148.72016907 96.50715637 C144.60903143 100.14697314 140.81630579 104.128242 136.9655304 108.03913879 C135.29469738 109.73546125 133.62162069 111.42957752 131.94599915 113.12117004 C131.21663147 113.86213928 130.48726379 114.60310852 129.73579407 115.36653137 C127.7780304 117.22663879 127.7780304 117.22663879 124.7780304 119.22663879 C124.7780304 119.88663879 124.7780304 120.54663879 124.7780304 121.22663879 C160.9130304 131.62163879 160.9130304 131.62163879 197.7780304 142.22663879 C199.03436403 138.4576379 198.19029588 135.90172305 197.23921204 132.18489075 C196.97608467 131.11621765 196.97608467 131.11621765 196.7076416 130.0259552 C196.12557685 127.67027676 195.53194469 125.31767582 194.93818665 122.96492004 C194.53247867 121.33270708 194.12749425 119.70031411 193.72320557 118.06774902 C192.65689441 113.77021097 191.58075578 109.47519244 190.50257874 105.18061829 C189.40422561 100.79834426 188.3151478 96.41376762 187.22529602 92.02937317 C185.08529872 83.42617771 182.93491624 74.82561447 180.7780304 66.22663879 C179.37205986 66.11139261 179.37205986 66.11139261 177.49653625 68.41047668 Z M280.7780304 90.22663879 C283.92032975 104.82027302 287.40485347 119.32758361 290.95137024 133.82771301 C291.75546036 137.11676837 292.55099433 140.40783671 293.34489632 143.69936371 C294.11075913 146.86620023 294.88648002 150.03062184 295.6608429 153.19538879 C295.94420502 154.37540466 296.22756714 155.55542053 296.51951599 156.77119446 C296.78674469 157.85412781 297.05397339 158.93706116 297.32929993 160.05281067 C297.56150238 161.00667664 297.79370483 161.9605426 298.03294373 162.9433136 C298.64121156 165.39172988 298.64121156 165.39172988 300.7780304 167.22663879 C301.34199524 166.65743713 301.90596008 166.08823547 302.48701477 165.50178528 C305.08129808 162.88652035 307.67962963 160.2753126 310.2780304 157.66413879 C311.1649054 156.76888489 312.0517804 155.87363098 312.9655304 154.95124817 C317.43870987 150.46162318 321.96169392 146.13608698 326.77217102 142.01203918 C330.78754273 138.43798693 334.50877432 134.55639657 338.2780304 130.72663879 C343.44547803 125.47624657 348.61518662 120.35413723 354.26435852 115.61921692 C355.89898996 114.28092618 355.89898996 114.28092618 356.7780304 112.22663879 C331.66339547 104.15270314 306.19497109 97.2719211 280.7780304 90.22663879 Z M267.52412415 96.16413879 C266.84212952 96.80423889 266.16013489 97.44433899 265.45747375 98.10383606 C264.71763245 98.80436096 263.97779114 99.50488586 263.2155304 100.22663879 C262.45699768 100.94198792 261.69846497 101.65733704 260.91694641 102.3943634 C254.93558039 108.0635612 249.08023982 113.84969878 243.30903625 119.73249817 C239.60078084 123.49220949 235.76896064 127.01310493 231.77046204 130.46125793 C228.466348 133.3888463 225.37675182 136.52219486 222.2780304 139.66413879 C221.33056946 140.61836731 221.33056946 140.61836731 220.3639679 141.59187317 C218.83297266 143.13446685 217.30515373 144.68021194 215.7780304 146.22663879 C218.43746127 148.88606967 220.77860537 149.25944696 224.39912415 150.28962708 C225.07895355 150.48499054 225.75878296 150.680354 226.45921326 150.88163757 C228.70953764 151.52650722 230.96243154 152.16184953 233.2155304 152.79695129 C234.77744063 153.24199739 236.33920646 153.68755059 237.90083313 154.1335907 C241.17484373 155.06725943 244.45005614 155.99654138 247.72627258 156.92243958 C251.93160311 158.11102203 256.13458425 159.30766385 260.33679199 160.50723457 C263.56169229 161.42737095 266.78740391 162.3446332 270.01341248 163.2608757 C271.56376718 163.70129243 273.11395886 164.14228342 274.66398621 164.58385086 C276.82754384 165.19943424 278.99206968 165.81147919 281.15693665 166.42243958 C282.39000549 166.77170502 283.62307434 167.12097046 284.89350891 167.4808197 C287.60418738 168.31008108 287.60418738 168.31008108 289.7780304 168.22663879 C288.3337659 159.41653939 286.2708243 150.80306487 284.0827179 142.15242004 C283.72654146 140.73332386 283.37068163 139.31414818 283.01512146 137.89489746 C282.08779243 134.19692292 281.15622575 130.50002926 280.22370911 126.80335999 C279.26915369 123.01607202 278.31869736 119.22775575 277.36787415 115.43952942 C275.50855604 108.03423207 273.64475055 100.63007413 271.7780304 93.22663879 C269.94940775 93.22663879 268.79367851 94.97149126 267.52412415 96.16413879 Z M28.7780304 103.22663879 C30.81046411 111.64245117 32.84465437 120.05783653 34.88101673 128.47269917 C35.82678098 132.3811167 36.7719659 136.28967234 37.71577454 140.19856262 C38.62860179 143.97904271 39.54301909 147.7591351 40.45848656 151.53897667 C40.80545538 152.97274085 41.15187512 154.40663804 41.49770546 155.84067726 C43.46697574 164.00481288 45.50592246 172.14062906 47.7780304 180.22663879 C52.01716741 176.67960578 56.00611735 173.04278564 59.87397766 169.0974884 C61.67015069 167.33263728 63.52041753 165.69714705 65.43818665 164.06648254 C70.11082006 160.0047493 74.43932547 155.63938305 78.7780304 151.22663879 C83.70395835 146.21665063 88.66696163 141.36115102 93.9967804 136.78083801 C96.36199444 134.71711095 98.57628522 132.52528623 100.7780304 130.28913879 C101.9227179 129.13091614 101.9227179 129.13091614 103.0905304 127.94929504 C103.6474054 127.38081848 104.2042804 126.81234192 104.7780304 126.22663879 C103.93403191 123.96982936 103.93403191 123.96982936 101.34680176 123.32296753 C100.26602859 123.0166893 99.18525543 122.71041107 98.07173157 122.39485168 C96.84923203 122.04431229 95.62673248 121.69377289 94.3671875 121.33261108 C93.01851933 120.95462036 91.6697882 120.57685421 90.32099915 120.19929504 C88.9385194 119.80641214 87.55622305 119.41288344 86.17410278 119.01873779 C83.26582124 118.19108271 80.35615171 117.36857611 77.44526672 116.55012512 C73.74638551 115.51009814 70.04991322 114.46183047 66.35433483 113.41013432 C62.80233642 112.39959906 59.24924897 111.39291977 55.69599915 110.38679504 C55.03189718 110.19850695 54.36779522 110.01021885 53.68356895 109.81622505 C45.41480402 107.47551823 37.12931819 105.2542653 28.7780304 103.22663879 Z M121.7780304 130.22663879 C123.22229489 139.0367382 125.28523649 147.65021272 127.4733429 156.30085754 C127.82951933 157.71995373 128.18537917 159.13912941 128.54093933 160.55838013 C129.46826836 164.25635467 130.39983504 167.95324833 131.33235168 171.6499176 C132.28690711 175.43720556 133.23736343 179.22552184 134.18818665 183.01374817 C136.04750475 190.41904552 137.91131024 197.82320346 139.7780304 205.22663879 C140.88915793 204.27603354 142.00002925 203.32512879 143.11079407 202.37409973 C143.72943832 201.84459717 144.34808258 201.3150946 144.98547363 200.76954651 C153.83105655 193.15588629 162.10130546 185.00024967 170.28315735 176.68464661 C174.36162695 172.55861071 178.5268653 168.63433666 182.92549133 164.85212708 C185.66448072 162.44883354 188.22596152 159.88793569 190.7780304 157.28913879 C191.26658508 156.79607239 191.75513977 156.30300598 192.25849915 155.79499817 C193.43406564 154.60790651 194.60641866 153.41763381 195.7780304 152.22663879 C194.90976426 149.91641355 194.90976426 149.91641355 192.02049255 149.22685242 C190.17208267 148.70056747 190.17208267 148.70056747 188.28633118 148.16365051 C187.60825409 147.96828705 186.930177 147.77292358 186.23155212 147.57164001 C183.98095801 146.92542794 181.72729502 146.29071764 179.4733429 145.65632629 C177.91237694 145.21135742 176.35157769 144.76580338 174.79093933 144.31968689 C171.51538563 143.38515702 168.23837573 142.45598311 164.9601593 141.53083801 C160.7554958 140.34405258 156.55388016 139.14688534 152.35321236 137.94604301 C149.12854194 137.02494162 145.90270801 136.10797514 142.67646408 135.19240189 C141.12682423 134.75237793 139.57745803 134.3113891 138.0283699 133.86942673 C135.86285986 133.25256616 133.69593927 132.64094646 131.52851868 132.03083801 C130.29465424 131.68157257 129.06078979 131.33230713 127.78953552 130.97245789 C124.80977344 130.10644172 124.80977344 130.10644172 121.7780304 130.22663879 Z M108.6764679 135.16804504 C107.42736633 136.46548645 107.42736633 136.46548645 106.1530304 137.78913879 C103.21217045 140.83668608 100.25030367 143.71484396 97.0358429 146.47273254 C92.20640391 150.65168264 87.75565255 155.1771447 83.2780304 159.72663879 C78.18854274 164.89781967 73.07844521 169.93893783 67.57295227 174.66755676 C65.04090958 176.86690723 62.65896844 179.17657219 60.2780304 181.53913879 C58.99412415 182.80177551 58.99412415 182.80177551 57.6842804 184.08992004 C55.55612456 185.99813145 55.55612456 185.99813145 55.7780304 188.22663879 C64.2269842 190.6726536 72.67680257 193.11565269 81.12771511 195.55489159 C85.05251146 196.68783033 88.97701135 197.82177419 92.90083313 198.95808411 C96.69323123 200.0562934 100.48640858 201.15177225 104.28012276 202.24542618 C105.72153901 202.66146438 107.16268017 203.07845699 108.60352898 203.49645615 C115.9531977 205.62797714 123.27799783 207.68538753 130.7780304 209.22663879 C129.42414638 200.02012004 127.37156255 191.06818685 125.0827179 182.05476379 C124.72643732 180.6371231 124.37057961 179.21937607 124.01512146 177.80152893 C123.08884265 174.11151866 122.15691563 170.42295884 121.22370911 166.73469543 C120.26827492 162.95424163 119.31832182 159.17241122 118.36787415 155.39070129 C116.50988322 148.00134058 114.64590901 140.61350706 112.7780304 133.22663879 C110.54603548 133.00045093 110.54603548 133.00045093 108.6764679 135.16804504 Z M212.7780304 156.22663879 C213.35787458 161.42914648 214.18885389 166.3784016 215.45210266 171.46882629 C215.61805939 172.14299088 215.78401611 172.81715546 215.95500183 173.51174927 C216.4971405 175.7094788 217.04571987 177.90554334 217.59443665 180.10163879 C217.97455297 181.63710264 218.35426152 183.17266749 218.73358154 184.70832825 C219.72741175 188.72714539 220.72673518 192.74457641 221.72724915 196.76173401 C222.74948166 200.87029892 223.76645731 204.98016435 224.78388977 209.08992004 C226.77682403 217.13676751 228.77556944 225.18215678 230.7780304 233.22663879 C235.71744098 229.01834996 240.5476842 224.73150982 245.2780304 220.28913879 C246.30863586 219.32330872 246.30863586 219.32330872 247.36006165 218.33796692 C252.91545633 213.10248985 258.3151442 207.72454394 263.68525696 202.30012512 C267.26587452 198.69606418 270.91623685 195.26605678 274.7936554 191.98054504 C277.54548609 189.54831673 280.16496104 186.99398413 282.7780304 184.41413879 C283.5190802 183.69242493 283.5190802 183.69242493 284.27510071 182.95613098 C285.48280628 181.7518491 286.63558049 180.49299412 287.7780304 179.22663879 C287.7780304 178.56663879 287.7780304 177.90663879 287.7780304 177.22663879 C279.77178367 174.92914857 271.76490359 172.63388374 263.75723648 170.3413496 C260.03778734 169.2764265 256.31854951 168.21077774 252.59980774 167.14338684 C249.0017218 166.11065818 245.4030638 165.07994508 241.80402374 164.05054665 C240.44052407 163.66019189 239.07722162 163.2691475 237.71413422 162.87735558 C229.43832745 160.49922506 221.14799201 158.25013998 212.7780304 156.22663879 Z M201.7780304 159.22663879 C201.0045929 160.01167786 200.2311554 160.79671692 199.4342804 161.60554504 C198.38233656 162.66688124 197.33024519 163.72807123 196.2780304 164.78913879 C195.7727179 165.3028302 195.2674054 165.81652161 194.7467804 166.34577942 C191.92252961 169.18768177 189.03883774 171.89573971 185.9967804 174.50398254 C181.00226277 178.82400131 176.40984267 183.52464755 171.7780304 188.22663879 C166.49638931 193.58830475 161.20818939 198.83856673 155.49287415 203.73884583 C153.3232377 205.62121548 151.29057905 207.61565177 149.2780304 209.66413879 C148.27256165 210.6831427 148.27256165 210.6831427 147.2467804 211.72273254 C146.7620929 212.21902161 146.2774054 212.71531067 145.7780304 213.22663879 C149.22717549 215.12971426 152.74207652 216.19264471 156.51850891 217.28962708 C157.18727051 217.48499054 157.8560321 217.680354 158.5450592 217.88163757 C160.74790399 218.5239794 162.95233935 219.16065258 165.15693665 219.79695129 C166.69109461 220.24227476 168.22518692 220.68782449 169.75921631 221.1335907 C172.97040807 222.06573958 176.18239847 222.99507054 179.39497375 223.92243958 C183.51471879 225.11193625 187.63236377 226.30852542 191.74943638 227.50723457 C194.91497911 228.42803567 198.0816147 229.34503 201.24859428 230.2608757 C202.76760665 230.7006617 204.28627187 231.14164859 205.8045826 231.58385086 C207.92427169 232.20059497 210.04537956 232.8121912 212.16694641 233.42243958 C213.37399734 233.77170502 214.58104828 234.12097046 215.82467651 234.4808197 C218.75513294 235.34906195 218.75513294 235.34906195 221.7780304 235.22663879 C219.86789808 225.30248033 217.71362115 215.4815048 215.27412415 205.67195129 C214.94683917 204.3505856 214.61961574 203.02920466 214.29244995 201.70780945 C213.61512013 198.97630888 212.93488559 196.2455506 212.25288391 193.51521301 C211.37850627 190.01234197 210.51511756 186.50685542 209.65412807 183.00067329 C208.98625612 180.28849513 208.31103747 177.57818662 207.63369942 174.86835861 C207.15557965 172.94788131 206.6850668 171.02551539 206.21466064 169.10313416 C205.9241835 167.95037994 205.63370636 166.79762573 205.33442688 165.60993958 C205.08144333 164.5915097 204.82845978 163.57307983 204.56781006 162.52378845 C204.01897445 160.05526484 204.01897445 160.05526484 201.7780304 159.22663879 Z M52.7780304 197.22663879 C53.49053892 205.04369737 55.43094199 212.55468771 57.30537415 220.15632629 C57.65806954 221.59737023 58.01056979 223.03846195 58.36288452 224.479599 C59.09865544 227.48427026 59.83794379 230.48804969 60.57954407 233.49128723 C61.53016019 237.34292327 62.47005089 241.19708846 63.40715694 245.05203056 C64.13055967 248.02143985 64.86047654 250.98921857 65.59230232 253.95656204 C65.94179915 255.37780846 66.28904434 256.79961053 66.63400078 258.22196579 C67.11526231 260.20288258 67.60644121 262.1813821 68.09809875 264.15974426 C68.37487961 265.28589142 68.65166046 266.41203857 68.93682861 267.5723114 C69.59229707 270.3478675 69.59229707 270.3478675 71.7780304 272.22663879 C72.34199524 271.65743713 72.90596008 271.08823547 73.48701477 270.50178528 C76.08129808 267.88652035 78.67962963 265.2753126 81.2780304 262.66413879 C82.1649054 261.76888489 83.0517804 260.87363098 83.9655304 259.95124817 C88.43870987 255.46162318 92.96169392 251.13608698 97.77217102 247.01203918 C101.78754273 243.43798693 105.50877432 239.55639657 109.2780304 235.72663879 C114.92648615 229.98751762 120.6264449 224.4279104 126.7780304 219.22663879 C124.2872686 216.735877 122.39862591 216.35902305 119.01826477 215.37898254 C117.20497681 214.84833191 117.20497681 214.84833191 115.35505676 214.30696106 C114.0273724 213.92576099 112.6996116 213.54482704 111.3717804 213.16413879 C110.00840867 212.76867601 108.64516995 212.37275439 107.28205872 211.97639465 C104.41828052 211.145212 101.55325077 210.31854001 98.68721008 209.49519348 C95.03837043 208.44675066 91.39231187 207.38901018 87.74710846 206.32800293 C84.92707859 205.50801619 82.10583912 204.69225794 79.28421021 203.87779236 C77.9412717 203.489791 76.59864258 203.10071699 75.25634766 202.710495 C67.8121732 200.54982784 60.41669778 198.56741848 52.7780304 197.22663879 Z M144.7780304 223.22663879 C146.22229489 232.0367382 148.28523649 240.65021272 150.4733429 249.30085754 C150.82951933 250.71995373 151.18537917 252.13912941 151.54093933 253.55838013 C152.46826836 257.25635467 153.39983504 260.95324833 154.33235168 264.6499176 C155.28690711 268.43720556 156.23736343 272.22552184 157.18818665 276.01374817 C159.04750475 283.41904552 160.91131024 290.82320346 162.7780304 298.22663879 C166.68450764 295.96318224 169.62859426 293.59941101 172.79756165 290.36726379 C173.49095894 289.66606415 173.49095894 289.66606415 174.19836426 288.95069885 C175.66730962 287.46407027 177.12937426 285.97092059 178.5905304 284.47663879 C184.17325387 278.78650137 189.73892919 273.15472346 195.80561829 267.97419739 C199.75047033 264.47905554 203.39605206 260.66983467 207.0905304 256.91413879 C208.66760794 255.31156283 210.24693636 253.71119793 211.82881165 252.11335754 C212.86002136 251.06474548 212.86002136 251.06474548 213.9120636 249.99494934 C215.7780304 248.22663879 215.7780304 248.22663879 218.7780304 246.22663879 C218.7780304 245.56663879 218.7780304 244.90663879 218.7780304 244.22663879 C209.27773075 241.48702384 199.77702403 238.74882572 190.27578831 236.0124588 C185.86446741 234.74194452 181.4532907 233.47093413 177.04243469 232.19880676 C172.7893535 230.97220242 168.53590515 229.74687928 164.28219414 228.52246094 C162.65568205 228.0540268 161.02930503 227.5851234 159.40306282 227.11575317 C157.13330202 226.46073396 154.86307583 225.80735311 152.59272766 225.15437317 C151.91371902 224.95800766 151.23471039 224.76164215 150.53512573 224.55932617 C147.70188009 223.62103891 147.70188009 223.62103891 144.7780304 223.22663879 Z M133.7780304 225.22663879 C126.03152875 231.85796282 118.8830951 239.04907537 111.73188782 246.30989075 C107.55156541 250.53503772 103.30359305 254.57185375 98.7960968 258.44441223 C94.97316837 261.82057695 91.38488577 265.43540894 87.7780304 269.03913879 C86.61594055 270.1828595 86.61594055 270.1828595 85.43037415 271.34968567 C84.69947571 272.07865051 83.96857727 272.80761536 83.2155304 273.55867004 C82.2235968 274.54444031 82.2235968 274.54444031 81.21162415 275.55012512 C79.56139783 277.11233335 79.56139783 277.11233335 79.7780304 279.22663879 C88.70359754 281.84061943 97.63082569 284.44882537 106.56023026 287.04966736 C110.70642008 288.25751297 114.8520094 289.46734238 118.99629211 290.68171692 C122.99549257 291.85349954 126.99618337 293.02005585 130.99796295 294.18299866 C132.52472464 294.62768111 134.05093919 295.0742465 135.57659149 295.52272034 C137.71295948 296.15036891 139.85117177 296.77130477 141.98994446 297.39070129 C143.2068396 297.74599915 144.42373474 298.101297 145.67750549 298.46736145 C148.89354031 299.38521108 148.89354031 299.38521108 152.7780304 299.22663879 C152.06404639 291.39900453 150.1238655 283.87490134 148.25068665 276.26179504 C147.89802522 274.8183471 147.54552437 273.37485991 147.19317627 271.93133545 C146.45747357 268.92245204 145.71814022 265.91448796 144.97651672 262.90705872 C144.0250975 259.04654143 143.08552741 255.18324532 142.14890385 251.31911564 C141.42624363 248.34527425 140.69609304 245.37331058 139.96375847 242.4018383 C139.61385143 240.97707355 139.26661013 239.55165143 138.92206001 238.12558174 C138.44185807 236.14181188 137.95020062 234.16082542 137.45796204 232.18000793 C137.18118118 231.05164017 136.90440033 229.9232724 136.61923218 228.76071167 C136.34163559 227.92446762 136.064039 227.08822357 135.7780304 226.22663879 C135.1180304 225.89663879 134.4580304 225.56663879 133.7780304 225.22663879 Z M74.7780304 287.22663879 C76.24329625 296.06892695 78.26680666 304.75039147 80.4030304 313.44929504 C80.75418599 314.88607834 81.10525869 316.3228819 81.45625305 317.75970459 C82.18678775 320.74625974 82.920054 323.73212906 83.65498352 326.71760559 C84.59686572 330.5458216 85.52905716 334.37632844 86.45896912 338.20746708 C87.17818505 341.16397477 87.90379663 344.11888481 88.63124084 347.07337761 C88.97801548 348.48623505 89.3224728 349.89966334 89.66456604 351.31366158 C90.1409799 353.2798654 90.62723462 355.24367697 91.1139679 357.20735168 C91.52461487 358.8829995 91.52461487 358.8829995 91.94355774 360.59249878 C92.59475321 363.3503913 92.59475321 363.3503913 94.7780304 365.22663879 C95.22082336 364.77860901 95.66361633 364.33057922 96.11982727 363.86897278 C98.16979723 361.79793783 100.22388472 359.73103182 102.2780304 357.66413879 C102.97412415 356.95966614 103.6702179 356.25519348 104.3874054 355.52937317 C107.74822607 352.15299314 111.13296892 348.86741428 114.7467804 345.76179504 C119.32830604 341.81602928 123.54100844 337.53596487 127.7780304 333.22663879 C132.72409733 328.19616799 137.70746571 323.31755375 143.0592804 318.71833801 C145.05208965 316.98878339 146.93179237 315.17384011 148.7780304 313.28913879 C149.3555304 312.70261536 149.9330304 312.11609192 150.5280304 311.51179504 C150.9405304 311.08769348 151.3530304 310.66359192 151.7780304 310.22663879 C148.53313283 308.06337375 145.4512849 307.11592152 141.75215149 306.07185364 C141.04130905 305.8667366 140.33046661 305.66161957 139.5980835 305.45028687 C137.2506331 304.77431898 134.90111266 304.10587287 132.5514679 303.43757629 C130.92135264 302.97002965 129.29135947 302.50205719 127.66148376 302.03367615 C124.24778127 301.05380807 120.83313122 300.07734272 117.41767883 299.10359192 C113.03007334 297.85265499 108.64412823 296.5960175 104.25877953 295.33719444 C100.08604495 294.13961555 95.91255625 292.94467573 91.7389679 291.75007629 C90.93785961 291.52057659 90.13675133 291.29107689 89.31136703 291.05462265 C87.05636327 290.40917343 84.80083851 289.76558196 82.54512024 289.12263489 C81.87082474 288.92941147 81.19652924 288.73618805 80.50180054 288.53710938 C77.68419964 287.61390172 77.68419964 287.61390172 74.7780304 287.22663879 Z " fill="#000000" transform="translate(61.22196960449219,58.77336120605469)"/>
</svg>
