<?xml version="1.0" encoding="UTF-8"?>
<svg version="1.1" xmlns="http://www.w3.org/2000/svg" width="96" height="96">
<path d="M0 0 C4.40776283 0.23313787 6.36296905 1.91300085 9.3125 5.0625 C10.00988281 5.79597656 10.70726562 6.52945312 11.42578125 7.28515625 C12.20501953 8.13400391 12.20501953 8.13400391 13 9 C13.33 7.35 13.66 5.7 14 4 C25.88 4 37.76 4 50 4 C50 13 50 13 48.62304688 15.49047852 C47.99462891 16.11365967 47.36621094 16.73684082 46.71875 17.37890625 C46.04199219 18.07177734 45.36523438 18.76464844 44.66796875 19.47851562 C43.95253906 20.16623047 43.23710938 20.85394531 42.5 21.5625 C41.78457031 22.28501953 41.06914063 23.00753906 40.33203125 23.75195312 C38.57353199 25.52217571 36.79728459 27.26931691 35 29 C36.31595441 31.94648117 37.69264087 33.89142533 40.07421875 36.05859375 C40.65880859 36.60966797 41.24339844 37.16074219 41.84570312 37.72851562 C43.07794272 38.87189807 44.31762926 40.00730471 45.56445312 41.13476562 C49.92165005 45.27918046 49.92165005 45.27918046 50.2734375 48.515625 C48.43305153 52.10607124 45.8565672 54.5669088 42.9375 57.3125 C42.36966797 57.86228516 41.80183594 58.41207031 41.21679688 58.97851562 C39.82009075 60.32827365 38.41121163 61.66541525 37 63 C39.31 63.66 41.62 64.32 44 65 C40.92482916 76.52164009 40.92482916 76.52164009 39 82 C40.485 82.495 40.485 82.495 42 83 C41.505 84.485 41.505 84.485 41 86 C38.36 86 35.72 86 33 86 C31.71502463 82.14507389 32.5947791 80.59653164 33.9375 76.8125 C34.31777344 75.72582031 34.69804688 74.63914062 35.08984375 73.51953125 C35.54037109 72.27236328 35.54037109 72.27236328 36 71 C33.69 70.67 31.38 70.34 29 70 C28.86722656 70.61488281 28.73445313 71.22976562 28.59765625 71.86328125 C28.42105469 72.67152344 28.24445313 73.47976562 28.0625 74.3125 C27.88847656 75.11300781 27.71445313 75.91351563 27.53515625 76.73828125 C27 79 27 79 26 82 C27.485 82.495 27.485 82.495 29 83 C28.505 84.485 28.505 84.485 28 86 C25.36 86 22.72 86 20 86 C20.3916035 80.04492601 21.37124595 75.37180176 24 70 C21.36 70 18.72 70 16 70 C15.86722656 70.61488281 15.73445313 71.22976562 15.59765625 71.86328125 C15.42105469 72.67152344 15.24445312 73.47976562 15.0625 74.3125 C14.88847656 75.11300781 14.71445312 75.91351563 14.53515625 76.73828125 C14 79 14 79 13 82 C13.99 82 14.98 82 16 82 C16 83.32 16 84.64 16 86 C13.03 86 10.06 86 7 86 C7.42784484 81.93547402 7.91056701 78.30512432 9.0625 74.375 C9.98152337 71.06651588 10.08110814 68.4065418 10 65 C11 64 11 64 14.0625 63.9375 C15.031875 63.958125 16.00125 63.97875 17 64 C17 64.66 17 65.32 17 66 C17.66 65.67 18.32 65.34 19 65 C22.87560101 63.708133 25.91904884 63.86619832 30 64 C30.66 64 31.32 64 32 64 C32.06058594 63.28457031 32.12117188 62.56914063 32.18359375 61.83203125 C33.27391255 58.0498249 35.22618664 56.38020256 38.0625 53.6875 C38.98160156 52.80449219 39.90070313 51.92148437 40.84765625 51.01171875 C41.55792969 50.34785156 42.26820312 49.68398438 43 49 C41.41332422 45.09714233 38.86649519 42.66479018 35.875 39.75 C34.96492188 38.85796875 34.05484375 37.9659375 33.1171875 37.046875 C32.41851562 36.37140625 31.71984375 35.6959375 31 35 C27.43905972 36.49749315 25.31635382 38.53728358 22.69921875 41.3515625 C21.88646484 42.20234375 21.07371094 43.053125 20.23632812 43.9296875 C18.53871471 45.7248649 16.85114246 47.52959184 15.17382812 49.34375 C9.03444014 55.72057288 9.03444014 55.72057288 5.83447266 56.58496094 C3.89453125 56.5859375 3.89453125 56.5859375 1 56 C0.34 58.31 -0.32 60.62 -1 63 C0.65 63.33 2.3 63.66 4 64 C3.48914188 70.43681228 2.27057103 75.95942424 0 82 C0.66 82 1.32 82 2 82 C2 83.32 2 84.64 2 86 C1.01 86.33 0.02 86.66 -1 87 C0.32 87.66 1.64 88.32 3 89 C3.66 88.34 4.32 87.68 5 87 C6.32 87 7.64 87 9 87 C8.654156 90.11259604 8.12620033 91.82872813 6.25 94.375 C4 96 4 96 1.81640625 96.04296875 C-2.53772898 94.43054974 -5.15864285 91.26025579 -8.3125 87.9375 C-8.95767578 87.27427734 -9.60285156 86.61105469 -10.26757812 85.92773438 C-11.85447018 84.29382329 -13.43126328 82.65131853 -15 81 C-17.9027642 82.29414904 -19.00652173 83.00855977 -21 85.625 C-24.56503832 88.447322 -25.76450049 88.26139044 -30.1875 88.1484375 C-31.27417969 88.12700684 -32.36085938 88.10557617 -33.48046875 88.08349609 C-34.31191406 88.05594238 -35.14335938 88.02838867 -36 88 C-35.98316162 87.16863525 -35.96632324 86.33727051 -35.94897461 85.48071289 C-35.90741515 82.3541795 -35.90687186 79.23089448 -35.93286133 76.10424805 C-35.93740905 74.10253225 -35.89592799 72.10088097 -35.85351562 70.09960938 C-35.84714255 62.66890191 -35.84714255 62.66890191 -39.10986328 56.22607422 C-41.56178139 53.85679595 -41.56178139 53.85679595 -44.16625977 51.92749023 C-46 50 -46 50 -46.02319336 47.48071289 C-44.80803323 44.53458022 -43.47540126 43.41340065 -41 41.4375 C-37.51153526 38.1234585 -36.3982615 35.99152935 -36 31.1875 C-35.96059636 29.12537643 -35.96128655 27.06213664 -36 25 C-35.98839844 23.93910156 -35.97679687 22.87820312 -35.96484375 21.78515625 C-35.94144694 19.1881105 -35.95399747 16.59658718 -36 14 C-37.98 14 -39.96 14 -42 14 C-42 10.7 -42 7.4 -42 4 C-29.33333333 4 -16.66666667 4 -4 4 C-3.38125 3.319375 -2.7625 2.63875 -2.125 1.9375 C-1.073125 0.9784375 -1.073125 0.9784375 0 0 Z M-6.16333008 11.30786133 C-11.96417322 17.6061139 -10.85630067 25.61544091 -10.55908203 33.66577148 C-10.41159338 36.44862745 -10.22863683 39.22278205 -10 42 C-4.56266318 37.40028745 0.72176998 32.66174342 5.9375 27.8125 C6.71673828 27.10158203 7.49597656 26.39066406 8.29882812 25.65820312 C9.03423828 24.97306641 9.76964844 24.28792969 10.52734375 23.58203125 C11.19499756 22.96561768 11.86265137 22.3492041 12.55053711 21.71411133 C14.32284922 19.99233683 14.32284922 19.99233683 14 17 C12.25856492 14.98773973 10.52892308 13.15692549 8.625 11.3125 C8.11710937 10.80138672 7.60921875 10.29027344 7.0859375 9.76367188 C1.5016294 4.26018928 -0.62438337 6.37370677 -6.16333008 11.30786133 Z M-38 8 C-34.4472136 10.1490712 -34.4472136 10.1490712 -32 10 C-32 34.42 -32 58.84 -32 84 C-25.56478934 84 -24.40614178 82.12930538 -20.00195312 77.83203125 C-19.15568359 76.97996094 -18.30941406 76.12789063 -17.4375 75.25 C-16.58736328 74.44433594 -15.73722656 73.63867188 -14.86132812 72.80859375 C-9.42647173 67.39505052 -6.83254191 63.17178739 -5.51977539 55.55761719 C-4 53 -4 53 -1.98791504 52.30557251 C-0.74684998 52.01388687 -0.74684998 52.01388687 0.51928711 51.71630859 C7.28185167 50.00577734 10.99432754 45.91404758 15.7265625 40.9921875 C16.60025482 40.11096222 17.47394714 39.22973694 18.37411499 38.32180786 C21.14129019 35.52226188 23.88283287 32.69902286 26.625 29.875 C28.5027551 27.96631336 30.38641235 26.06356244 32.26953125 24.16015625 C35.68449614 20.69495491 39.09665725 17.22728247 42.48681641 13.73779297 C43.16725006 13.03846649 43.84768372 12.33914001 44.54873657 11.61862183 C46.11126113 10.23823501 46.11126113 10.23823501 46 9 C36.76 9 27.52 9 18 9 C18 9.33 18 9.66 18 10 C20.97 10 23.94 10 27 10 C25.72743976 13.65283314 24.34838652 16.029052 21.62353516 18.76464844 C20.93587067 19.46176941 20.24820618 20.15889038 19.53970337 20.87713623 C18.79699188 21.61377502 18.0542804 22.35041382 17.2890625 23.109375 C16.52451752 23.87679016 15.75997253 24.64420532 14.97225952 25.43487549 C13.35693876 27.05223468 11.73783544 28.66582372 10.11523438 30.27587891 C7.63057491 32.74446116 5.16233394 35.22864857 2.6953125 37.71484375 C1.12335704 39.28481717 -0.44952858 40.85385994 -2.0234375 42.421875 C-3.13143204 43.53897858 -3.13143204 43.53897858 -4.2618103 44.6786499 C-4.95577911 45.36316223 -5.64974792 46.04767456 -6.36474609 46.75292969 C-6.97160248 47.35739929 -7.57845886 47.9618689 -8.20370483 48.58465576 C-10 50 -10 50 -14 51 C-14 37.47 -14 23.94 -14 10 C-12.68 10 -11.36 10 -10 10 C-10 9.34 -10 8.68 -10 8 C-19.24 8 -28.48 8 -38 8 Z M-38.5625 45.5 C-39.036875 45.995 -39.51125 46.49 -40 47 C-38.6910428 50.12197478 -38.6910428 50.12197478 -36 52 C-36 49.36 -36 46.72 -36 44 C-37.24076302 43.88457803 -37.24076302 43.88457803 -38.5625 45.5 Z M-3 64 C-3.9394572 65.44273785 -4.87820962 66.8859421 -5.8125 68.33203125 C-7.59738647 70.83909218 -9.76913852 72.89307527 -12 75 C-10.59284684 78.40062014 -8.97131772 79.89229698 -6 82 C-2.46216317 73.2672692 -2.46216317 73.2672692 -2 64 C-2.33 64 -2.66 64 -3 64 Z " fill="#FFFFFF" transform="translate(46,0)"/>
<path d="M0 0 C1.65 0.33 3.3 0.66 5 1 C5 2.32 5 3.64 5 5 C3.02 5 1.04 5 -1 5 C-0.67 3.35 -0.34 1.7 0 0 Z " fill="#FFFFFF" transform="translate(47,56)"/>
</svg>
